<ttFont>
    <TTGlyph name=".notdef" xMin="23" yMin="-64" xMax="357" yMax="710">
      <contour>
        <pt x="23" y="-64" on="1"/>
        <pt x="23" y="710" on="1"/>
        <pt x="357" y="710" on="1"/>
        <pt x="357" y="-64" on="1"/>
      </contour>
      <contour>
        <pt x="178" y="205" on="1"/>
        <pt x="173" y="251" on="1"/>
        <pt x="173" y="286" on="0"/>
        <pt x="217" y="374" on="0"/>
        <pt x="269" y="442" on="0"/>
        <pt x="313" y="526" on="0"/>
        <pt x="313" y="559" on="1"/>
        <pt x="313" y="613" on="0"/>
        <pt x="233" y="673" on="0"/>
        <pt x="139" y="673" on="0"/>
        <pt x="75" y="629" on="0"/>
        <pt x="75" y="612" on="1"/>
        <pt x="75" y="603" on="0"/>
        <pt x="84" y="603" on="1"/>
        <pt x="85" y="603" on="0"/>
        <pt x="121" y="628" on="0"/>
        <pt x="166" y="628" on="0"/>
        <pt x="230" y="587" on="0"/>
        <pt x="230" y="518" on="0"/>
        <pt x="138" y="310" on="0"/>
        <pt x="138" y="251" on="0"/>
        <pt x="155" y="195" on="0"/>
        <pt x="170" y="195" on="1"/>
        <pt x="178" y="195" on="0"/>
      </contour>
      <contour>
        <pt x="133" y="100" on="1"/>
        <pt x="97" y="69" on="0"/>
        <pt x="97" y="51" on="0"/>
        <pt x="127" y="27" on="0"/>
        <pt x="139" y="13" on="0"/>
        <pt x="164" y="-9" on="0"/>
        <pt x="176" y="-9" on="0"/>
        <pt x="188" y="2" on="0"/>
        <pt x="203" y="22" on="0"/>
        <pt x="210" y="29" on="0"/>
        <pt x="220" y="36" on="1"/>
        <pt x="241" y="49" on="0"/>
        <pt x="241" y="62" on="1"/>
        <pt x="241" y="70" on="0"/>
        <pt x="217" y="89" on="1"/>
        <pt x="207" y="97" on="1"/>
        <pt x="200" y="107" on="1"/>
        <pt x="180" y="132" on="0"/>
        <pt x="166" y="132" on="0"/>
        <pt x="153" y="122" on="0"/>
        <pt x="137" y="103" on="0"/>
      </contour>
    </TTGlyph>
    <TTGlyph name="A" xMin="20" yMin="-4" xMax="792" yMax="724">
      <contour>
        <pt x="135" y="0" on="1"/>
        <pt x="49" y="-4" on="1"/>
        <pt x="20" y="-4" on="0"/>
        <pt x="20" y="8" on="1"/>
        <pt x="20" y="22" on="0"/>
        <pt x="35" y="27" on="1"/>
        <pt x="67" y="39" on="0"/>
        <pt x="115" y="122" on="0"/>
        <pt x="308" y="541" on="0"/>
        <pt x="383" y="701" on="1"/>
        <pt x="390" y="716" on="0"/>
        <pt x="401" y="724" on="0"/>
        <pt x="422" y="724" on="0"/>
        <pt x="428" y="716" on="0"/>
        <pt x="444" y="670" on="0"/>
        <pt x="453" y="646" on="0"/>
        <pt x="473" y="592" on="0"/>
        <pt x="517" y="484" on="0"/>
        <pt x="674" y="119" on="0"/>
        <pt x="698" y="70" on="0"/>
        <pt x="740" y="35" on="0"/>
        <pt x="771" y="32" on="0"/>
        <pt x="792" y="25" on="0"/>
        <pt x="792" y="13" on="1"/>
        <pt x="792" y="-2" on="0"/>
        <pt x="765" y="-2" on="1"/>
        <pt x="675" y="4" on="1"/>
        <pt x="582" y="0" on="1"/>
        <pt x="551" y="0" on="0"/>
        <pt x="534" y="5" on="0"/>
        <pt x="534" y="21" on="0"/>
        <pt x="550" y="30" on="0"/>
        <pt x="568" y="33" on="0"/>
        <pt x="584" y="48" on="0"/>
        <pt x="584" y="83" on="0"/>
        <pt x="534" y="219" on="0"/>
        <pt x="517" y="251" on="1"/>
        <pt x="508" y="268" on="0"/>
        <pt x="476" y="268" on="1"/>
        <pt x="355" y="266" on="1"/>
        <pt x="302" y="266" on="1"/>
        <pt x="257" y="266" on="0"/>
        <pt x="234" y="256" on="0"/>
        <pt x="219" y="224" on="0"/>
        <pt x="191" y="167" on="0"/>
        <pt x="181" y="145" on="0"/>
        <pt x="174" y="128" on="1"/>
        <pt x="161" y="98" on="0"/>
        <pt x="161" y="58" on="0"/>
        <pt x="184" y="34" on="0"/>
        <pt x="198" y="32" on="1"/>
        <pt x="235" y="29" on="0"/>
        <pt x="235" y="13" on="1"/>
        <pt x="235" y="6" on="0"/>
        <pt x="229" y="-1" on="0"/>
        <pt x="218" y="-1" on="1"/>
      </contour>
      <contour>
        <pt x="367" y="570" on="0"/>
        <pt x="271" y="349" on="0"/>
        <pt x="271" y="325" on="0"/>
        <pt x="289" y="319" on="0"/>
        <pt x="322" y="319" on="1"/>
        <pt x="353" y="319" on="1"/>
        <pt x="448" y="320" on="1"/>
        <pt x="487" y="320" on="0"/>
        <pt x="487" y="349" on="0"/>
        <pt x="389" y="570" on="0"/>
        <pt x="376" y="570" on="1"/>
      </contour>
    </TTGlyph>
    <TTGlyph name="AE" xMin="20" yMin="-5" xMax="973" yMax="714">
      <contour>
        <pt x="135" y="0" on="1"/>
        <pt x="49" y="-4" on="1"/>
        <pt x="20" y="-4" on="0"/>
        <pt x="20" y="8" on="1"/>
        <pt x="20" y="22" on="0"/>
        <pt x="36" y="27" on="1"/>
        <pt x="67" y="39" on="0"/>
        <pt x="115" y="113" on="0"/>
        <pt x="312" y="496" on="0"/>
        <pt x="389" y="642" on="1"/>
        <pt x="394" y="652" on="0"/>
        <pt x="394" y="661" on="1"/>
        <pt x="394" y="675" on="0"/>
        <pt x="342" y="680" on="1"/>
        <pt x="319" y="681" on="0"/>
        <pt x="319" y="699" on="1"/>
        <pt x="319" y="714" on="0"/>
        <pt x="349" y="714" on="1"/>
        <pt x="356" y="714" on="0"/>
        <pt x="610" y="707" on="0"/>
        <pt x="708" y="707" on="1"/>
        <pt x="908" y="710" on="1"/>
        <pt x="926" y="710" on="0"/>
        <pt x="926" y="687" on="1"/>
        <pt x="926" y="681" on="0"/>
        <pt x="915" y="614" on="0"/>
        <pt x="915" y="595" on="1"/>
        <pt x="915" y="563" on="0"/>
        <pt x="884" y="563" on="0"/>
        <pt x="884" y="611" on="0"/>
        <pt x="849" y="655" on="0"/>
        <pt x="824" y="656" on="1"/>
        <pt x="734" y="663" on="0"/>
        <pt x="687" y="663" on="1"/>
        <pt x="661" y="663" on="1"/>
        <pt x="609" y="663" on="0"/>
        <pt x="591" y="647" on="0"/>
        <pt x="586" y="548" on="0"/>
        <pt x="586" y="435" on="1"/>
        <pt x="586" y="385" on="0"/>
        <pt x="604" y="384" on="1"/>
        <pt x="703" y="384" on="1"/>
        <pt x="762" y="384" on="0"/>
        <pt x="802" y="392" on="0"/>
        <pt x="829" y="410" on="0"/>
        <pt x="840" y="431" on="0"/>
        <pt x="841" y="438" on="1"/>
        <pt x="843" y="457" on="0"/>
        <pt x="856" y="457" on="1"/>
        <pt x="865" y="457" on="0"/>
        <pt x="869" y="451" on="0"/>
        <pt x="869" y="434" on="0"/>
        <pt x="860" y="356" on="0"/>
        <pt x="860" y="336" on="1"/>
        <pt x="864" y="275" on="1"/>
        <pt x="864" y="250" on="0"/>
        <pt x="857" y="250" on="1"/>
        <pt x="843" y="250" on="0"/>
        <pt x="823" y="315" on="0"/>
        <pt x="810" y="323" on="1"/>
        <pt x="789" y="337" on="0"/>
        <pt x="736" y="337" on="1"/>
        <pt x="664" y="337" on="1"/>
        <pt x="632" y="338" on="1"/>
        <pt x="626" y="338" on="1"/>
        <pt x="585" y="338" on="0"/>
        <pt x="585" y="319" on="1"/>
        <pt x="583" y="175" on="1"/>
        <pt x="583" y="135" on="1"/>
        <pt x="583" y="63" on="0"/>
        <pt x="631" y="48" on="0"/>
        <pt x="649" y="48" on="1"/>
        <pt x="738" y="48" on="0"/>
        <pt x="862" y="68" on="0"/>
        <pt x="916" y="96" on="0"/>
        <pt x="943" y="123" on="0"/>
        <pt x="954" y="143" on="0"/>
        <pt x="961" y="143" on="1"/>
        <pt x="973" y="143" on="0"/>
        <pt x="973" y="126" on="1"/>
        <pt x="973" y="83" on="0"/>
        <pt x="886" y="-5" on="0"/>
        <pt x="854" y="-5" on="1"/>
        <pt x="782" y="-5" on="0"/>
        <pt x="602" y="5" on="0"/>
        <pt x="580" y="5" on="1"/>
        <pt x="443" y="-4" on="1"/>
        <pt x="423" y="-4" on="0"/>
        <pt x="423" y="6" on="1"/>
        <pt x="423" y="18" on="1"/>
        <pt x="423" y="24" on="0"/>
        <pt x="432" y="26" on="1"/>
        <pt x="444" y="27" on="0"/>
        <pt x="490" y="49" on="0"/>
        <pt x="505" y="118" on="0"/>
        <pt x="505" y="230" on="1"/>
        <pt x="505" y="258" on="1"/>
        <pt x="505" y="263" on="0"/>
        <pt x="499" y="263" on="1"/>
        <pt x="415" y="265" on="1"/>
        <pt x="384" y="265" on="1"/>
        <pt x="308" y="266" on="1"/>
        <pt x="269" y="266" on="0"/>
        <pt x="246" y="255" on="0"/>
        <pt x="232" y="227" on="0"/>
        <pt x="209" y="184" on="0"/>
        <pt x="204" y="175" on="1"/>
        <pt x="192" y="150" on="1"/>
        <pt x="166" y="98" on="0"/>
        <pt x="166" y="49" on="0"/>
        <pt x="201" y="30" on="0"/>
        <pt x="236" y="25" on="0"/>
        <pt x="236" y="14" on="1"/>
        <pt x="236" y="-1" on="0"/>
        <pt x="219" y="-1" on="1"/>
      </contour>
      <contour>
        <pt x="290" y="335" on="1"/>
        <pt x="290" y="319" on="0"/>
        <pt x="340" y="319" on="1"/>
        <pt x="431" y="319" on="1"/>
        <pt x="483" y="319" on="0"/>
        <pt x="504" y="327" on="0"/>
        <pt x="504" y="348" on="1"/>
        <pt x="504" y="602" on="1"/>
        <pt x="504" y="652" on="0"/>
        <pt x="490" y="664" on="1"/>
        <pt x="483" y="669" on="0"/>
        <pt x="458" y="669" on="0"/>
        <pt x="445" y="648" on="1"/>
        <pt x="413" y="593" on="0"/>
        <pt x="290" y="345" on="0"/>
      </contour>
    </TTGlyph>
    <TTGlyph name="Aacute" xMin="20" yMin="-4" xMax="792" yMax="926">
      <component glyphName="acutecomb" x="625" y="264" flags="0x1004"/>
      <component glyphName="A" x="0" y="0" flags="0x1004"/>
    </TTGlyph>
    <TTGlyph name="Abreve" xMin="20" yMin="-4" xMax="792" yMax="894">
      <component glyphName="uni0306" x="625" y="264" flags="0x1004"/>
      <component glyphName="A" x="0" y="0" flags="0x1004"/>
    </TTGlyph>
    <TTGlyph name="Acircumflex" xMin="20" yMin="-4" xMax="792" yMax="912">
      <component glyphName="uni0302" x="625" y="264" flags="0x1004"/>
      <component glyphName="A" x="0" y="0" flags="0x1004"/>
    </TTGlyph>
    <TTGlyph name="Adieresis" xMin="20" yMin="-4" xMax="792" yMax="906">
      <component glyphName="uni0308" x="625" y="264" flags="0x1004"/>
      <component glyphName="A" x="0" y="0" flags="0x1004"/>
    </TTGlyph>
    <TTGlyph name="Agrave" xMin="20" yMin="-4" xMax="792" yMax="926">
      <component glyphName="gravecomb" x="625" y="264" flags="0x1004"/>
      <component glyphName="A" x="0" y="0" flags="0x1004"/>
    </TTGlyph>
    <TTGlyph name="Amacron" xMin="20" yMin="-4" xMax="792" yMax="872">
      <component glyphName="uni0304" x="625" y="264" flags="0x1004"/>
      <component glyphName="A" x="0" y="0" flags="0x1004"/>
    </TTGlyph>
    <TTGlyph name="Aogonek" xMin="20" yMin="-204" xMax="792" yMax="724">
      <contour>
        <pt x="135" y="0" on="1"/>
        <pt x="49" y="-4" on="1"/>
        <pt x="20" y="-4" on="0"/>
        <pt x="20" y="8" on="1"/>
        <pt x="20" y="22" on="0"/>
        <pt x="35" y="27" on="1"/>
        <pt x="65" y="38" on="0"/>
        <pt x="108" y="111" on="0"/>
        <pt x="295" y="517" on="0"/>
        <pt x="383" y="701" on="1"/>
        <pt x="390" y="716" on="0"/>
        <pt x="401" y="724" on="0"/>
        <pt x="422" y="724" on="0"/>
        <pt x="428" y="716" on="0"/>
        <pt x="444" y="670" on="0"/>
        <pt x="453" y="646" on="0"/>
        <pt x="473" y="592" on="0"/>
        <pt x="517" y="484" on="0"/>
        <pt x="674" y="119" on="0"/>
        <pt x="698" y="70" on="0"/>
        <pt x="740" y="35" on="0"/>
        <pt x="771" y="32" on="0"/>
        <pt x="792" y="25" on="0"/>
        <pt x="792" y="13" on="1"/>
        <pt x="792" y="-2" on="0"/>
        <pt x="765" y="-2" on="1"/>
        <pt x="675" y="4" on="1"/>
        <pt x="571" y="4" on="0"/>
        <pt x="548" y="-46" on="1"/>
        <pt x="538" y="-69" on="0"/>
        <pt x="538" y="-121" on="0"/>
        <pt x="568" y="-164" on="0"/>
        <pt x="610" y="-164" on="0"/>
        <pt x="640" y="-139" on="0"/>
        <pt x="644" y="-139" on="1"/>
        <pt x="652" y="-139" on="0"/>
        <pt x="652" y="-160" on="0"/>
        <pt x="593" y="-204" on="0"/>
        <pt x="517" y="-204" on="0"/>
        <pt x="475" y="-145" on="0"/>
        <pt x="475" y="-86" on="0"/>
        <pt x="509" y="-32" on="0"/>
        <pt x="530" y="-18" on="1"/>
        <pt x="584" y="21" on="0"/>
        <pt x="584" y="61" on="1"/>
        <pt x="584" y="83" on="0"/>
        <pt x="558" y="152" on="1"/>
        <pt x="524" y="244" on="0"/>
        <pt x="501" y="267" on="0"/>
        <pt x="485" y="268" on="1"/>
        <pt x="391" y="266" on="1"/>
        <pt x="370" y="266" on="0"/>
        <pt x="252" y="265" on="0"/>
        <pt x="240" y="258" on="1"/>
        <pt x="233" y="253" on="0"/>
        <pt x="219" y="224" on="0"/>
        <pt x="191" y="167" on="0"/>
        <pt x="181" y="145" on="0"/>
        <pt x="174" y="128" on="1"/>
        <pt x="161" y="98" on="0"/>
        <pt x="161" y="58" on="0"/>
        <pt x="184" y="34" on="0"/>
        <pt x="198" y="32" on="1"/>
        <pt x="235" y="29" on="0"/>
        <pt x="235" y="13" on="1"/>
        <pt x="235" y="6" on="0"/>
        <pt x="229" y="-1" on="0"/>
        <pt x="218" y="-1" on="1"/>
      </contour>
      <contour>
        <pt x="367" y="570" on="0"/>
        <pt x="271" y="349" on="0"/>
        <pt x="271" y="325" on="0"/>
        <pt x="289" y="319" on="0"/>
        <pt x="322" y="319" on="1"/>
        <pt x="353" y="319" on="1"/>
        <pt x="448" y="320" on="1"/>
        <pt x="487" y="320" on="0"/>
        <pt x="487" y="349" on="0"/>
        <pt x="389" y="570" on="0"/>
        <pt x="376" y="570" on="1"/>
      </contour>
    </TTGlyph>
    <TTGlyph name="Aring" xMin="20" yMin="-4" xMax="792" yMax="932">
      <component glyphName="uni030A" x="625" y="264" flags="0x1004"/>
      <component glyphName="A" x="0" y="0" flags="0x1004"/>
    </TTGlyph>
    <TTGlyph name="Atilde" xMin="20" yMin="-4" xMax="792" yMax="908">
      <component glyphName="tildecomb" x="625" y="264" flags="0x1004"/>
      <component glyphName="A" x="0" y="0" flags="0x1004"/>
    </TTGlyph>
    <TTGlyph name="B" xMin="20" yMin="-8" xMax="601" yMax="712">
      <contour>
        <pt x="54" y="28" on="1"/>
        <pt x="77" y="29" on="1"/>
        <pt x="98" y="29" on="0"/>
        <pt x="112" y="64" on="1"/>
        <pt x="121" y="87" on="0"/>
        <pt x="125" y="187" on="0"/>
        <pt x="125" y="434" on="1"/>
        <pt x="125" y="604" on="1"/>
        <pt x="125" y="620" on="0"/>
        <pt x="115" y="640" on="1"/>
        <pt x="95" y="682" on="0"/>
        <pt x="37" y="682" on="1"/>
        <pt x="20" y="682" on="0"/>
        <pt x="20" y="694" on="1"/>
        <pt x="20" y="709" on="0"/>
        <pt x="29" y="709" on="1"/>
        <pt x="69" y="708" on="1"/>
        <pt x="215" y="709" on="1"/>
        <pt x="325" y="712" on="1"/>
        <pt x="416" y="712" on="0"/>
        <pt x="538" y="625" on="0"/>
        <pt x="538" y="545" on="1"/>
        <pt x="538" y="459" on="0"/>
        <pt x="448" y="404" on="1"/>
        <pt x="438" y="397" on="0"/>
        <pt x="438" y="396" on="1"/>
        <pt x="438" y="393" on="0"/>
        <pt x="472" y="384" on="0"/>
        <pt x="520" y="363" on="0"/>
        <pt x="567" y="327" on="0"/>
        <pt x="601" y="256" on="0"/>
        <pt x="601" y="165" on="0"/>
        <pt x="551" y="67" on="0"/>
        <pt x="473" y="13" on="0"/>
        <pt x="397" y="-8" on="0"/>
        <pt x="303" y="-8" on="0"/>
        <pt x="171" y="3" on="0"/>
        <pt x="164" y="3" on="1"/>
        <pt x="78" y="-1" on="1"/>
        <pt x="64" y="-1" on="1"/>
        <pt x="43" y="-1" on="0"/>
        <pt x="43" y="28" on="0"/>
      </contour>
      <contour>
        <pt x="202" y="136" on="1"/>
        <pt x="201" y="92" on="1"/>
        <pt x="201" y="32" on="0"/>
        <pt x="299" y="32" on="1"/>
        <pt x="322" y="32" on="1"/>
        <pt x="376" y="32" on="0"/>
        <pt x="455" y="45" on="0"/>
        <pt x="516" y="127" on="0"/>
        <pt x="516" y="233" on="0"/>
        <pt x="480" y="304" on="0"/>
        <pt x="434" y="340" on="0"/>
        <pt x="402" y="350" on="1"/>
        <pt x="358" y="364" on="0"/>
        <pt x="320" y="364" on="1"/>
        <pt x="242" y="365" on="1"/>
        <pt x="227" y="366" on="1"/>
        <pt x="218" y="366" on="0"/>
        <pt x="210" y="361" on="0"/>
        <pt x="206" y="344" on="1"/>
        <pt x="202" y="323" on="0"/>
        <pt x="202" y="204" on="1"/>
      </contour>
      <contour>
        <pt x="207" y="545" on="1"/>
        <pt x="207" y="419" on="0"/>
        <pt x="214" y="405" on="1"/>
        <pt x="218" y="398" on="0"/>
        <pt x="271" y="398" on="1"/>
        <pt x="335" y="398" on="1"/>
        <pt x="398" y="398" on="0"/>
        <pt x="461" y="464" on="0"/>
        <pt x="461" y="572" on="0"/>
        <pt x="356" y="677" on="0"/>
        <pt x="259" y="677" on="1"/>
        <pt x="228" y="677" on="0"/>
        <pt x="207" y="640" on="0"/>
        <pt x="207" y="574" on="1"/>
      </contour>
    </TTGlyph>
    <TTGlyph name="C" xMin="44" yMin="-21" xMax="736" yMax="714">
      <contour>
        <pt x="44" y="433" on="0"/>
        <pt x="128" y="607" on="0"/>
        <pt x="303" y="714" on="0"/>
        <pt x="423" y="714" on="1"/>
        <pt x="484" y="714" on="0"/>
        <pt x="608" y="678" on="0"/>
        <pt x="645" y="660" on="1"/>
        <pt x="682" y="641" on="1"/>
        <pt x="685" y="641" on="0"/>
        <pt x="699" y="651" on="0"/>
        <pt x="708" y="651" on="0"/>
        <pt x="718" y="643" on="0"/>
        <pt x="719" y="606" on="0"/>
        <pt x="726" y="541" on="0"/>
        <pt x="732" y="499" on="0"/>
        <pt x="732" y="495" on="1"/>
        <pt x="732" y="477" on="0"/>
        <pt x="720" y="477" on="1"/>
        <pt x="711" y="477" on="0"/>
        <pt x="703" y="491" on="1"/>
        <pt x="606" y="673" on="0"/>
        <pt x="423" y="673" on="1"/>
        <pt x="298" y="673" on="0"/>
        <pt x="138" y="513" on="0"/>
        <pt x="138" y="384" on="1"/>
        <pt x="138" y="240" on="0"/>
        <pt x="212" y="138" on="1"/>
        <pt x="250" y="86" on="0"/>
        <pt x="382" y="26" on="0"/>
        <pt x="470" y="26" on="1"/>
        <pt x="614" y="26" on="0"/>
        <pt x="712" y="176" on="1"/>
        <pt x="716" y="183" on="0"/>
        <pt x="727" y="183" on="1"/>
        <pt x="736" y="183" on="0"/>
        <pt x="736" y="158" on="0"/>
        <pt x="729" y="121" on="0"/>
        <pt x="719" y="76" on="0"/>
        <pt x="718" y="71" on="1"/>
        <pt x="716" y="60" on="0"/>
        <pt x="702" y="53" on="1"/>
        <pt x="648" y="27" on="0"/>
        <pt x="618" y="14" on="1"/>
        <pt x="538" y="-20" on="0"/>
        <pt x="357" y="-20" on="0"/>
        <pt x="217" y="22" on="0"/>
        <pt x="128" y="90" on="0"/>
        <pt x="98" y="136" on="1"/>
        <pt x="44" y="217" on="0"/>
      </contour>
    </TTGlyph>
    <TTGlyph name="Cacute" xMin="44" yMin="-20" xMax="736" yMax="926">
      <component glyphName="acutecomb" x="639" y="264" flags="0x1004"/>
      <component glyphName="C" x="0" y="0" flags="0x1004"/>
    </TTGlyph>
    <TTGlyph name="Ccaron" xMin="44" yMin="-20" xMax="736" yMax="912">
      <component glyphName="uni030C" x="639" y="264" flags="0x1004"/>
      <component glyphName="C" x="0" y="0" flags="0x1004"/>
    </TTGlyph>
    <TTGlyph name="Ccedilla" xMin="44" yMin="-201" xMax="736" yMax="714">
      <component glyphName="uni0327" x="667" y="0" flags="0x1004"/>
      <component glyphName="C" x="0" y="0" flags="0x1004"/>
    </TTGlyph>
    <TTGlyph name="Ccircumflex" xMin="44" yMin="-20" xMax="736" yMax="912">
      <component glyphName="uni0302" x="639" y="264" flags="0x1004"/>
      <component glyphName="C" x="0" y="0" flags="0x1004"/>
    </TTGlyph>
    <TTGlyph name="Cdotaccent" xMin="44" yMin="-20" xMax="736" yMax="909">
      <component glyphName="uni0307" x="639" y="264" flags="0x1004"/>
      <component glyphName="C" x="0" y="0" flags="0x1004"/>
    </TTGlyph>
    <TTGlyph name="D" xMin="20" yMin="-3" xMax="748" yMax="716">
      <contour>
        <pt x="114" y="369" on="1"/>
        <pt x="113" y="623" on="1"/>
        <pt x="113" y="640" on="0"/>
        <pt x="80" y="675" on="0"/>
        <pt x="46" y="677" on="0"/>
        <pt x="33" y="679" on="0"/>
        <pt x="20" y="690" on="0"/>
        <pt x="20" y="709" on="0"/>
        <pt x="37" y="712" on="0"/>
        <pt x="71" y="712" on="1"/>
        <pt x="158" y="712" on="1"/>
        <pt x="353" y="716" on="1"/>
        <pt x="498" y="716" on="0"/>
        <pt x="618" y="634" on="1"/>
        <pt x="676" y="595" on="0"/>
        <pt x="748" y="468" on="0"/>
        <pt x="748" y="320" on="0"/>
        <pt x="729" y="217" on="0"/>
        <pt x="685" y="142" on="0"/>
        <pt x="641" y="95" on="0"/>
        <pt x="573" y="39" on="0"/>
        <pt x="459" y="-3" on="0"/>
        <pt x="399" y="-3" on="1"/>
        <pt x="159" y="2" on="1"/>
        <pt x="124" y="2" on="0"/>
        <pt x="64" y="-3" on="0"/>
        <pt x="59" y="-3" on="1"/>
        <pt x="35" y="-3" on="0"/>
        <pt x="35" y="10" on="1"/>
        <pt x="35" y="18" on="0"/>
        <pt x="42" y="25" on="0"/>
        <pt x="65" y="31" on="0"/>
        <pt x="70" y="33" on="1"/>
        <pt x="86" y="40" on="0"/>
        <pt x="113" y="79" on="0"/>
        <pt x="113" y="98" on="1"/>
        <pt x="113" y="98" on="0"/>
      </contour>
      <contour>
        <pt x="198" y="354" on="1"/>
        <pt x="197" y="141" on="1"/>
        <pt x="197" y="94" on="0"/>
        <pt x="207" y="74" on="1"/>
        <pt x="212" y="65" on="0"/>
        <pt x="240" y="57" on="0"/>
        <pt x="276" y="47" on="0"/>
        <pt x="323" y="34" on="0"/>
        <pt x="361" y="34" on="1"/>
        <pt x="381" y="34" on="1"/>
        <pt x="449" y="34" on="0"/>
        <pt x="545" y="73" on="0"/>
        <pt x="589" y="115" on="1"/>
        <pt x="663" y="186" on="0"/>
        <pt x="663" y="345" on="1"/>
        <pt x="663" y="425" on="0"/>
        <pt x="600" y="555" on="0"/>
        <pt x="549" y="594" on="1"/>
        <pt x="444" y="673" on="0"/>
        <pt x="320" y="673" on="1"/>
        <pt x="280" y="673" on="1"/>
        <pt x="232" y="673" on="0"/>
        <pt x="216" y="656" on="1"/>
        <pt x="208" y="648" on="0"/>
        <pt x="205" y="636" on="0"/>
        <pt x="200" y="601" on="0"/>
        <pt x="200" y="588" on="1"/>
        <pt x="200" y="546" on="1"/>
      </contour>
    </TTGlyph>
    <TTGlyph name="Dcaron" xMin="20" yMin="-3" xMax="748" yMax="912">
      <component glyphName="uni030C" x="594" y="264" flags="0x1004"/>
      <component glyphName="D" x="0" y="0" flags="0x1004"/>
    </TTGlyph>
    <TTGlyph name="Dcroat" xMin="20" yMin="-3" xMax="748" yMax="716">
      <component glyphName="Eth" x="0" y="0" flags="0x1004"/>
    </TTGlyph>
    <TTGlyph name="E" xMin="20" yMin="-5" xMax="584" yMax="713">
      <contour>
        <pt x="116" y="355" on="1"/>
        <pt x="119" y="528" on="1"/>
        <pt x="119" y="555" on="0"/>
        <pt x="117" y="619" on="1"/>
        <pt x="116" y="648" on="0"/>
        <pt x="68" y="680" on="0"/>
        <pt x="36" y="681" on="1"/>
        <pt x="20" y="681" on="0"/>
        <pt x="20" y="699" on="1"/>
        <pt x="20" y="713" on="0"/>
        <pt x="48" y="713" on="1"/>
        <pt x="75" y="711" on="1"/>
        <pt x="319" y="706" on="1"/>
        <pt x="519" y="710" on="1"/>
        <pt x="538" y="710" on="0"/>
        <pt x="538" y="687" on="1"/>
        <pt x="538" y="681" on="0"/>
        <pt x="526" y="614" on="0"/>
        <pt x="526" y="595" on="1"/>
        <pt x="526" y="563" on="0"/>
        <pt x="495" y="563" on="0"/>
        <pt x="495" y="611" on="0"/>
        <pt x="461" y="655" on="0"/>
        <pt x="436" y="656" on="1"/>
        <pt x="346" y="663" on="0"/>
        <pt x="298" y="663" on="1"/>
        <pt x="272" y="663" on="1"/>
        <pt x="220" y="663" on="0"/>
        <pt x="212" y="656" on="1"/>
        <pt x="197" y="643" on="0"/>
        <pt x="197" y="435" on="1"/>
        <pt x="197" y="385" on="0"/>
        <pt x="216" y="384" on="1"/>
        <pt x="314" y="384" on="1"/>
        <pt x="374" y="384" on="0"/>
        <pt x="394" y="388" on="1"/>
        <pt x="446" y="398" on="0"/>
        <pt x="453" y="440" on="1"/>
        <pt x="456" y="457" on="0"/>
        <pt x="476" y="457" on="0"/>
        <pt x="480" y="451" on="0"/>
        <pt x="480" y="441" on="1"/>
        <pt x="472" y="336" on="1"/>
        <pt x="475" y="275" on="1"/>
        <pt x="475" y="250" on="0"/>
        <pt x="468" y="250" on="1"/>
        <pt x="453" y="250" on="0"/>
        <pt x="446" y="274" on="1"/>
        <pt x="432" y="316" on="0"/>
        <pt x="421" y="323" on="1"/>
        <pt x="400" y="337" on="0"/>
        <pt x="348" y="337" on="1"/>
        <pt x="276" y="337" on="1"/>
        <pt x="244" y="338" on="1"/>
        <pt x="237" y="338" on="1"/>
        <pt x="196" y="338" on="0"/>
        <pt x="196" y="319" on="1"/>
        <pt x="194" y="175" on="1"/>
        <pt x="194" y="135" on="1"/>
        <pt x="194" y="63" on="0"/>
        <pt x="243" y="48" on="0"/>
        <pt x="261" y="48" on="1"/>
        <pt x="411" y="48" on="0"/>
        <pt x="478" y="72" on="1"/>
        <pt x="537" y="94" on="0"/>
        <pt x="550" y="118" on="1"/>
        <pt x="562" y="143" on="0"/>
        <pt x="572" y="143" on="1"/>
        <pt x="584" y="143" on="0"/>
        <pt x="584" y="126" on="1"/>
        <pt x="584" y="83" on="0"/>
        <pt x="498" y="-5" on="0"/>
        <pt x="466" y="-5" on="1"/>
        <pt x="394" y="-5" on="0"/>
        <pt x="213" y="5" on="0"/>
        <pt x="191" y="5" on="1"/>
        <pt x="55" y="-4" on="1"/>
        <pt x="34" y="-4" on="0"/>
        <pt x="34" y="6" on="1"/>
        <pt x="34" y="18" on="1"/>
        <pt x="34" y="24" on="0"/>
        <pt x="44" y="26" on="1"/>
        <pt x="55" y="27" on="0"/>
        <pt x="101" y="49" on="0"/>
        <pt x="116" y="119" on="0"/>
        <pt x="116" y="231" on="1"/>
      </contour>
    </TTGlyph>
    <TTGlyph name="Eacute" xMin="20" yMin="-5" xMax="584" yMax="926">
      <component glyphName="acutecomb" x="528" y="264" flags="0x1004"/>
      <component glyphName="E" x="0" y="0" flags="0x1004"/>
    </TTGlyph>
    <TTGlyph name="Ebreve" xMin="20" yMin="-5" xMax="584" yMax="894">
      <component glyphName="uni0306" x="528" y="264" flags="0x1004"/>
      <component glyphName="E" x="0" y="0" flags="0x1004"/>
    </TTGlyph>
    <TTGlyph name="Ecaron" xMin="20" yMin="-5" xMax="584" yMax="912">
      <component glyphName="uni030C" x="528" y="264" flags="0x1004"/>
      <component glyphName="E" x="0" y="0" flags="0x1004"/>
    </TTGlyph>
    <TTGlyph name="Ecircumflex" xMin="20" yMin="-5" xMax="584" yMax="912">
      <component glyphName="uni0302" x="528" y="264" flags="0x1004"/>
      <component glyphName="E" x="0" y="0" flags="0x1004"/>
    </TTGlyph>
    <TTGlyph name="Edieresis" xMin="20" yMin="-5" xMax="584" yMax="906">
      <component glyphName="uni0308" x="528" y="264" flags="0x1004"/>
      <component glyphName="E" x="0" y="0" flags="0x1004"/>
    </TTGlyph>
    <TTGlyph name="Edotaccent" xMin="20" yMin="-5" xMax="584" yMax="909">
      <component glyphName="uni0307" x="528" y="264" flags="0x1004"/>
      <component glyphName="E" x="0" y="0" flags="0x1004"/>
    </TTGlyph>
    <TTGlyph name="Egrave" xMin="20" yMin="-5" xMax="584" yMax="926">
      <component glyphName="gravecomb" x="528" y="264" flags="0x1004"/>
      <component glyphName="E" x="0" y="0" flags="0x1004"/>
    </TTGlyph>
    <TTGlyph name="Emacron" xMin="20" yMin="-5" xMax="584" yMax="872">
      <component glyphName="uni0304" x="528" y="264" flags="0x1004"/>
      <component glyphName="E" x="0" y="0" flags="0x1004"/>
    </TTGlyph>
    <TTGlyph name="Eogonek" xMin="20" yMin="-204" xMax="584" yMax="713">
      <contour>
        <pt x="116" y="355" on="1"/>
        <pt x="119" y="528" on="1"/>
        <pt x="119" y="555" on="0"/>
        <pt x="117" y="619" on="1"/>
        <pt x="116" y="648" on="0"/>
        <pt x="68" y="680" on="0"/>
        <pt x="36" y="681" on="1"/>
        <pt x="20" y="682" on="0"/>
        <pt x="20" y="699" on="1"/>
        <pt x="20" y="713" on="0"/>
        <pt x="48" y="713" on="1"/>
        <pt x="75" y="711" on="1"/>
        <pt x="319" y="706" on="1"/>
        <pt x="519" y="710" on="1"/>
        <pt x="538" y="710" on="0"/>
        <pt x="538" y="687" on="1"/>
        <pt x="538" y="681" on="0"/>
        <pt x="526" y="614" on="0"/>
        <pt x="526" y="595" on="1"/>
        <pt x="526" y="563" on="0"/>
        <pt x="495" y="563" on="0"/>
        <pt x="495" y="611" on="0"/>
        <pt x="461" y="654" on="0"/>
        <pt x="436" y="656" on="1"/>
        <pt x="346" y="663" on="0"/>
        <pt x="298" y="663" on="1"/>
        <pt x="272" y="663" on="1"/>
        <pt x="220" y="663" on="0"/>
        <pt x="212" y="656" on="1"/>
        <pt x="197" y="643" on="0"/>
        <pt x="197" y="435" on="1"/>
        <pt x="197" y="385" on="0"/>
        <pt x="216" y="384" on="1"/>
        <pt x="314" y="384" on="1"/>
        <pt x="374" y="384" on="0"/>
        <pt x="414" y="392" on="0"/>
        <pt x="441" y="410" on="0"/>
        <pt x="452" y="431" on="0"/>
        <pt x="452" y="438" on="1"/>
        <pt x="454" y="457" on="0"/>
        <pt x="467" y="457" on="1"/>
        <pt x="476" y="457" on="0"/>
        <pt x="480" y="451" on="0"/>
        <pt x="480" y="441" on="1"/>
        <pt x="472" y="336" on="1"/>
        <pt x="475" y="275" on="1"/>
        <pt x="475" y="250" on="0"/>
        <pt x="468" y="250" on="1"/>
        <pt x="454" y="250" on="0"/>
        <pt x="434" y="315" on="0"/>
        <pt x="421" y="323" on="1"/>
        <pt x="400" y="337" on="0"/>
        <pt x="348" y="337" on="1"/>
        <pt x="276" y="337" on="1"/>
        <pt x="244" y="338" on="1"/>
        <pt x="237" y="338" on="1"/>
        <pt x="196" y="338" on="0"/>
        <pt x="196" y="319" on="1"/>
        <pt x="194" y="175" on="1"/>
        <pt x="194" y="135" on="1"/>
        <pt x="194" y="63" on="0"/>
        <pt x="243" y="48" on="0"/>
        <pt x="261" y="48" on="1"/>
        <pt x="411" y="48" on="0"/>
        <pt x="478" y="72" on="1"/>
        <pt x="537" y="94" on="0"/>
        <pt x="550" y="118" on="1"/>
        <pt x="562" y="143" on="0"/>
        <pt x="572" y="143" on="1"/>
        <pt x="584" y="143" on="0"/>
        <pt x="584" y="111" on="0"/>
        <pt x="569" y="72" on="0"/>
        <pt x="535" y="31" on="0"/>
        <pt x="524" y="23" on="1"/>
        <pt x="500" y="5" on="0"/>
        <pt x="487" y="-2" on="0"/>
        <pt x="481" y="-6" on="0"/>
        <pt x="472" y="-13" on="0"/>
        <pt x="463" y="-21" on="0"/>
        <pt x="454" y="-32" on="0"/>
        <pt x="446" y="-45" on="0"/>
        <pt x="443" y="-52" on="1"/>
        <pt x="436" y="-70" on="0"/>
        <pt x="436" y="-124" on="0"/>
        <pt x="471" y="-163" on="0"/>
        <pt x="512" y="-163" on="0"/>
        <pt x="544" y="-143" on="0"/>
        <pt x="545" y="-143" on="1"/>
        <pt x="552" y="-143" on="0"/>
        <pt x="552" y="-149" on="1"/>
        <pt x="552" y="-166" on="0"/>
        <pt x="502" y="-204" on="0"/>
        <pt x="421" y="-204" on="0"/>
        <pt x="373" y="-149" on="0"/>
        <pt x="373" y="-114" on="1"/>
        <pt x="373" y="-61" on="0"/>
        <pt x="438" y="-7" on="1"/>
        <pt x="438" y="-5" on="0"/>
        <pt x="426" y="-5" on="1"/>
        <pt x="191" y="5" on="1"/>
        <pt x="55" y="-4" on="1"/>
        <pt x="34" y="-4" on="0"/>
        <pt x="34" y="6" on="1"/>
        <pt x="34" y="18" on="1"/>
        <pt x="34" y="24" on="0"/>
        <pt x="44" y="26" on="1"/>
        <pt x="55" y="27" on="0"/>
        <pt x="101" y="49" on="0"/>
        <pt x="116" y="119" on="0"/>
        <pt x="116" y="231" on="1"/>
      </contour>
    </TTGlyph>
    <TTGlyph name="Eth" xMin="20" yMin="-3" xMax="748" yMax="716">
      <contour>
        <pt x="114" y="401" on="1"/>
        <pt x="113" y="623" on="1"/>
        <pt x="113" y="640" on="0"/>
        <pt x="80" y="675" on="0"/>
        <pt x="46" y="677" on="0"/>
        <pt x="33" y="679" on="0"/>
        <pt x="20" y="690" on="0"/>
        <pt x="20" y="709" on="0"/>
        <pt x="37" y="712" on="0"/>
        <pt x="71" y="712" on="1"/>
        <pt x="158" y="712" on="1"/>
        <pt x="353" y="716" on="1"/>
        <pt x="498" y="716" on="0"/>
        <pt x="618" y="634" on="1"/>
        <pt x="676" y="595" on="0"/>
        <pt x="748" y="468" on="0"/>
        <pt x="748" y="320" on="0"/>
        <pt x="729" y="217" on="0"/>
        <pt x="685" y="142" on="0"/>
        <pt x="641" y="95" on="0"/>
        <pt x="573" y="39" on="0"/>
        <pt x="459" y="-3" on="0"/>
        <pt x="399" y="-3" on="1"/>
        <pt x="159" y="2" on="1"/>
        <pt x="124" y="2" on="0"/>
        <pt x="64" y="-3" on="0"/>
        <pt x="59" y="-3" on="1"/>
        <pt x="35" y="-3" on="0"/>
        <pt x="35" y="10" on="1"/>
        <pt x="35" y="18" on="0"/>
        <pt x="42" y="25" on="0"/>
        <pt x="65" y="31" on="0"/>
        <pt x="70" y="33" on="1"/>
        <pt x="86" y="40" on="0"/>
        <pt x="113" y="79" on="0"/>
        <pt x="113" y="98" on="1"/>
        <pt x="113" y="98" on="0"/>
        <pt x="114" y="324" on="1"/>
        <pt x="114" y="333" on="0"/>
        <pt x="109" y="340" on="0"/>
        <pt x="100" y="340" on="1"/>
        <pt x="35" y="340" on="1"/>
        <pt x="23" y="340" on="0"/>
        <pt x="23" y="383" on="0"/>
        <pt x="35" y="383" on="1"/>
        <pt x="100" y="384" on="1"/>
        <pt x="110" y="384" on="0"/>
        <pt x="114" y="390" on="0"/>
      </contour>
      <contour>
        <pt x="198" y="322" on="1"/>
        <pt x="197" y="141" on="1"/>
        <pt x="197" y="101" on="0"/>
        <pt x="205" y="79" on="0"/>
        <pt x="209" y="70" on="0"/>
        <pt x="229" y="60" on="0"/>
        <pt x="235" y="58" on="1"/>
        <pt x="273" y="49" on="0"/>
        <pt x="323" y="34" on="0"/>
        <pt x="361" y="34" on="1"/>
        <pt x="381" y="34" on="1"/>
        <pt x="449" y="34" on="0"/>
        <pt x="545" y="73" on="0"/>
        <pt x="589" y="115" on="1"/>
        <pt x="663" y="186" on="0"/>
        <pt x="663" y="345" on="1"/>
        <pt x="663" y="425" on="0"/>
        <pt x="600" y="555" on="0"/>
        <pt x="549" y="594" on="1"/>
        <pt x="444" y="673" on="0"/>
        <pt x="320" y="673" on="1"/>
        <pt x="280" y="673" on="1"/>
        <pt x="232" y="673" on="0"/>
        <pt x="216" y="656" on="1"/>
        <pt x="208" y="648" on="0"/>
        <pt x="205" y="636" on="0"/>
        <pt x="200" y="601" on="0"/>
        <pt x="200" y="588" on="1"/>
        <pt x="200" y="546" on="1"/>
        <pt x="199" y="406" on="1"/>
        <pt x="199" y="392" on="0"/>
        <pt x="205" y="384" on="0"/>
        <pt x="220" y="384" on="1"/>
        <pt x="371" y="384" on="1"/>
        <pt x="385" y="384" on="0"/>
        <pt x="392" y="374" on="0"/>
        <pt x="392" y="353" on="0"/>
        <pt x="391" y="350" on="1"/>
        <pt x="388" y="340" on="0"/>
        <pt x="369" y="340" on="1"/>
        <pt x="219" y="339" on="1"/>
        <pt x="209" y="339" on="1"/>
        <pt x="201" y="339" on="0"/>
        <pt x="198" y="335" on="0"/>
        <pt x="198" y="327" on="1"/>
      </contour>
    </TTGlyph>
    <TTGlyph name="Euro" xMin="20" yMin="10" xMax="545" yMax="532">
      <contour>
        <pt x="144" y="271" on="1"/>
        <pt x="145" y="252" on="1"/>
        <pt x="460" y="252" on="1"/>
        <pt x="440" y="204" on="1"/>
        <pt x="155" y="204" on="1"/>
        <pt x="179" y="132" on="0"/>
        <pt x="297" y="57" on="0"/>
        <pt x="355" y="57" on="1"/>
        <pt x="428" y="57" on="0"/>
        <pt x="476" y="92" on="1"/>
        <pt x="502" y="111" on="0"/>
        <pt x="523" y="132" on="1"/>
        <pt x="526" y="132" on="1"/>
        <pt x="526" y="71" on="1"/>
        <pt x="451" y="10" on="0"/>
        <pt x="358" y="10" on="1"/>
        <pt x="287" y="10" on="0"/>
        <pt x="217" y="51" on="1"/>
        <pt x="181" y="72" on="0"/>
        <pt x="121" y="151" on="0"/>
        <pt x="105" y="204" on="1"/>
        <pt x="23" y="204" on="1"/>
        <pt x="42" y="252" on="1"/>
        <pt x="97" y="252" on="1"/>
        <pt x="97" y="291" on="1"/>
        <pt x="20" y="291" on="1"/>
        <pt x="39" y="338" on="1"/>
        <pt x="105" y="338" on="1"/>
        <pt x="125" y="408" on="0"/>
        <pt x="172" y="454" on="1"/>
        <pt x="253" y="532" on="0"/>
        <pt x="352" y="532" on="1"/>
        <pt x="410" y="532" on="0"/>
        <pt x="500" y="496" on="0"/>
        <pt x="545" y="454" on="1"/>
        <pt x="523" y="404" on="1"/>
        <pt x="501" y="440" on="0"/>
        <pt x="402" y="485" on="0"/>
        <pt x="297" y="485" on="0"/>
        <pt x="183" y="415" on="0"/>
        <pt x="155" y="338" on="1"/>
        <pt x="496" y="338" on="1"/>
        <pt x="477" y="291" on="1"/>
        <pt x="145" y="291" on="1"/>
      </contour>
    </TTGlyph>
    <TTGlyph name="F" xMin="20" yMin="-4" xMax="534" yMax="714">
      <contour>
        <pt x="20" y="697" on="1"/>
        <pt x="20" y="704" on="0"/>
        <pt x="36" y="714" on="0"/>
        <pt x="46" y="714" on="1"/>
        <pt x="73" y="714" on="1"/>
        <pt x="97" y="714" on="0"/>
        <pt x="204" y="708" on="0"/>
        <pt x="290" y="708" on="1"/>
        <pt x="517" y="713" on="1"/>
        <pt x="534" y="713" on="0"/>
        <pt x="534" y="689" on="1"/>
        <pt x="534" y="676" on="0"/>
        <pt x="522" y="608" on="0"/>
        <pt x="518" y="567" on="0"/>
        <pt x="491" y="567" on="0"/>
        <pt x="491" y="587" on="1"/>
        <pt x="491" y="653" on="0"/>
        <pt x="445" y="656" on="1"/>
        <pt x="294" y="668" on="0"/>
        <pt x="220" y="668" on="0"/>
        <pt x="199" y="646" on="0"/>
        <pt x="198" y="612" on="1"/>
        <pt x="198" y="604" on="1"/>
        <pt x="195" y="550" on="0"/>
        <pt x="195" y="437" on="1"/>
        <pt x="195" y="388" on="0"/>
        <pt x="213" y="387" on="1"/>
        <pt x="238" y="386" on="1"/>
        <pt x="281" y="387" on="1"/>
        <pt x="312" y="387" on="1"/>
        <pt x="372" y="387" on="0"/>
        <pt x="411" y="394" on="0"/>
        <pt x="436" y="411" on="0"/>
        <pt x="446" y="427" on="0"/>
        <pt x="450" y="449" on="0"/>
        <pt x="456" y="459" on="0"/>
        <pt x="474" y="459" on="0"/>
        <pt x="478" y="453" on="0"/>
        <pt x="478" y="436" on="0"/>
        <pt x="469" y="380" on="0"/>
        <pt x="469" y="360" on="1"/>
        <pt x="476" y="278" on="1"/>
        <pt x="476" y="262" on="0"/>
        <pt x="469" y="253" on="0"/>
        <pt x="462" y="253" on="1"/>
        <pt x="445" y="253" on="0"/>
        <pt x="441" y="278" on="1"/>
        <pt x="441" y="300" on="0"/>
        <pt x="436" y="309" on="1"/>
        <pt x="426" y="323" on="0"/>
        <pt x="405" y="332" on="0"/>
        <pt x="333" y="340" on="0"/>
        <pt x="322" y="340" on="1"/>
        <pt x="235" y="340" on="1"/>
        <pt x="194" y="340" on="0"/>
        <pt x="194" y="321" on="1"/>
        <pt x="192" y="177" on="1"/>
        <pt x="191" y="137" on="1"/>
        <pt x="191" y="117" on="0"/>
        <pt x="199" y="77" on="0"/>
        <pt x="238" y="33" on="0"/>
        <pt x="301" y="33" on="0"/>
        <pt x="301" y="15" on="1"/>
        <pt x="301" y="6" on="0"/>
        <pt x="282" y="-4" on="0"/>
        <pt x="270" y="-4" on="1"/>
        <pt x="173" y="4" on="1"/>
        <pt x="52" y="-2" on="1"/>
        <pt x="32" y="-2" on="0"/>
        <pt x="32" y="9" on="1"/>
        <pt x="32" y="22" on="0"/>
        <pt x="41" y="28" on="0"/>
        <pt x="75" y="40" on="1"/>
        <pt x="101" y="49" on="0"/>
        <pt x="107" y="94" on="1"/>
        <pt x="114" y="145" on="0"/>
        <pt x="114" y="357" on="1"/>
        <pt x="117" y="531" on="1"/>
        <pt x="117" y="589" on="1"/>
        <pt x="117" y="655" on="0"/>
        <pt x="70" y="677" on="1"/>
        <pt x="56" y="683" on="0"/>
        <pt x="20" y="683" on="0"/>
      </contour>
    </TTGlyph>
    <TTGlyph name="G" xMin="44" yMin="-17" xMax="789" yMax="719">
      <contour>
        <pt x="678" y="365" on="1"/>
        <pt x="758" y="366" on="1"/>
        <pt x="773" y="366" on="1"/>
        <pt x="789" y="366" on="0"/>
        <pt x="789" y="357" on="1"/>
        <pt x="789" y="350" on="0"/>
        <pt x="738" y="328" on="0"/>
        <pt x="735" y="311" on="1"/>
        <pt x="728" y="268" on="0"/>
        <pt x="728" y="169" on="0"/>
        <pt x="730" y="123" on="0"/>
        <pt x="731" y="104" on="0"/>
        <pt x="733" y="90" on="0"/>
        <pt x="733" y="82" on="0"/>
        <pt x="718" y="77" on="0"/>
        <pt x="684" y="68" on="0"/>
        <pt x="656" y="51" on="0"/>
        <pt x="642" y="43" on="0"/>
        <pt x="619" y="31" on="0"/>
        <pt x="595" y="19" on="0"/>
        <pt x="565" y="6" on="0"/>
        <pt x="533" y="-4" on="0"/>
        <pt x="516" y="-8" on="1"/>
        <pt x="478" y="-17" on="0"/>
        <pt x="444" y="-17" on="1"/>
        <pt x="335" y="-17" on="0"/>
        <pt x="174" y="42" on="0"/>
        <pt x="130" y="92" on="1"/>
        <pt x="44" y="191" on="0"/>
        <pt x="44" y="329" on="1"/>
        <pt x="44" y="438" on="0"/>
        <pt x="131" y="612" on="0"/>
        <pt x="311" y="719" on="0"/>
        <pt x="435" y="719" on="1"/>
        <pt x="554" y="719" on="0"/>
        <pt x="641" y="674" on="1"/>
        <pt x="661" y="663" on="0"/>
        <pt x="682" y="648" on="0"/>
        <pt x="687" y="648" on="0"/>
        <pt x="708" y="663" on="0"/>
        <pt x="712" y="663" on="1"/>
        <pt x="727" y="663" on="0"/>
        <pt x="728" y="614" on="0"/>
        <pt x="735" y="550" on="0"/>
        <pt x="741" y="508" on="0"/>
        <pt x="741" y="504" on="1"/>
        <pt x="741" y="487" on="0"/>
        <pt x="717" y="487" on="0"/>
        <pt x="712" y="499" on="1"/>
        <pt x="677" y="575" on="0"/>
        <pt x="513" y="680" on="0"/>
        <pt x="426" y="680" on="1"/>
        <pt x="301" y="680" on="0"/>
        <pt x="138" y="523" on="0"/>
        <pt x="138" y="384" on="1"/>
        <pt x="138" y="292" on="0"/>
        <pt x="206" y="130" on="0"/>
        <pt x="345" y="24" on="0"/>
        <pt x="512" y="24" on="0"/>
        <pt x="637" y="94" on="0"/>
        <pt x="644" y="139" on="1"/>
        <pt x="647" y="163" on="0"/>
        <pt x="647" y="265" on="1"/>
        <pt x="647" y="304" on="0"/>
        <pt x="618" y="333" on="0"/>
        <pt x="556" y="340" on="0"/>
        <pt x="549" y="353" on="0"/>
        <pt x="549" y="359" on="1"/>
        <pt x="549" y="370" on="0"/>
        <pt x="567" y="370" on="1"/>
      </contour>
    </TTGlyph>
    <TTGlyph name="Gbreve" xMin="44" yMin="-17" xMax="789" yMax="894">
      <component glyphName="uni0306" x="641" y="264" flags="0x1004"/>
      <component glyphName="G" x="0" y="0" flags="0x1004"/>
    </TTGlyph>
    <TTGlyph name="Gcircumflex" xMin="44" yMin="-17" xMax="789" yMax="912">
      <component glyphName="uni0302" x="641" y="264" flags="0x1004"/>
      <component glyphName="G" x="0" y="0" flags="0x1004"/>
    </TTGlyph>
    <TTGlyph name="Gcommaaccent" xMin="44" yMin="-201" xMax="789" yMax="719">
      <component glyphName="uni0326" x="659" y="0" flags="0x1004"/>
      <component glyphName="G" x="0" y="0" flags="0x1004"/>
    </TTGlyph>
    <TTGlyph name="Gdotaccent" xMin="44" yMin="-17" xMax="789" yMax="909">
      <component glyphName="uni0307" x="641" y="264" flags="0x1004"/>
      <component glyphName="G" x="0" y="0" flags="0x1004"/>
    </TTGlyph>
    <TTGlyph name="H" xMin="20" yMin="-1" xMax="771" yMax="710">
      <contour>
        <pt x="121" y="402" on="1"/>
        <pt x="122" y="510" on="1"/>
        <pt x="122" y="586" on="0"/>
        <pt x="116" y="629" on="1"/>
        <pt x="113" y="654" on="0"/>
        <pt x="66" y="682" on="0"/>
        <pt x="31" y="682" on="0"/>
        <pt x="20" y="695" on="0"/>
        <pt x="20" y="699" on="1"/>
        <pt x="20" y="710" on="0"/>
        <pt x="48" y="710" on="1"/>
        <pt x="161" y="706" on="1"/>
        <pt x="249" y="708" on="1"/>
        <pt x="271" y="708" on="0"/>
        <pt x="271" y="694" on="1"/>
        <pt x="271" y="677" on="0"/>
        <pt x="236" y="677" on="1"/>
        <pt x="216" y="677" on="0"/>
        <pt x="198" y="595" on="0"/>
        <pt x="198" y="552" on="1"/>
        <pt x="198" y="515" on="1"/>
        <pt x="196" y="423" on="1"/>
        <pt x="196" y="398" on="0"/>
        <pt x="208" y="384" on="0"/>
        <pt x="230" y="384" on="1"/>
        <pt x="394" y="385" on="1"/>
        <pt x="394" y="385" on="0"/>
        <pt x="583" y="383" on="1"/>
        <pt x="594" y="383" on="0"/>
        <pt x="594" y="522" on="1"/>
        <pt x="594" y="576" on="1"/>
        <pt x="594" y="651" on="0"/>
        <pt x="564" y="668" on="1"/>
        <pt x="552" y="675" on="0"/>
        <pt x="527" y="679" on="0"/>
        <pt x="510" y="686" on="0"/>
        <pt x="510" y="706" on="0"/>
        <pt x="549" y="706" on="1"/>
        <pt x="646" y="704" on="1"/>
        <pt x="724" y="706" on="1"/>
        <pt x="747" y="706" on="0"/>
        <pt x="747" y="680" on="0"/>
        <pt x="733" y="680" on="1"/>
        <pt x="705" y="680" on="0"/>
        <pt x="676" y="646" on="0"/>
        <pt x="676" y="618" on="1"/>
        <pt x="671" y="225" on="1"/>
        <pt x="671" y="188" on="1"/>
        <pt x="675" y="96" on="1"/>
        <pt x="675" y="31" on="0"/>
        <pt x="759" y="22" on="1"/>
        <pt x="771" y="22" on="0"/>
        <pt x="771" y="11" on="1"/>
        <pt x="771" y="4" on="0"/>
        <pt x="751" y="0" on="0"/>
        <pt x="722" y="0" on="1"/>
        <pt x="645" y="5" on="1"/>
        <pt x="551" y="0" on="1"/>
        <pt x="534" y="0" on="1"/>
        <pt x="520" y="0" on="0"/>
        <pt x="515" y="8" on="0"/>
        <pt x="515" y="19" on="0"/>
        <pt x="535" y="29" on="0"/>
        <pt x="559" y="35" on="0"/>
        <pt x="570" y="44" on="1"/>
        <pt x="591" y="59" on="0"/>
        <pt x="591" y="138" on="1"/>
        <pt x="594" y="315" on="1"/>
        <pt x="594" y="330" on="0"/>
        <pt x="570" y="342" on="0"/>
        <pt x="516" y="342" on="0"/>
        <pt x="462" y="340" on="1"/>
        <pt x="408" y="339" on="1"/>
        <pt x="224" y="342" on="1"/>
        <pt x="209" y="342" on="0"/>
        <pt x="199" y="330" on="0"/>
        <pt x="199" y="305" on="1"/>
        <pt x="195" y="182" on="1"/>
        <pt x="195" y="139" on="1"/>
        <pt x="195" y="96" on="0"/>
        <pt x="211" y="54" on="0"/>
        <pt x="242" y="34" on="1"/>
        <pt x="250" y="29" on="0"/>
        <pt x="271" y="29" on="1"/>
        <pt x="304" y="29" on="0"/>
        <pt x="304" y="18" on="1"/>
        <pt x="304" y="0" on="0"/>
        <pt x="272" y="0" on="1"/>
        <pt x="189" y="4" on="1"/>
        <pt x="81" y="-1" on="1"/>
        <pt x="34" y="-1" on="0"/>
        <pt x="34" y="14" on="1"/>
        <pt x="34" y="28" on="0"/>
        <pt x="65" y="32" on="1"/>
        <pt x="77" y="33" on="0"/>
        <pt x="103" y="56" on="0"/>
        <pt x="111" y="95" on="0"/>
        <pt x="121" y="267" on="0"/>
        <pt x="121" y="345" on="1"/>
      </contour>
    </TTGlyph>
    <TTGlyph name="Hbar" xMin="20" yMin="-1" xMax="771" yMax="710">
      <contour>
        <pt x="121" y="402" on="1"/>
        <pt x="122" y="496" on="1"/>
        <pt x="122" y="504" on="0"/>
        <pt x="111" y="504" on="1"/>
        <pt x="52" y="504" on="1"/>
        <pt x="40" y="504" on="0"/>
        <pt x="40" y="547" on="0"/>
        <pt x="51" y="547" on="1"/>
        <pt x="111" y="547" on="1"/>
        <pt x="122" y="547" on="0"/>
        <pt x="122" y="560" on="1"/>
        <pt x="120" y="598" on="0"/>
        <pt x="113" y="654" on="0"/>
        <pt x="66" y="682" on="0"/>
        <pt x="31" y="682" on="0"/>
        <pt x="20" y="695" on="0"/>
        <pt x="20" y="699" on="1"/>
        <pt x="20" y="710" on="0"/>
        <pt x="48" y="710" on="1"/>
        <pt x="161" y="706" on="1"/>
        <pt x="249" y="708" on="1"/>
        <pt x="271" y="708" on="0"/>
        <pt x="271" y="694" on="1"/>
        <pt x="271" y="677" on="0"/>
        <pt x="236" y="677" on="1"/>
        <pt x="215" y="677" on="0"/>
        <pt x="198" y="598" on="0"/>
        <pt x="198" y="548" on="0"/>
        <pt x="200" y="547" on="0"/>
        <pt x="206" y="547" on="1"/>
        <pt x="396" y="548" on="1"/>
        <pt x="577" y="548" on="1"/>
        <pt x="589" y="548" on="0"/>
        <pt x="594" y="556" on="0"/>
        <pt x="594" y="615" on="0"/>
        <pt x="577" y="661" on="0"/>
        <pt x="552" y="675" on="0"/>
        <pt x="527" y="679" on="0"/>
        <pt x="510" y="686" on="0"/>
        <pt x="510" y="706" on="0"/>
        <pt x="549" y="706" on="1"/>
        <pt x="646" y="704" on="1"/>
        <pt x="724" y="706" on="1"/>
        <pt x="747" y="706" on="0"/>
        <pt x="747" y="680" on="0"/>
        <pt x="713" y="680" on="0"/>
        <pt x="688" y="664" on="0"/>
        <pt x="683" y="648" on="1"/>
        <pt x="675" y="622" on="0"/>
        <pt x="675" y="581" on="1"/>
        <pt x="675" y="561" on="1"/>
        <pt x="675" y="553" on="0"/>
        <pt x="681" y="548" on="0"/>
        <pt x="692" y="548" on="1"/>
        <pt x="735" y="548" on="1"/>
        <pt x="749" y="548" on="0"/>
        <pt x="756" y="538" on="0"/>
        <pt x="756" y="517" on="0"/>
        <pt x="755" y="513" on="1"/>
        <pt x="752" y="503" on="0"/>
        <pt x="733" y="503" on="1"/>
        <pt x="692" y="503" on="1"/>
        <pt x="680" y="503" on="0"/>
        <pt x="674" y="497" on="0"/>
        <pt x="674" y="485" on="1"/>
        <pt x="673" y="375" on="1"/>
        <pt x="673" y="375" on="0"/>
        <pt x="671" y="225" on="1"/>
        <pt x="671" y="188" on="1"/>
        <pt x="675" y="96" on="1"/>
        <pt x="675" y="31" on="0"/>
        <pt x="759" y="22" on="1"/>
        <pt x="771" y="22" on="0"/>
        <pt x="771" y="11" on="1"/>
        <pt x="771" y="4" on="0"/>
        <pt x="751" y="0" on="0"/>
        <pt x="722" y="0" on="1"/>
        <pt x="645" y="5" on="1"/>
        <pt x="551" y="0" on="1"/>
        <pt x="534" y="0" on="1"/>
        <pt x="520" y="0" on="0"/>
        <pt x="515" y="8" on="0"/>
        <pt x="515" y="19" on="0"/>
        <pt x="535" y="29" on="0"/>
        <pt x="559" y="35" on="0"/>
        <pt x="570" y="44" on="1"/>
        <pt x="591" y="59" on="0"/>
        <pt x="591" y="138" on="1"/>
        <pt x="594" y="315" on="1"/>
        <pt x="594" y="330" on="0"/>
        <pt x="581" y="342" on="0"/>
        <pt x="546" y="342" on="0"/>
        <pt x="477" y="341" on="1"/>
        <pt x="408" y="340" on="1"/>
        <pt x="224" y="342" on="1"/>
        <pt x="209" y="342" on="0"/>
        <pt x="199" y="330" on="0"/>
        <pt x="199" y="305" on="1"/>
        <pt x="195" y="182" on="1"/>
        <pt x="195" y="139" on="1"/>
        <pt x="195" y="96" on="0"/>
        <pt x="211" y="54" on="0"/>
        <pt x="242" y="34" on="1"/>
        <pt x="250" y="29" on="0"/>
        <pt x="271" y="29" on="1"/>
        <pt x="304" y="29" on="0"/>
        <pt x="304" y="18" on="1"/>
        <pt x="304" y="0" on="0"/>
        <pt x="272" y="0" on="1"/>
        <pt x="189" y="4" on="1"/>
        <pt x="81" y="-1" on="1"/>
        <pt x="34" y="-1" on="0"/>
        <pt x="34" y="14" on="1"/>
        <pt x="34" y="28" on="0"/>
        <pt x="65" y="32" on="1"/>
        <pt x="77" y="33" on="0"/>
        <pt x="103" y="56" on="0"/>
        <pt x="111" y="95" on="0"/>
        <pt x="121" y="267" on="0"/>
        <pt x="121" y="345" on="1"/>
      </contour>
      <contour>
        <pt x="198" y="496" on="1"/>
        <pt x="196" y="423" on="1"/>
        <pt x="196" y="398" on="0"/>
        <pt x="208" y="384" on="0"/>
        <pt x="230" y="384" on="1"/>
        <pt x="394" y="384" on="1"/>
        <pt x="448" y="384" on="0"/>
        <pt x="578" y="383" on="1"/>
        <pt x="591" y="383" on="0"/>
        <pt x="594" y="412" on="0"/>
        <pt x="594" y="423" on="1"/>
        <pt x="594" y="485" on="1"/>
        <pt x="594" y="497" on="0"/>
        <pt x="588" y="503" on="0"/>
        <pt x="577" y="503" on="1"/>
        <pt x="414" y="502" on="1"/>
        <pt x="232" y="503" on="1"/>
        <pt x="212" y="503" on="1"/>
        <pt x="200" y="503" on="0"/>
        <pt x="198" y="499" on="0"/>
      </contour>
    </TTGlyph>
    <TTGlyph name="Hcircumflex" xMin="20" yMin="-1" xMax="771" yMax="912">
      <component glyphName="uni0302" x="611" y="264" flags="0x1004"/>
      <component glyphName="H" x="0" y="0" flags="0x1004"/>
    </TTGlyph>
    <TTGlyph name="I" xMin="20" yMin="-1" xMax="309" yMax="710">
      <contour>
        <pt x="119" y="402" on="1"/>
        <pt x="120" y="510" on="1"/>
        <pt x="120" y="556" on="1"/>
        <pt x="120" y="600" on="0"/>
        <pt x="113" y="653" on="0"/>
        <pt x="66" y="679" on="0"/>
        <pt x="20" y="681" on="0"/>
        <pt x="20" y="710" on="0"/>
        <pt x="48" y="710" on="1"/>
        <pt x="161" y="706" on="1"/>
        <pt x="249" y="708" on="1"/>
        <pt x="276" y="708" on="0"/>
        <pt x="276" y="694" on="1"/>
        <pt x="276" y="686" on="0"/>
        <pt x="230" y="667" on="1"/>
        <pt x="198" y="654" on="0"/>
        <pt x="198" y="552" on="1"/>
        <pt x="195" y="182" on="1"/>
        <pt x="195" y="98" on="0"/>
        <pt x="242" y="30" on="0"/>
        <pt x="268" y="30" on="1"/>
        <pt x="288" y="29" on="1"/>
        <pt x="295" y="29" on="0"/>
        <pt x="309" y="22" on="0"/>
        <pt x="309" y="14" on="1"/>
        <pt x="309" y="0" on="0"/>
        <pt x="284" y="0" on="1"/>
        <pt x="189" y="4" on="1"/>
        <pt x="79" y="-1" on="1"/>
        <pt x="34" y="-1" on="0"/>
        <pt x="34" y="14" on="1"/>
        <pt x="34" y="28" on="0"/>
        <pt x="65" y="32" on="1"/>
        <pt x="77" y="33" on="0"/>
        <pt x="103" y="56" on="0"/>
        <pt x="110" y="85" on="0"/>
        <pt x="119" y="298" on="0"/>
        <pt x="119" y="345" on="1"/>
      </contour>
    </TTGlyph>
    <TTGlyph name="IJ" xMin="20" yMin="-192" xMax="599" yMax="713">
      <component glyphName="J" x="328" y="0" flags="0x1004"/>
      <component glyphName="I" x="0" y="0" flags="0x1004"/>
    </TTGlyph>
    <TTGlyph name="Iacute" xMin="20" yMin="-1" xMax="309" yMax="926">
      <component glyphName="acutecomb" x="369" y="264" flags="0x1004"/>
      <component glyphName="I" x="0" y="0" flags="0x1004"/>
    </TTGlyph>
    <TTGlyph name="Ibreve" xMin="20" yMin="-1" xMax="309" yMax="894">
      <component glyphName="uni0306" x="369" y="264" flags="0x1004"/>
      <component glyphName="I" x="0" y="0" flags="0x1004"/>
    </TTGlyph>
    <TTGlyph name="Icircumflex" xMin="20" yMin="-1" xMax="309" yMax="912">
      <component glyphName="uni0302" x="369" y="264" flags="0x1004"/>
      <component glyphName="I" x="0" y="0" flags="0x1004"/>
    </TTGlyph>
    <TTGlyph name="Idieresis" xMin="20" yMin="-1" xMax="309" yMax="906">
      <component glyphName="uni0308" x="369" y="264" flags="0x1004"/>
      <component glyphName="I" x="0" y="0" flags="0x1004"/>
    </TTGlyph>
    <TTGlyph name="Idotaccent" xMin="20" yMin="-1" xMax="309" yMax="909">
      <component glyphName="uni0307" x="369" y="264" flags="0x1004"/>
      <component glyphName="I" x="0" y="0" flags="0x1004"/>
    </TTGlyph>
    <TTGlyph name="Igrave" xMin="20" yMin="-1" xMax="309" yMax="926">
      <component glyphName="gravecomb" x="369" y="264" flags="0x1004"/>
      <component glyphName="I" x="0" y="0" flags="0x1004"/>
    </TTGlyph>
    <TTGlyph name="Imacron" xMin="20" yMin="-1" xMax="309" yMax="872">
      <component glyphName="uni0304" x="369" y="264" flags="0x1004"/>
      <component glyphName="I" x="0" y="0" flags="0x1004"/>
    </TTGlyph>
    <TTGlyph name="Iogonek" xMin="20" yMin="-204" xMax="309" yMax="710">
      <contour>
        <pt x="119" y="402" on="1"/>
        <pt x="120" y="510" on="1"/>
        <pt x="120" y="556" on="1"/>
        <pt x="120" y="600" on="0"/>
        <pt x="113" y="653" on="0"/>
        <pt x="66" y="679" on="0"/>
        <pt x="20" y="681" on="0"/>
        <pt x="20" y="710" on="0"/>
        <pt x="48" y="710" on="1"/>
        <pt x="161" y="706" on="1"/>
        <pt x="249" y="708" on="1"/>
        <pt x="276" y="708" on="0"/>
        <pt x="276" y="694" on="1"/>
        <pt x="276" y="686" on="0"/>
        <pt x="230" y="667" on="1"/>
        <pt x="198" y="654" on="0"/>
        <pt x="198" y="552" on="1"/>
        <pt x="195" y="182" on="1"/>
        <pt x="195" y="98" on="0"/>
        <pt x="242" y="30" on="0"/>
        <pt x="268" y="30" on="1"/>
        <pt x="288" y="29" on="1"/>
        <pt x="295" y="29" on="0"/>
        <pt x="309" y="22" on="0"/>
        <pt x="309" y="14" on="1"/>
        <pt x="309" y="0" on="0"/>
        <pt x="266" y="0" on="0"/>
        <pt x="236" y="1" on="0"/>
        <pt x="221" y="3" on="0"/>
        <pt x="219" y="3" on="1"/>
        <pt x="190" y="3" on="0"/>
        <pt x="159" y="-63" on="0"/>
        <pt x="159" y="-122" on="0"/>
        <pt x="189" y="-166" on="0"/>
        <pt x="224" y="-166" on="0"/>
        <pt x="247" y="-155" on="0"/>
        <pt x="249" y="-155" on="1"/>
        <pt x="255" y="-155" on="0"/>
        <pt x="255" y="-174" on="0"/>
        <pt x="209" y="-204" on="0"/>
        <pt x="140" y="-204" on="0"/>
        <pt x="94" y="-150" on="0"/>
        <pt x="94" y="-88" on="0"/>
        <pt x="112" y="-44" on="0"/>
        <pt x="122" y="-34" on="1"/>
        <pt x="142" y="-14" on="1"/>
        <pt x="151" y="-5" on="0"/>
        <pt x="151" y="2" on="0"/>
        <pt x="142" y="2" on="1"/>
        <pt x="119" y="0" on="1"/>
        <pt x="96" y="-1" on="0"/>
        <pt x="79" y="-1" on="1"/>
        <pt x="34" y="-1" on="0"/>
        <pt x="34" y="14" on="1"/>
        <pt x="34" y="28" on="0"/>
        <pt x="65" y="32" on="1"/>
        <pt x="77" y="33" on="0"/>
        <pt x="103" y="56" on="0"/>
        <pt x="110" y="85" on="0"/>
        <pt x="119" y="298" on="0"/>
        <pt x="119" y="345" on="1"/>
      </contour>
    </TTGlyph>
    <TTGlyph name="Itilde" xMin="2" yMin="-1" xMax="309" yMax="908">
      <component glyphName="tildecomb" x="369" y="264" flags="0x1004"/>
      <component glyphName="I" x="0" y="0" flags="0x1004"/>
    </TTGlyph>
    <TTGlyph name="J" xMin="-45" yMin="-192" xMax="271" yMax="713">
      <contour>
        <pt x="203" y="146" on="1"/>
        <pt x="202" y="69" on="1"/>
        <pt x="202" y="-45" on="0"/>
        <pt x="79" y="-192" on="0"/>
        <pt x="-5" y="-192" on="1"/>
        <pt x="-45" y="-192" on="0"/>
        <pt x="-45" y="-154" on="1"/>
        <pt x="-45" y="-139" on="0"/>
        <pt x="-22" y="-99" on="0"/>
        <pt x="-8" y="-99" on="0"/>
        <pt x="23" y="-133" on="0"/>
        <pt x="44" y="-133" on="1"/>
        <pt x="99" y="-133" on="0"/>
        <pt x="113" y="-55" on="1"/>
        <pt x="126" y="13" on="0"/>
        <pt x="126" y="45" on="1"/>
        <pt x="126" y="163" on="1"/>
        <pt x="125" y="189" on="1"/>
        <pt x="125" y="209" on="0"/>
        <pt x="124" y="239" on="0"/>
        <pt x="124" y="256" on="1"/>
        <pt x="122" y="307" on="0"/>
        <pt x="122" y="594" on="0"/>
        <pt x="115" y="653" on="0"/>
        <pt x="68" y="677" on="0"/>
        <pt x="20" y="679" on="0"/>
        <pt x="20" y="713" on="0"/>
        <pt x="49" y="713" on="1"/>
        <pt x="59" y="713" on="0"/>
        <pt x="130" y="707" on="0"/>
        <pt x="162" y="707" on="1"/>
        <pt x="162" y="707" on="0"/>
        <pt x="243" y="708" on="1"/>
        <pt x="271" y="708" on="0"/>
        <pt x="271" y="695" on="1"/>
        <pt x="271" y="686" on="0"/>
        <pt x="225" y="667" on="1"/>
        <pt x="204" y="659" on="0"/>
        <pt x="204" y="599" on="1"/>
        <pt x="204" y="553" on="1"/>
      </contour>
    </TTGlyph>
    <TTGlyph name="Jcircumflex" xMin="-45" yMin="-192" xMax="271" yMax="912">
      <component glyphName="uni0302" x="366" y="264" flags="0x1004"/>
      <component glyphName="J" x="0" y="0" flags="0x1004"/>
    </TTGlyph>
    <TTGlyph name="K" xMin="20" yMin="-1" xMax="705" yMax="708">
      <contour>
        <pt x="119" y="402" on="1"/>
        <pt x="117" y="510" on="1"/>
        <pt x="117" y="556" on="1"/>
        <pt x="117" y="607" on="0"/>
        <pt x="111" y="653" on="0"/>
        <pt x="66" y="679" on="0"/>
        <pt x="20" y="681" on="0"/>
        <pt x="20" y="708" on="0"/>
        <pt x="48" y="708" on="1"/>
        <pt x="161" y="706" on="1"/>
        <pt x="247" y="708" on="1"/>
        <pt x="264" y="708" on="0"/>
        <pt x="264" y="695" on="1"/>
        <pt x="264" y="689" on="0"/>
        <pt x="235" y="677" on="0"/>
        <pt x="229" y="674" on="1"/>
        <pt x="198" y="656" on="0"/>
        <pt x="198" y="552" on="1"/>
        <pt x="195" y="396" on="1"/>
        <pt x="195" y="375" on="0"/>
        <pt x="211" y="375" on="0"/>
        <pt x="357" y="494" on="0"/>
        <pt x="501" y="633" on="0"/>
        <pt x="501" y="655" on="1"/>
        <pt x="501" y="667" on="0"/>
        <pt x="481" y="676" on="0"/>
        <pt x="471" y="679" on="0"/>
        <pt x="453" y="682" on="0"/>
        <pt x="451" y="683" on="1"/>
        <pt x="440" y="685" on="0"/>
        <pt x="440" y="708" on="0"/>
        <pt x="456" y="708" on="1"/>
        <pt x="481" y="707" on="1"/>
        <pt x="541" y="705" on="1"/>
        <pt x="665" y="708" on="1"/>
        <pt x="685" y="708" on="0"/>
        <pt x="685" y="695" on="1"/>
        <pt x="685" y="688" on="0"/>
        <pt x="673" y="681" on="0"/>
        <pt x="639" y="671" on="0"/>
        <pt x="622" y="664" on="0"/>
        <pt x="578" y="636" on="1"/>
        <pt x="569" y="630" on="0"/>
        <pt x="390" y="479" on="0"/>
        <pt x="291" y="396" on="1"/>
        <pt x="280" y="382" on="1"/>
        <pt x="280" y="377" on="0"/>
        <pt x="338" y="319" on="0"/>
        <pt x="552" y="107" on="0"/>
        <pt x="634" y="38" on="0"/>
        <pt x="700" y="28" on="0"/>
        <pt x="704" y="20" on="1"/>
        <pt x="705" y="18" on="0"/>
        <pt x="705" y="5" on="0"/>
        <pt x="688" y="1" on="0"/>
        <pt x="647" y="1" on="1"/>
        <pt x="550" y="1" on="1"/>
        <pt x="534" y="1" on="0"/>
        <pt x="518" y="20" on="0"/>
        <pt x="510" y="28" on="1"/>
        <pt x="473" y="71" on="0"/>
        <pt x="453" y="91" on="1"/>
        <pt x="241" y="306" on="0"/>
        <pt x="230" y="315" on="1"/>
        <pt x="219" y="324" on="0"/>
        <pt x="211" y="324" on="1"/>
        <pt x="197" y="324" on="0"/>
        <pt x="197" y="297" on="1"/>
        <pt x="197" y="294" on="1"/>
        <pt x="198" y="271" on="1"/>
        <pt x="198" y="220" on="1"/>
        <pt x="198" y="89" on="0"/>
        <pt x="232" y="30" on="0"/>
        <pt x="280" y="30" on="1"/>
        <pt x="288" y="29" on="1"/>
        <pt x="295" y="29" on="0"/>
        <pt x="309" y="22" on="0"/>
        <pt x="309" y="14" on="1"/>
        <pt x="309" y="0" on="0"/>
        <pt x="284" y="0" on="1"/>
        <pt x="189" y="4" on="1"/>
        <pt x="79" y="-1" on="1"/>
        <pt x="43" y="-1" on="0"/>
        <pt x="43" y="10" on="1"/>
        <pt x="43" y="14" on="1"/>
        <pt x="43" y="21" on="0"/>
        <pt x="52" y="24" on="1"/>
        <pt x="89" y="33" on="0"/>
        <pt x="112" y="56" on="0"/>
        <pt x="119" y="157" on="0"/>
        <pt x="119" y="268" on="1"/>
      </contour>
    </TTGlyph>
    <TTGlyph name="Kcommaaccent" xMin="20" yMin="-201" xMax="705" yMax="708">
      <component glyphName="uni0326" x="588" y="0" flags="0x1004"/>
      <component glyphName="K" x="0" y="0" flags="0x1004"/>
    </TTGlyph>
    <TTGlyph name="L" xMin="20" yMin="-5" xMax="583" yMax="713">
      <contour>
        <pt x="115" y="355" on="1"/>
        <pt x="118" y="528" on="1"/>
        <pt x="118" y="555" on="0"/>
        <pt x="116" y="619" on="1"/>
        <pt x="115" y="648" on="0"/>
        <pt x="67" y="680" on="0"/>
        <pt x="25" y="681" on="0"/>
        <pt x="20" y="688" on="0"/>
        <pt x="20" y="695" on="1"/>
        <pt x="20" y="713" on="0"/>
        <pt x="47" y="713" on="1"/>
        <pt x="74" y="711" on="1"/>
        <pt x="161" y="707" on="1"/>
        <pt x="266" y="711" on="1"/>
        <pt x="283" y="711" on="0"/>
        <pt x="283" y="701" on="1"/>
        <pt x="283" y="687" on="0"/>
        <pt x="259" y="678" on="0"/>
        <pt x="230" y="675" on="0"/>
        <pt x="203" y="634" on="0"/>
        <pt x="199" y="554" on="0"/>
        <pt x="193" y="196" on="0"/>
        <pt x="193" y="175" on="1"/>
        <pt x="193" y="135" on="1"/>
        <pt x="193" y="63" on="0"/>
        <pt x="242" y="48" on="0"/>
        <pt x="260" y="48" on="1"/>
        <pt x="410" y="48" on="0"/>
        <pt x="476" y="72" on="1"/>
        <pt x="536" y="94" on="0"/>
        <pt x="548" y="118" on="1"/>
        <pt x="561" y="143" on="0"/>
        <pt x="571" y="143" on="1"/>
        <pt x="583" y="143" on="0"/>
        <pt x="583" y="126" on="1"/>
        <pt x="583" y="83" on="0"/>
        <pt x="497" y="-5" on="0"/>
        <pt x="465" y="-5" on="1"/>
        <pt x="393" y="-5" on="0"/>
        <pt x="212" y="5" on="0"/>
        <pt x="190" y="5" on="1"/>
        <pt x="65" y="-3" on="1"/>
        <pt x="36" y="-3" on="0"/>
        <pt x="36" y="9" on="1"/>
        <pt x="36" y="16" on="0"/>
        <pt x="47" y="25" on="0"/>
        <pt x="67" y="25" on="0"/>
        <pt x="99" y="49" on="0"/>
        <pt x="115" y="124" on="0"/>
        <pt x="115" y="231" on="1"/>
      </contour>
    </TTGlyph>
    <TTGlyph name="Lacute" xMin="20" yMin="-5" xMax="583" yMax="926">
      <component glyphName="acutecomb" x="381" y="264" flags="0x1004"/>
      <component glyphName="L" x="0" y="0" flags="0x1004"/>
    </TTGlyph>
    <TTGlyph name="Lcaron" xMin="20" yMin="-5" xMax="583" yMax="753">
      <component glyphName="uni0315" x="624" y="10" flags="0x1004"/>
      <component glyphName="L" x="0" y="0" flags="0x1004"/>
    </TTGlyph>
    <TTGlyph name="Lcommaaccent" xMin="20" yMin="-201" xMax="583" yMax="713">
      <component glyphName="uni0326" x="521" y="0" flags="0x1004"/>
      <component glyphName="L" x="0" y="0" flags="0x1004"/>
    </TTGlyph>
    <TTGlyph name="Ldot" xMin="20" yMin="-5" xMax="583" yMax="713">
      <component glyphName="periodcentered" x="314" y="0" flags="0x1004"/>
      <component glyphName="L" x="0" y="0" flags="0x1004"/>
    </TTGlyph>
    <TTGlyph name="Lslash" xMin="20" yMin="-5" xMax="583" yMax="713">
      <contour>
        <pt x="115" y="355" on="1"/>
        <pt x="118" y="528" on="1"/>
        <pt x="118" y="555" on="0"/>
        <pt x="116" y="619" on="1"/>
        <pt x="115" y="648" on="0"/>
        <pt x="67" y="680" on="0"/>
        <pt x="25" y="681" on="0"/>
        <pt x="20" y="688" on="0"/>
        <pt x="20" y="695" on="1"/>
        <pt x="20" y="713" on="0"/>
        <pt x="47" y="713" on="1"/>
        <pt x="74" y="711" on="1"/>
        <pt x="161" y="707" on="1"/>
        <pt x="266" y="711" on="1"/>
        <pt x="283" y="711" on="0"/>
        <pt x="283" y="701" on="1"/>
        <pt x="283" y="687" on="0"/>
        <pt x="259" y="678" on="0"/>
        <pt x="230" y="675" on="0"/>
        <pt x="203" y="634" on="0"/>
        <pt x="197" y="511" on="0"/>
        <pt x="197" y="389" on="1"/>
        <pt x="197" y="381" on="0"/>
        <pt x="202" y="381" on="0"/>
        <pt x="207" y="383" on="0"/>
        <pt x="214" y="386" on="0"/>
        <pt x="218" y="387" on="1"/>
        <pt x="436" y="474" on="1"/>
        <pt x="451" y="480" on="0"/>
        <pt x="464" y="480" on="0"/>
        <pt x="468" y="474" on="1"/>
        <pt x="476" y="463" on="0"/>
        <pt x="476" y="454" on="1"/>
        <pt x="476" y="442" on="0"/>
        <pt x="450" y="432" on="1"/>
        <pt x="210" y="336" on="1"/>
        <pt x="195" y="331" on="0"/>
        <pt x="195" y="312" on="1"/>
        <pt x="193" y="180" on="0"/>
        <pt x="193" y="175" on="1"/>
        <pt x="193" y="135" on="1"/>
        <pt x="193" y="63" on="0"/>
        <pt x="242" y="48" on="0"/>
        <pt x="260" y="48" on="1"/>
        <pt x="410" y="48" on="0"/>
        <pt x="476" y="72" on="1"/>
        <pt x="536" y="94" on="0"/>
        <pt x="548" y="118" on="1"/>
        <pt x="561" y="143" on="0"/>
        <pt x="571" y="143" on="1"/>
        <pt x="583" y="143" on="0"/>
        <pt x="583" y="126" on="1"/>
        <pt x="583" y="83" on="0"/>
        <pt x="497" y="-5" on="0"/>
        <pt x="465" y="-5" on="1"/>
        <pt x="393" y="-5" on="0"/>
        <pt x="212" y="5" on="0"/>
        <pt x="190" y="5" on="1"/>
        <pt x="65" y="-3" on="1"/>
        <pt x="36" y="-3" on="0"/>
        <pt x="36" y="9" on="1"/>
        <pt x="36" y="16" on="0"/>
        <pt x="47" y="25" on="0"/>
        <pt x="67" y="25" on="0"/>
        <pt x="99" y="49" on="0"/>
        <pt x="115" y="124" on="0"/>
        <pt x="115" y="231" on="1"/>
        <pt x="115" y="285" on="1"/>
        <pt x="115" y="296" on="0"/>
        <pt x="112" y="296" on="1"/>
        <pt x="110" y="296" on="1"/>
        <pt x="108" y="295" on="0"/>
        <pt x="107" y="295" on="1"/>
        <pt x="61" y="277" on="1"/>
        <pt x="57" y="275" on="0"/>
        <pt x="44" y="275" on="0"/>
        <pt x="33" y="296" on="0"/>
        <pt x="33" y="312" on="0"/>
        <pt x="44" y="316" on="1"/>
        <pt x="104" y="341" on="1"/>
        <pt x="115" y="344" on="0"/>
      </contour>
    </TTGlyph>
    <TTGlyph name="M" xMin="20" yMin="-4" xMax="899" yMax="710">
      <contour>
        <pt x="63" y="-2" on="1"/>
        <pt x="42" y="-2" on="0"/>
        <pt x="42" y="14" on="1"/>
        <pt x="42" y="27" on="0"/>
        <pt x="72" y="28" on="1"/>
        <pt x="83" y="29" on="0"/>
        <pt x="111" y="60" on="0"/>
        <pt x="123" y="112" on="0"/>
        <pt x="137" y="416" on="0"/>
        <pt x="137" y="589" on="0"/>
        <pt x="98" y="665" on="0"/>
        <pt x="33" y="680" on="1"/>
        <pt x="20" y="683" on="0"/>
        <pt x="20" y="695" on="1"/>
        <pt x="20" y="710" on="0"/>
        <pt x="38" y="710" on="1"/>
        <pt x="91" y="706" on="1"/>
        <pt x="166" y="708" on="1"/>
        <pt x="185" y="708" on="0"/>
        <pt x="190" y="694" on="1"/>
        <pt x="202" y="668" on="0"/>
        <pt x="264" y="533" on="0"/>
        <pt x="301" y="453" on="0"/>
        <pt x="359" y="329" on="0"/>
        <pt x="395" y="252" on="0"/>
        <pt x="434" y="174" on="0"/>
        <pt x="455" y="137" on="0"/>
        <pt x="461" y="137" on="0"/>
        <pt x="468" y="144" on="0"/>
        <pt x="475" y="156" on="0"/>
        <pt x="480" y="168" on="0"/>
        <pt x="489" y="187" on="0"/>
        <pt x="491" y="192" on="1"/>
        <pt x="620" y="458" on="1"/>
        <pt x="673" y="566" on="0"/>
        <pt x="691" y="609" on="1"/>
        <pt x="714" y="659" on="1"/>
        <pt x="717" y="667" on="0"/>
        <pt x="720" y="676" on="0"/>
        <pt x="722" y="681" on="0"/>
        <pt x="724" y="685" on="0"/>
        <pt x="729" y="699" on="0"/>
        <pt x="732" y="702" on="1"/>
        <pt x="740" y="710" on="0"/>
        <pt x="761" y="710" on="1"/>
        <pt x="847" y="708" on="1"/>
        <pt x="864" y="708" on="0"/>
        <pt x="864" y="695" on="1"/>
        <pt x="864" y="685" on="0"/>
        <pt x="851" y="676" on="0"/>
        <pt x="806" y="670" on="0"/>
        <pt x="786" y="626" on="0"/>
        <pt x="786" y="429" on="0"/>
        <pt x="798" y="210" on="0"/>
        <pt x="798" y="182" on="1"/>
        <pt x="798" y="82" on="0"/>
        <pt x="830" y="27" on="0"/>
        <pt x="881" y="27" on="1"/>
        <pt x="888" y="27" on="0"/>
        <pt x="899" y="17" on="0"/>
        <pt x="899" y="13" on="1"/>
        <pt x="899" y="-3" on="0"/>
        <pt x="888" y="-3" on="1"/>
        <pt x="877" y="-3" on="1"/>
        <pt x="775" y="1" on="1"/>
        <pt x="775" y="1" on="0"/>
        <pt x="671" y="-4" on="1"/>
        <pt x="653" y="-4" on="0"/>
        <pt x="653" y="10" on="1"/>
        <pt x="653" y="25" on="0"/>
        <pt x="680" y="28" on="1"/>
        <pt x="690" y="29" on="0"/>
        <pt x="713" y="52" on="0"/>
        <pt x="722" y="95" on="0"/>
        <pt x="722" y="171" on="0"/>
        <pt x="719" y="261" on="0"/>
        <pt x="715" y="346" on="0"/>
        <pt x="711" y="421" on="0"/>
        <pt x="710" y="445" on="1"/>
        <pt x="708" y="469" on="1"/>
        <pt x="708" y="512" on="0"/>
        <pt x="699" y="512" on="1"/>
        <pt x="696" y="512" on="0"/>
        <pt x="691" y="506" on="0"/>
        <pt x="687" y="502" on="0"/>
        <pt x="683" y="493" on="0"/>
        <pt x="679" y="487" on="0"/>
        <pt x="673" y="476" on="0"/>
        <pt x="671" y="472" on="1"/>
        <pt x="666" y="461" on="1"/>
        <pt x="662" y="454" on="0"/>
        <pt x="660" y="449" on="1"/>
        <pt x="521" y="168" on="1"/>
        <pt x="497" y="119" on="0"/>
        <pt x="452" y="25" on="0"/>
        <pt x="444" y="12" on="0"/>
        <pt x="429" y="12" on="0"/>
        <pt x="417" y="29" on="0"/>
        <pt x="393" y="87" on="0"/>
        <pt x="384" y="106" on="1"/>
        <pt x="201" y="478" on="0"/>
        <pt x="193" y="489" on="0"/>
        <pt x="190" y="489" on="1"/>
        <pt x="182" y="489" on="0"/>
        <pt x="182" y="449" on="1"/>
        <pt x="173" y="185" on="1"/>
        <pt x="173" y="140" on="1"/>
        <pt x="173" y="58" on="0"/>
        <pt x="206" y="39" on="1"/>
        <pt x="223" y="29" on="0"/>
        <pt x="239" y="28" on="1"/>
        <pt x="264" y="25" on="0"/>
        <pt x="264" y="4" on="0"/>
        <pt x="258" y="-3" on="0"/>
        <pt x="249" y="-3" on="1"/>
        <pt x="145" y="1" on="1"/>
      </contour>
    </TTGlyph>
    <TTGlyph name="N" xMin="20" yMin="-17" xMax="764" yMax="709">
      <contour>
        <pt x="144" y="-2" on="1"/>
        <pt x="59" y="-4" on="1"/>
        <pt x="37" y="-4" on="0"/>
        <pt x="37" y="12" on="1"/>
        <pt x="37" y="21" on="0"/>
        <pt x="63" y="26" on="0"/>
        <pt x="101" y="52" on="0"/>
        <pt x="117" y="111" on="0"/>
        <pt x="135" y="437" on="0"/>
        <pt x="135" y="585" on="0"/>
        <pt x="87" y="670" on="0"/>
        <pt x="33" y="676" on="1"/>
        <pt x="20" y="677" on="0"/>
        <pt x="20" y="691" on="1"/>
        <pt x="20" y="697" on="0"/>
        <pt x="34" y="708" on="0"/>
        <pt x="45" y="708" on="1"/>
        <pt x="83" y="707" on="1"/>
        <pt x="132" y="709" on="1"/>
        <pt x="141" y="709" on="0"/>
        <pt x="165" y="698" on="0"/>
        <pt x="169" y="689" on="0"/>
        <pt x="187" y="668" on="0"/>
        <pt x="217" y="634" on="0"/>
        <pt x="229" y="618" on="1"/>
        <pt x="365" y="441" on="0"/>
        <pt x="593" y="191" on="1"/>
        <pt x="599" y="184" on="0"/>
        <pt x="616" y="166" on="0"/>
        <pt x="623" y="157" on="0"/>
        <pt x="627" y="153" on="1"/>
        <pt x="634" y="146" on="0"/>
        <pt x="638" y="146" on="1"/>
        <pt x="648" y="146" on="0"/>
        <pt x="648" y="208" on="1"/>
        <pt x="648" y="325" on="1"/>
        <pt x="646" y="530" on="1"/>
        <pt x="646" y="537" on="1"/>
        <pt x="646" y="629" on="0"/>
        <pt x="614" y="654" on="1"/>
        <pt x="602" y="663" on="0"/>
        <pt x="586" y="668" on="0"/>
        <pt x="571" y="671" on="1"/>
        <pt x="530" y="679" on="0"/>
        <pt x="530" y="708" on="0"/>
        <pt x="549" y="708" on="1"/>
        <pt x="644" y="707" on="1"/>
        <pt x="644" y="707" on="0"/>
        <pt x="734" y="709" on="1"/>
        <pt x="751" y="709" on="0"/>
        <pt x="764" y="702" on="0"/>
        <pt x="764" y="688" on="0"/>
        <pt x="758" y="684" on="1"/>
        <pt x="750" y="679" on="0"/>
        <pt x="729" y="672" on="1"/>
        <pt x="696" y="654" on="0"/>
        <pt x="696" y="559" on="1"/>
        <pt x="696" y="521" on="1"/>
        <pt x="685" y="26" on="1"/>
        <pt x="685" y="6" on="1"/>
        <pt x="685" y="-17" on="0"/>
        <pt x="671" y="-17" on="1"/>
        <pt x="662" y="-17" on="0"/>
        <pt x="655" y="-10" on="1"/>
        <pt x="323" y="375" on="0"/>
        <pt x="194" y="520" on="0"/>
        <pt x="187" y="520" on="1"/>
        <pt x="177" y="520" on="0"/>
        <pt x="177" y="357" on="0"/>
        <pt x="169" y="138" on="0"/>
        <pt x="169" y="128" on="1"/>
        <pt x="169" y="83" on="0"/>
        <pt x="200" y="36" on="0"/>
        <pt x="236" y="30" on="0"/>
        <pt x="267" y="23" on="0"/>
        <pt x="267" y="2" on="0"/>
        <pt x="260" y="-4" on="0"/>
        <pt x="251" y="-4" on="1"/>
      </contour>
    </TTGlyph>
    <TTGlyph name="Nacute" xMin="20" yMin="-17" xMax="764" yMax="926">
      <component glyphName="acutecomb" x="617" y="264" flags="0x1004"/>
      <component glyphName="N" x="0" y="0" flags="0x1004"/>
    </TTGlyph>
    <TTGlyph name="Ncaron" xMin="20" yMin="-17" xMax="764" yMax="912">
      <component glyphName="uni030C" x="617" y="264" flags="0x1004"/>
      <component glyphName="N" x="0" y="0" flags="0x1004"/>
    </TTGlyph>
    <TTGlyph name="Ncommaaccent" xMin="20" yMin="-201" xMax="764" yMax="709">
      <component glyphName="uni0326" x="631" y="0" flags="0x1004"/>
      <component glyphName="N" x="0" y="0" flags="0x1004"/>
    </TTGlyph>
    <TTGlyph name="Ntilde" xMin="20" yMin="-17" xMax="764" yMax="908">
      <component glyphName="tildecomb" x="617" y="264" flags="0x1004"/>
      <component glyphName="N" x="0" y="0" flags="0x1004"/>
    </TTGlyph>
    <TTGlyph name="O" xMin="44" yMin="-16" xMax="809" yMax="722">
      <contour>
        <pt x="44" y="339" on="1"/>
        <pt x="44" y="507" on="0"/>
        <pt x="246" y="722" on="0"/>
        <pt x="431" y="722" on="1"/>
        <pt x="517" y="722" on="0"/>
        <pt x="655" y="672" on="0"/>
        <pt x="735" y="599" on="0"/>
        <pt x="762" y="552" on="1"/>
        <pt x="809" y="470" on="0"/>
        <pt x="809" y="392" on="1"/>
        <pt x="809" y="256" on="0"/>
        <pt x="756" y="162" on="1"/>
        <pt x="655" y="-16" on="0"/>
        <pt x="417" y="-16" on="1"/>
        <pt x="298" y="-16" on="0"/>
        <pt x="125" y="88" on="0"/>
        <pt x="44" y="246" on="0"/>
      </contour>
      <contour>
        <pt x="132" y="390" on="1"/>
        <pt x="132" y="301" on="0"/>
        <pt x="179" y="208" on="1"/>
        <pt x="204" y="158" on="0"/>
        <pt x="275" y="79" on="0"/>
        <pt x="384" y="28" on="0"/>
        <pt x="449" y="28" on="1"/>
        <pt x="523" y="28" on="0"/>
        <pt x="595" y="71" on="1"/>
        <pt x="675" y="118" on="0"/>
        <pt x="708" y="202" on="1"/>
        <pt x="727" y="247" on="0"/>
        <pt x="727" y="300" on="1"/>
        <pt x="727" y="481" on="0"/>
        <pt x="537" y="682" on="0"/>
        <pt x="397" y="682" on="1"/>
        <pt x="287" y="682" on="0"/>
        <pt x="132" y="534" on="0"/>
      </contour>
    </TTGlyph>
    <TTGlyph name="OE" xMin="44" yMin="-16" xMax="1023" yMax="722">
      <contour>
        <pt x="633" y="175" on="1"/>
        <pt x="632" y="135" on="1"/>
        <pt x="632" y="63" on="0"/>
        <pt x="681" y="48" on="0"/>
        <pt x="699" y="48" on="1"/>
        <pt x="788" y="48" on="0"/>
        <pt x="912" y="68" on="0"/>
        <pt x="966" y="96" on="0"/>
        <pt x="993" y="123" on="0"/>
        <pt x="1004" y="143" on="0"/>
        <pt x="1011" y="143" on="1"/>
        <pt x="1023" y="143" on="0"/>
        <pt x="1023" y="126" on="1"/>
        <pt x="1023" y="83" on="0"/>
        <pt x="936" y="-5" on="0"/>
        <pt x="904" y="-5" on="1"/>
        <pt x="832" y="-5" on="0"/>
        <pt x="652" y="5" on="0"/>
        <pt x="583" y="5" on="0"/>
        <pt x="462" y="-16" on="0"/>
        <pt x="417" y="-16" on="1"/>
        <pt x="298" y="-16" on="0"/>
        <pt x="125" y="88" on="0"/>
        <pt x="44" y="246" on="0"/>
        <pt x="44" y="339" on="1"/>
        <pt x="44" y="507" on="0"/>
        <pt x="246" y="722" on="0"/>
        <pt x="431" y="722" on="1"/>
        <pt x="454" y="722" on="0"/>
        <pt x="607" y="706" on="0"/>
        <pt x="757" y="706" on="1"/>
        <pt x="958" y="710" on="1"/>
        <pt x="976" y="710" on="0"/>
        <pt x="976" y="687" on="1"/>
        <pt x="976" y="681" on="0"/>
        <pt x="964" y="614" on="0"/>
        <pt x="964" y="595" on="1"/>
        <pt x="964" y="563" on="0"/>
        <pt x="934" y="563" on="0"/>
        <pt x="934" y="611" on="0"/>
        <pt x="899" y="655" on="0"/>
        <pt x="874" y="656" on="1"/>
        <pt x="784" y="663" on="0"/>
        <pt x="736" y="663" on="1"/>
        <pt x="711" y="663" on="1"/>
        <pt x="659" y="663" on="0"/>
        <pt x="641" y="647" on="0"/>
        <pt x="636" y="548" on="0"/>
        <pt x="636" y="435" on="1"/>
        <pt x="636" y="385" on="0"/>
        <pt x="654" y="384" on="1"/>
        <pt x="752" y="384" on="1"/>
        <pt x="812" y="384" on="0"/>
        <pt x="852" y="392" on="0"/>
        <pt x="879" y="410" on="0"/>
        <pt x="890" y="431" on="0"/>
        <pt x="891" y="438" on="1"/>
        <pt x="893" y="457" on="0"/>
        <pt x="906" y="457" on="1"/>
        <pt x="915" y="457" on="0"/>
        <pt x="919" y="451" on="0"/>
        <pt x="919" y="434" on="0"/>
        <pt x="910" y="356" on="0"/>
        <pt x="910" y="336" on="1"/>
        <pt x="914" y="275" on="1"/>
        <pt x="914" y="250" on="0"/>
        <pt x="907" y="250" on="1"/>
        <pt x="893" y="250" on="0"/>
        <pt x="873" y="315" on="0"/>
        <pt x="860" y="323" on="1"/>
        <pt x="839" y="337" on="0"/>
        <pt x="786" y="337" on="1"/>
        <pt x="714" y="337" on="1"/>
        <pt x="682" y="338" on="1"/>
        <pt x="676" y="338" on="1"/>
        <pt x="635" y="338" on="0"/>
        <pt x="635" y="319" on="1"/>
      </contour>
      <contour>
        <pt x="555" y="355" on="1"/>
        <pt x="558" y="528" on="1"/>
        <pt x="558" y="599" on="1"/>
        <pt x="558" y="620" on="0"/>
        <pt x="545" y="648" on="0"/>
        <pt x="542" y="650" on="1"/>
        <pt x="477" y="682" on="0"/>
        <pt x="397" y="682" on="1"/>
        <pt x="287" y="682" on="0"/>
        <pt x="132" y="534" on="0"/>
        <pt x="132" y="390" on="1"/>
        <pt x="132" y="301" on="0"/>
        <pt x="179" y="208" on="1"/>
        <pt x="204" y="158" on="0"/>
        <pt x="275" y="79" on="0"/>
        <pt x="384" y="28" on="0"/>
        <pt x="486" y="28" on="0"/>
        <pt x="530" y="44" on="0"/>
        <pt x="534" y="50" on="1"/>
        <pt x="555" y="78" on="0"/>
        <pt x="555" y="231" on="1"/>
      </contour>
    </TTGlyph>
    <TTGlyph name="Oacute" xMin="44" yMin="-16" xMax="809" yMax="926">
      <component glyphName="acutecomb" x="638" y="264" flags="0x1004"/>
      <component glyphName="O" x="0" y="0" flags="0x1004"/>
    </TTGlyph>
    <TTGlyph name="Obreve" xMin="44" yMin="-16" xMax="809" yMax="894">
      <component glyphName="uni0306" x="638" y="264" flags="0x1004"/>
      <component glyphName="O" x="0" y="0" flags="0x1004"/>
    </TTGlyph>
    <TTGlyph name="Ocircumflex" xMin="44" yMin="-16" xMax="809" yMax="912">
      <component glyphName="uni0302" x="638" y="264" flags="0x1004"/>
      <component glyphName="O" x="0" y="0" flags="0x1004"/>
    </TTGlyph>
    <TTGlyph name="Odieresis" xMin="44" yMin="-16" xMax="809" yMax="906">
      <component glyphName="uni0308" x="638" y="264" flags="0x1004"/>
      <component glyphName="O" x="0" y="0" flags="0x1004"/>
    </TTGlyph>
    <TTGlyph name="Ograve" xMin="44" yMin="-16" xMax="809" yMax="926">
      <component glyphName="gravecomb" x="638" y="264" flags="0x1004"/>
      <component glyphName="O" x="0" y="0" flags="0x1004"/>
    </TTGlyph>
    <TTGlyph name="Ohungarumlaut" xMin="44" yMin="-16" xMax="809" yMax="926">
      <component glyphName="uni030B" x="638" y="264" flags="0x1004"/>
      <component glyphName="O" x="0" y="0" flags="0x1004"/>
    </TTGlyph>
    <TTGlyph name="Omacron" xMin="44" yMin="-16" xMax="809" yMax="872">
      <component glyphName="uni0304" x="638" y="264" flags="0x1004"/>
      <component glyphName="O" x="0" y="0" flags="0x1004"/>
    </TTGlyph>
    <TTGlyph name="Oslash" xMin="44" yMin="-120" xMax="809" yMax="808">
      <contour>
        <pt x="621" y="808" on="1"/>
        <pt x="633" y="804" on="1"/>
        <pt x="646" y="800" on="0"/>
        <pt x="646" y="790" on="1"/>
        <pt x="646" y="785" on="0"/>
        <pt x="645" y="781" on="1"/>
        <pt x="614" y="715" on="1"/>
        <pt x="607" y="699" on="0"/>
        <pt x="607" y="697" on="1"/>
        <pt x="607" y="690" on="0"/>
        <pt x="618" y="684" on="1"/>
        <pt x="687" y="652" on="0"/>
        <pt x="732" y="594" on="1"/>
        <pt x="809" y="498" on="0"/>
        <pt x="809" y="392" on="1"/>
        <pt x="809" y="256" on="0"/>
        <pt x="756" y="162" on="1"/>
        <pt x="655" y="-16" on="0"/>
        <pt x="417" y="-16" on="1"/>
        <pt x="360" y="-16" on="0"/>
        <pt x="296" y="0" on="0"/>
        <pt x="292" y="0" on="1"/>
        <pt x="281" y="0" on="0"/>
        <pt x="274" y="-15" on="1"/>
        <pt x="230" y="-108" on="1"/>
        <pt x="223" y="-120" on="0"/>
        <pt x="215" y="-120" on="1"/>
        <pt x="187" y="-120" on="0"/>
        <pt x="187" y="-103" on="1"/>
        <pt x="187" y="-96" on="0"/>
        <pt x="190" y="-91" on="1"/>
        <pt x="236" y="7" on="1"/>
        <pt x="238" y="13" on="0"/>
        <pt x="238" y="19" on="0"/>
        <pt x="231" y="25" on="0"/>
        <pt x="216" y="33" on="1"/>
        <pt x="125" y="83" on="0"/>
        <pt x="80" y="178" on="1"/>
        <pt x="44" y="254" on="0"/>
        <pt x="44" y="339" on="1"/>
        <pt x="44" y="507" on="0"/>
        <pt x="246" y="722" on="0"/>
        <pt x="431" y="722" on="1"/>
        <pt x="488" y="722" on="0"/>
        <pt x="548" y="708" on="0"/>
        <pt x="552" y="708" on="1"/>
        <pt x="562" y="708" on="0"/>
        <pt x="571" y="725" on="1"/>
        <pt x="600" y="787" on="1"/>
        <pt x="610" y="808" on="0"/>
      </contour>
      <contour>
        <pt x="132" y="390" on="1"/>
        <pt x="132" y="268" on="0"/>
        <pt x="214" y="152" on="1"/>
        <pt x="234" y="123" on="0"/>
        <pt x="265" y="94" on="0"/>
        <pt x="277" y="94" on="0"/>
        <pt x="281" y="104" on="1"/>
        <pt x="522" y="619" on="1"/>
        <pt x="532" y="639" on="0"/>
        <pt x="532" y="644" on="1"/>
        <pt x="532" y="659" on="0"/>
        <pt x="437" y="682" on="0"/>
        <pt x="397" y="682" on="1"/>
        <pt x="287" y="682" on="0"/>
        <pt x="132" y="534" on="0"/>
      </contour>
      <contour>
        <pt x="314" y="68" on="1"/>
        <pt x="314" y="56" on="0"/>
        <pt x="404" y="28" on="0"/>
        <pt x="483" y="28" on="0"/>
        <pt x="558" y="49" on="0"/>
        <pt x="632" y="93" on="0"/>
        <pt x="690" y="156" on="0"/>
        <pt x="727" y="247" on="0"/>
        <pt x="727" y="367" on="0"/>
        <pt x="697" y="484" on="0"/>
        <pt x="655" y="554" on="0"/>
        <pt x="610" y="605" on="0"/>
        <pt x="581" y="626" on="0"/>
        <pt x="575" y="626" on="0"/>
        <pt x="554" y="584" on="0"/>
        <pt x="409" y="272" on="0"/>
        <pt x="314" y="73" on="0"/>
      </contour>
    </TTGlyph>
    <TTGlyph name="Otilde" xMin="44" yMin="-16" xMax="809" yMax="908">
      <component glyphName="tildecomb" x="638" y="264" flags="0x1004"/>
      <component glyphName="O" x="0" y="0" flags="0x1004"/>
    </TTGlyph>
    <TTGlyph name="P" xMin="20" yMin="-7" xMax="535" yMax="711">
      <contour>
        <pt x="114" y="431" on="1"/>
        <pt x="113" y="601" on="1"/>
        <pt x="113" y="628" on="0"/>
        <pt x="79" y="681" on="0"/>
        <pt x="40" y="681" on="1"/>
        <pt x="20" y="681" on="0"/>
        <pt x="20" y="694" on="1"/>
        <pt x="20" y="710" on="0"/>
        <pt x="43" y="710" on="1"/>
        <pt x="80" y="711" on="1"/>
        <pt x="140" y="708" on="1"/>
        <pt x="305" y="711" on="1"/>
        <pt x="399" y="711" on="0"/>
        <pt x="535" y="616" on="0"/>
        <pt x="535" y="527" on="1"/>
        <pt x="535" y="478" on="0"/>
        <pt x="499" y="401" on="0"/>
        <pt x="448" y="357" on="0"/>
        <pt x="416" y="342" on="1"/>
        <pt x="365" y="319" on="0"/>
        <pt x="285" y="319" on="0"/>
        <pt x="219" y="334" on="0"/>
        <pt x="219" y="342" on="1"/>
        <pt x="219" y="357" on="0"/>
        <pt x="232" y="357" on="1"/>
        <pt x="237" y="357" on="0"/>
        <pt x="268" y="349" on="0"/>
        <pt x="306" y="349" on="0"/>
        <pt x="358" y="362" on="0"/>
        <pt x="414" y="391" on="0"/>
        <pt x="450" y="450" on="0"/>
        <pt x="450" y="489" on="1"/>
        <pt x="450" y="556" on="0"/>
        <pt x="342" y="671" on="0"/>
        <pt x="247" y="671" on="1"/>
        <pt x="216" y="671" on="0"/>
        <pt x="194" y="634" on="0"/>
        <pt x="194" y="569" on="1"/>
        <pt x="192" y="156" on="1"/>
        <pt x="192" y="40" on="0"/>
        <pt x="260" y="32" on="1"/>
        <pt x="277" y="30" on="0"/>
        <pt x="288" y="30" on="1"/>
        <pt x="316" y="32" on="0"/>
        <pt x="316" y="10" on="1"/>
        <pt x="316" y="-7" on="0"/>
        <pt x="293" y="-7" on="1"/>
        <pt x="150" y="-2" on="1"/>
        <pt x="57" y="-6" on="1"/>
        <pt x="26" y="-6" on="0"/>
        <pt x="26" y="5" on="1"/>
        <pt x="26" y="22" on="0"/>
        <pt x="37" y="26" on="1"/>
        <pt x="42" y="28" on="0"/>
        <pt x="46" y="30" on="0"/>
        <pt x="61" y="33" on="0"/>
        <pt x="66" y="35" on="0"/>
        <pt x="74" y="36" on="0"/>
        <pt x="77" y="37" on="0"/>
        <pt x="84" y="42" on="0"/>
        <pt x="88" y="51" on="0"/>
        <pt x="95" y="66" on="0"/>
        <pt x="106" y="97" on="0"/>
        <pt x="114" y="359" on="0"/>
      </contour>
    </TTGlyph>
    <TTGlyph name="Q" xMin="45" yMin="-194" xMax="939" yMax="722">
      <contour>
        <pt x="174" y="78" on="1"/>
        <pt x="45" y="171" on="0"/>
        <pt x="45" y="510" on="0"/>
        <pt x="234" y="722" on="0"/>
        <pt x="432" y="722" on="1"/>
        <pt x="515" y="722" on="0"/>
        <pt x="648" y="668" on="0"/>
        <pt x="725" y="589" on="0"/>
        <pt x="751" y="538" on="1"/>
        <pt x="795" y="453" on="0"/>
        <pt x="795" y="296" on="0"/>
        <pt x="747" y="153" on="0"/>
        <pt x="646" y="38" on="0"/>
        <pt x="510" y="0" on="0"/>
        <pt x="510" y="-3" on="1"/>
        <pt x="510" y="-14" on="0"/>
        <pt x="529" y="-22" on="1"/>
        <pt x="542" y="-28" on="0"/>
        <pt x="650" y="-76" on="0"/>
        <pt x="677" y="-86" on="0"/>
        <pt x="723" y="-104" on="0"/>
        <pt x="754" y="-113" on="0"/>
        <pt x="773" y="-118" on="1"/>
        <pt x="807" y="-127" on="0"/>
        <pt x="865" y="-127" on="0"/>
        <pt x="899" y="-110" on="0"/>
        <pt x="918" y="-94" on="0"/>
        <pt x="932" y="-94" on="0"/>
        <pt x="939" y="-103" on="0"/>
        <pt x="939" y="-106" on="1"/>
        <pt x="939" y="-141" on="0"/>
        <pt x="831" y="-194" on="0"/>
        <pt x="702" y="-194" on="0"/>
        <pt x="473" y="-92" on="0"/>
        <pt x="272" y="10" on="0"/>
        <pt x="242" y="10" on="1"/>
        <pt x="196" y="10" on="0"/>
        <pt x="152" y="-54" on="0"/>
        <pt x="152" y="-96" on="1"/>
        <pt x="152" y="-114" on="1"/>
        <pt x="152" y="-140" on="0"/>
        <pt x="134" y="-140" on="1"/>
        <pt x="124" y="-140" on="0"/>
        <pt x="110" y="-114" on="0"/>
        <pt x="110" y="-98" on="1"/>
        <pt x="110" y="-54" on="0"/>
        <pt x="150" y="24" on="0"/>
        <pt x="196" y="57" on="0"/>
        <pt x="196" y="59" on="1"/>
        <pt x="196" y="63" on="0"/>
      </contour>
      <contour>
        <pt x="288" y="682" on="0"/>
        <pt x="136" y="534" on="0"/>
        <pt x="136" y="254" on="0"/>
        <pt x="210" y="152" on="1"/>
        <pt x="249" y="97" on="0"/>
        <pt x="394" y="28" on="0"/>
        <pt x="518" y="28" on="0"/>
        <pt x="592" y="66" on="1"/>
        <pt x="634" y="88" on="0"/>
        <pt x="717" y="217" on="0"/>
        <pt x="717" y="300" on="1"/>
        <pt x="717" y="461" on="0"/>
        <pt x="531" y="682" on="0"/>
        <pt x="398" y="682" on="1"/>
      </contour>
    </TTGlyph>
    <TTGlyph name="R" xMin="20" yMin="-8" xMax="713" yMax="715">
      <contour>
        <pt x="118" y="428" on="1"/>
        <pt x="117" y="597" on="1"/>
        <pt x="117" y="634" on="0"/>
        <pt x="87" y="673" on="0"/>
        <pt x="50" y="678" on="0"/>
        <pt x="20" y="686" on="0"/>
        <pt x="20" y="696" on="1"/>
        <pt x="20" y="712" on="0"/>
        <pt x="49" y="712" on="1"/>
        <pt x="215" y="712" on="1"/>
        <pt x="315" y="715" on="1"/>
        <pt x="405" y="715" on="0"/>
        <pt x="533" y="624" on="0"/>
        <pt x="533" y="547" on="1"/>
        <pt x="533" y="496" on="0"/>
        <pt x="494" y="419" on="0"/>
        <pt x="447" y="385" on="0"/>
        <pt x="408" y="360" on="0"/>
        <pt x="408" y="356" on="1"/>
        <pt x="408" y="344" on="0"/>
        <pt x="576" y="109" on="0"/>
        <pt x="607" y="76" on="1"/>
        <pt x="645" y="29" on="0"/>
        <pt x="699" y="29" on="1"/>
        <pt x="713" y="29" on="0"/>
        <pt x="713" y="17" on="1"/>
        <pt x="713" y="2" on="0"/>
        <pt x="689" y="-8" on="0"/>
        <pt x="592" y="-8" on="0"/>
        <pt x="553" y="15" on="1"/>
        <pt x="499" y="46" on="0"/>
        <pt x="374" y="255" on="1"/>
        <pt x="326" y="333" on="0"/>
        <pt x="300" y="333" on="1"/>
        <pt x="218" y="333" on="1"/>
        <pt x="206" y="333" on="0"/>
        <pt x="201" y="313" on="0"/>
        <pt x="201" y="264" on="1"/>
        <pt x="201" y="264" on="0"/>
        <pt x="201" y="183" on="1"/>
        <pt x="202" y="130" on="1"/>
        <pt x="202" y="130" on="0"/>
        <pt x="202" y="121" on="1"/>
        <pt x="202" y="80" on="0"/>
        <pt x="240" y="35" on="0"/>
        <pt x="287" y="28" on="0"/>
        <pt x="325" y="19" on="0"/>
        <pt x="325" y="9" on="1"/>
        <pt x="325" y="-7" on="0"/>
        <pt x="307" y="-7" on="1"/>
        <pt x="307" y="-7" on="0"/>
        <pt x="164" y="0" on="1"/>
        <pt x="54" y="-4" on="1"/>
        <pt x="33" y="-4" on="0"/>
        <pt x="33" y="12" on="1"/>
        <pt x="33" y="29" on="0"/>
        <pt x="75" y="34" on="1"/>
        <pt x="91" y="36" on="0"/>
        <pt x="117" y="76" on="0"/>
        <pt x="117" y="113" on="1"/>
      </contour>
      <contour>
        <pt x="201" y="536" on="1"/>
        <pt x="201" y="433" on="0"/>
        <pt x="203" y="384" on="0"/>
        <pt x="209" y="380" on="1"/>
        <pt x="224" y="371" on="0"/>
        <pt x="252" y="371" on="1"/>
        <pt x="291" y="371" on="1"/>
        <pt x="376" y="371" on="0"/>
        <pt x="449" y="449" on="0"/>
        <pt x="449" y="572" on="0"/>
        <pt x="352" y="674" on="0"/>
        <pt x="254" y="674" on="1"/>
        <pt x="217" y="674" on="0"/>
        <pt x="201" y="635" on="0"/>
        <pt x="201" y="564" on="1"/>
      </contour>
    </TTGlyph>
    <TTGlyph name="Racute" xMin="20" yMin="-8" xMax="713" yMax="926">
      <component glyphName="acutecomb" x="517" y="264" flags="0x1004"/>
      <component glyphName="R" x="0" y="0" flags="0x1004"/>
    </TTGlyph>
    <TTGlyph name="Rcaron" xMin="20" yMin="-8" xMax="713" yMax="912">
      <component glyphName="uni030C" x="517" y="264" flags="0x1004"/>
      <component glyphName="R" x="0" y="0" flags="0x1004"/>
    </TTGlyph>
    <TTGlyph name="Rcommaaccent" xMin="20" yMin="-201" xMax="713" yMax="715">
      <component glyphName="uni0326" x="574" y="0" flags="0x1004"/>
      <component glyphName="R" x="0" y="0" flags="0x1004"/>
    </TTGlyph>
    <TTGlyph name="S" xMin="59" yMin="-13" xMax="538" yMax="722">
      <contour>
        <pt x="455" y="689" on="1"/>
        <pt x="478" y="697" on="1"/>
        <pt x="491" y="697" on="0"/>
        <pt x="493" y="689" on="1"/>
        <pt x="514" y="568" on="0"/>
        <pt x="514" y="525" on="0"/>
        <pt x="500" y="525" on="1"/>
        <pt x="491" y="525" on="0"/>
        <pt x="474" y="568" on="0"/>
        <pt x="451" y="604" on="0"/>
        <pt x="441" y="614" on="0"/>
        <pt x="420" y="633" on="1"/>
        <pt x="366" y="681" on="0"/>
        <pt x="227" y="681" on="0"/>
        <pt x="143" y="621" on="0"/>
        <pt x="143" y="525" on="0"/>
        <pt x="192" y="467" on="0"/>
        <pt x="274" y="435" on="0"/>
        <pt x="319" y="421" on="1"/>
        <pt x="440" y="383" on="0"/>
        <pt x="498" y="322" on="1"/>
        <pt x="538" y="279" on="0"/>
        <pt x="538" y="215" on="1"/>
        <pt x="538" y="110" on="0"/>
        <pt x="404" y="-13" on="0"/>
        <pt x="305" y="-13" on="1"/>
        <pt x="236" y="-13" on="0"/>
        <pt x="152" y="2" on="0"/>
        <pt x="108" y="25" on="1"/>
        <pt x="95" y="33" on="0"/>
        <pt x="59" y="173" on="0"/>
        <pt x="59" y="208" on="0"/>
        <pt x="86" y="208" on="0"/>
        <pt x="89" y="198" on="1"/>
        <pt x="126" y="109" on="0"/>
        <pt x="176" y="72" on="1"/>
        <pt x="230" y="31" on="0"/>
        <pt x="383" y="31" on="0"/>
        <pt x="474" y="110" on="0"/>
        <pt x="474" y="174" on="1"/>
        <pt x="474" y="221" on="0"/>
        <pt x="412" y="284" on="0"/>
        <pt x="372" y="298" on="1"/>
        <pt x="223" y="348" on="0"/>
        <pt x="170" y="379" on="1"/>
        <pt x="79" y="433" on="0"/>
        <pt x="79" y="615" on="0"/>
        <pt x="208" y="722" on="0"/>
        <pt x="311" y="722" on="1"/>
        <pt x="349" y="722" on="0"/>
        <pt x="454" y="689" on="0"/>
      </contour>
    </TTGlyph>
    <TTGlyph name="Sacute" xMin="59" yMin="-13" xMax="538" yMax="926">
      <component glyphName="acutecomb" x="525" y="264" flags="0x1004"/>
      <component glyphName="S" x="0" y="0" flags="0x1004"/>
    </TTGlyph>
    <TTGlyph name="Scaron" xMin="59" yMin="-13" xMax="538" yMax="912">
      <component glyphName="uni030C" x="525" y="264" flags="0x1004"/>
      <component glyphName="S" x="0" y="0" flags="0x1004"/>
    </TTGlyph>
    <TTGlyph name="Scedilla" xMin="59" yMin="-201" xMax="538" yMax="722">
      <component glyphName="uni0327" x="526" y="0" flags="0x1004"/>
      <component glyphName="S" x="0" y="0" flags="0x1004"/>
    </TTGlyph>
    <TTGlyph name="Scircumflex" xMin="59" yMin="-13" xMax="538" yMax="912">
      <component glyphName="uni0302" x="525" y="264" flags="0x1004"/>
      <component glyphName="S" x="0" y="0" flags="0x1004"/>
    </TTGlyph>
    <TTGlyph name="T" xMin="20" yMin="-4" xMax="683" yMax="718">
      <contour>
        <pt x="77" y="718" on="0"/>
        <pt x="214" y="710" on="0"/>
        <pt x="616" y="710" on="0"/>
        <pt x="658" y="716" on="1"/>
        <pt x="669" y="716" on="0"/>
        <pt x="677" y="704" on="0"/>
        <pt x="677" y="699" on="1"/>
        <pt x="683" y="618" on="1"/>
        <pt x="683" y="593" on="0"/>
        <pt x="677" y="580" on="0"/>
        <pt x="667" y="580" on="1"/>
        <pt x="659" y="580" on="0"/>
        <pt x="648" y="621" on="0"/>
        <pt x="642" y="632" on="1"/>
        <pt x="627" y="658" on="0"/>
        <pt x="555" y="658" on="1"/>
        <pt x="425" y="658" on="1"/>
        <pt x="401" y="658" on="0"/>
        <pt x="390" y="639" on="0"/>
        <pt x="390" y="594" on="1"/>
        <pt x="390" y="545" on="1"/>
        <pt x="387" y="179" on="1"/>
        <pt x="386" y="114" on="1"/>
        <pt x="386" y="71" on="0"/>
        <pt x="413" y="45" on="0"/>
        <pt x="445" y="32" on="0"/>
        <pt x="456" y="31" on="1"/>
        <pt x="484" y="29" on="0"/>
        <pt x="484" y="13" on="1"/>
        <pt x="484" y="2" on="0"/>
        <pt x="474" y="-4" on="0"/>
        <pt x="460" y="-4" on="1"/>
        <pt x="349" y="4" on="1"/>
        <pt x="247" y="-3" on="1"/>
        <pt x="210" y="-3" on="0"/>
        <pt x="210" y="13" on="1"/>
        <pt x="210" y="23" on="0"/>
        <pt x="222" y="30" on="0"/>
        <pt x="257" y="35" on="0"/>
        <pt x="262" y="36" on="1"/>
        <pt x="296" y="44" on="0"/>
        <pt x="300" y="76" on="1"/>
        <pt x="310" y="164" on="0"/>
        <pt x="310" y="454" on="1"/>
        <pt x="309" y="633" on="1"/>
        <pt x="309" y="652" on="0"/>
        <pt x="287" y="661" on="0"/>
        <pt x="163" y="661" on="0"/>
        <pt x="92" y="653" on="0"/>
        <pt x="80" y="646" on="0"/>
        <pt x="63" y="624" on="0"/>
        <pt x="52" y="595" on="0"/>
        <pt x="50" y="586" on="1"/>
        <pt x="47" y="563" on="0"/>
        <pt x="31" y="563" on="1"/>
        <pt x="20" y="563" on="0"/>
        <pt x="20" y="580" on="1"/>
        <pt x="20" y="620" on="0"/>
        <pt x="30" y="685" on="0"/>
        <pt x="31" y="695" on="0"/>
        <pt x="32" y="698" on="0"/>
        <pt x="33" y="705" on="0"/>
        <pt x="35" y="708" on="0"/>
        <pt x="38" y="713" on="0"/>
        <pt x="42" y="715" on="0"/>
        <pt x="45" y="716" on="1"/>
        <pt x="51" y="718" on="0"/>
      </contour>
    </TTGlyph>
    <TTGlyph name="Tbar" xMin="20" yMin="-4" xMax="683" yMax="718">
      <contour>
        <pt x="77" y="718" on="0"/>
        <pt x="214" y="710" on="0"/>
        <pt x="616" y="710" on="0"/>
        <pt x="658" y="716" on="1"/>
        <pt x="669" y="716" on="0"/>
        <pt x="677" y="704" on="0"/>
        <pt x="677" y="699" on="1"/>
        <pt x="683" y="618" on="1"/>
        <pt x="683" y="593" on="0"/>
        <pt x="677" y="580" on="0"/>
        <pt x="667" y="580" on="1"/>
        <pt x="659" y="580" on="0"/>
        <pt x="648" y="621" on="0"/>
        <pt x="642" y="632" on="1"/>
        <pt x="627" y="658" on="0"/>
        <pt x="555" y="658" on="1"/>
        <pt x="425" y="658" on="1"/>
        <pt x="401" y="658" on="0"/>
        <pt x="390" y="639" on="0"/>
        <pt x="390" y="594" on="1"/>
        <pt x="390" y="545" on="1"/>
        <pt x="389" y="428" on="1"/>
        <pt x="389" y="414" on="1"/>
        <pt x="389" y="403" on="0"/>
        <pt x="400" y="397" on="0"/>
        <pt x="409" y="397" on="1"/>
        <pt x="545" y="397" on="1"/>
        <pt x="562" y="397" on="0"/>
        <pt x="569" y="388" on="0"/>
        <pt x="569" y="363" on="0"/>
        <pt x="560" y="353" on="0"/>
        <pt x="542" y="353" on="1"/>
        <pt x="407" y="352" on="1"/>
        <pt x="395" y="352" on="0"/>
        <pt x="389" y="346" on="0"/>
        <pt x="389" y="334" on="1"/>
        <pt x="386" y="114" on="1"/>
        <pt x="386" y="71" on="0"/>
        <pt x="413" y="45" on="0"/>
        <pt x="445" y="32" on="0"/>
        <pt x="456" y="31" on="1"/>
        <pt x="484" y="29" on="0"/>
        <pt x="484" y="13" on="1"/>
        <pt x="484" y="2" on="0"/>
        <pt x="474" y="-4" on="0"/>
        <pt x="460" y="-4" on="1"/>
        <pt x="349" y="4" on="1"/>
        <pt x="247" y="-3" on="1"/>
        <pt x="210" y="-3" on="0"/>
        <pt x="210" y="13" on="1"/>
        <pt x="210" y="23" on="0"/>
        <pt x="222" y="30" on="0"/>
        <pt x="257" y="35" on="0"/>
        <pt x="262" y="36" on="1"/>
        <pt x="296" y="44" on="0"/>
        <pt x="300" y="76" on="1"/>
        <pt x="307" y="137" on="0"/>
        <pt x="309" y="334" on="1"/>
        <pt x="309" y="346" on="0"/>
        <pt x="302" y="353" on="0"/>
        <pt x="293" y="353" on="1"/>
        <pt x="284" y="353" on="1"/>
        <pt x="216" y="354" on="1"/>
        <pt x="142" y="354" on="1"/>
        <pt x="127" y="354" on="0"/>
        <pt x="127" y="396" on="0"/>
        <pt x="141" y="396" on="1"/>
        <pt x="287" y="397" on="1"/>
        <pt x="302" y="397" on="0"/>
        <pt x="310" y="404" on="0"/>
        <pt x="310" y="418" on="1"/>
        <pt x="310" y="454" on="1"/>
        <pt x="309" y="633" on="1"/>
        <pt x="309" y="652" on="0"/>
        <pt x="287" y="661" on="0"/>
        <pt x="163" y="661" on="0"/>
        <pt x="92" y="653" on="0"/>
        <pt x="80" y="646" on="0"/>
        <pt x="63" y="624" on="0"/>
        <pt x="52" y="595" on="0"/>
        <pt x="50" y="586" on="1"/>
        <pt x="47" y="563" on="0"/>
        <pt x="31" y="563" on="1"/>
        <pt x="20" y="563" on="0"/>
        <pt x="20" y="580" on="1"/>
        <pt x="20" y="620" on="0"/>
        <pt x="30" y="685" on="0"/>
        <pt x="31" y="695" on="0"/>
        <pt x="32" y="698" on="0"/>
        <pt x="33" y="705" on="0"/>
        <pt x="35" y="708" on="0"/>
        <pt x="38" y="713" on="0"/>
        <pt x="42" y="715" on="0"/>
        <pt x="45" y="716" on="1"/>
        <pt x="51" y="718" on="0"/>
      </contour>
    </TTGlyph>
    <TTGlyph name="Tcaron" xMin="20" yMin="-4" xMax="683" yMax="912">
      <component glyphName="uni030C" x="571" y="264" flags="0x1004"/>
      <component glyphName="T" x="0" y="0" flags="0x1004"/>
    </TTGlyph>
    <TTGlyph name="Thorn" xMin="20" yMin="-4" xMax="539" yMax="710">
      <contour>
        <pt x="154" y="0" on="1"/>
        <pt x="60" y="-4" on="1"/>
        <pt x="29" y="-4" on="0"/>
        <pt x="29" y="8" on="1"/>
        <pt x="29" y="21" on="0"/>
        <pt x="41" y="28" on="0"/>
        <pt x="48" y="30" on="0"/>
        <pt x="56" y="32" on="1"/>
        <pt x="68" y="34" on="1"/>
        <pt x="83" y="37" on="0"/>
        <pt x="88" y="44" on="1"/>
        <pt x="117" y="82" on="0"/>
        <pt x="117" y="284" on="1"/>
        <pt x="117" y="437" on="0"/>
        <pt x="120" y="497" on="0"/>
        <pt x="120" y="510" on="1"/>
        <pt x="120" y="556" on="1"/>
        <pt x="120" y="600" on="0"/>
        <pt x="113" y="653" on="0"/>
        <pt x="66" y="679" on="0"/>
        <pt x="20" y="681" on="0"/>
        <pt x="20" y="710" on="0"/>
        <pt x="48" y="710" on="1"/>
        <pt x="161" y="706" on="1"/>
        <pt x="249" y="708" on="1"/>
        <pt x="276" y="708" on="0"/>
        <pt x="276" y="694" on="1"/>
        <pt x="276" y="686" on="0"/>
        <pt x="230" y="667" on="1"/>
        <pt x="214" y="660" on="0"/>
        <pt x="198" y="601" on="0"/>
        <pt x="198" y="565" on="0"/>
        <pt x="201" y="561" on="0"/>
        <pt x="209" y="561" on="1"/>
        <pt x="309" y="565" on="1"/>
        <pt x="403" y="565" on="0"/>
        <pt x="539" y="469" on="0"/>
        <pt x="539" y="380" on="1"/>
        <pt x="539" y="331" on="0"/>
        <pt x="503" y="254" on="0"/>
        <pt x="452" y="210" on="0"/>
        <pt x="420" y="196" on="1"/>
        <pt x="368" y="172" on="0"/>
        <pt x="288" y="172" on="0"/>
        <pt x="222" y="188" on="0"/>
        <pt x="222" y="196" on="1"/>
        <pt x="222" y="211" on="0"/>
        <pt x="235" y="211" on="1"/>
        <pt x="240" y="211" on="0"/>
        <pt x="272" y="203" on="0"/>
        <pt x="309" y="203" on="0"/>
        <pt x="362" y="216" on="0"/>
        <pt x="418" y="245" on="0"/>
        <pt x="454" y="304" on="0"/>
        <pt x="454" y="343" on="1"/>
        <pt x="454" y="410" on="0"/>
        <pt x="345" y="525" on="0"/>
        <pt x="250" y="525" on="1"/>
        <pt x="218" y="525" on="0"/>
        <pt x="197" y="485" on="0"/>
        <pt x="197" y="418" on="1"/>
        <pt x="197" y="247" on="1"/>
        <pt x="195" y="247" on="0"/>
        <pt x="195" y="177" on="1"/>
        <pt x="195" y="156" on="1"/>
        <pt x="195" y="68" on="0"/>
        <pt x="227" y="47" on="1"/>
        <pt x="256" y="28" on="0"/>
        <pt x="279" y="31" on="1"/>
        <pt x="319" y="35" on="0"/>
        <pt x="319" y="12" on="1"/>
        <pt x="319" y="-4" on="0"/>
        <pt x="297" y="-4" on="1"/>
      </contour>
    </TTGlyph>
    <TTGlyph name="U" xMin="20" yMin="-19" xMax="795" yMax="710">
      <contour>
        <pt x="114" y="431" on="1"/>
        <pt x="116" y="575" on="1"/>
        <pt x="116" y="630" on="0"/>
        <pt x="90" y="671" on="0"/>
        <pt x="42" y="678" on="1"/>
        <pt x="20" y="681" on="0"/>
        <pt x="20" y="697" on="1"/>
        <pt x="20" y="705" on="0"/>
        <pt x="32" y="710" on="0"/>
        <pt x="43" y="710" on="1"/>
        <pt x="156" y="706" on="1"/>
        <pt x="250" y="708" on="1"/>
        <pt x="271" y="708" on="0"/>
        <pt x="271" y="694" on="1"/>
        <pt x="271" y="685" on="0"/>
        <pt x="257" y="681" on="0"/>
        <pt x="236" y="679" on="0"/>
        <pt x="226" y="673" on="1"/>
        <pt x="201" y="659" on="0"/>
        <pt x="201" y="580" on="1"/>
        <pt x="201" y="552" on="1"/>
        <pt x="200" y="336" on="1"/>
        <pt x="200" y="237" on="0"/>
        <pt x="212" y="177" on="0"/>
        <pt x="228" y="126" on="0"/>
        <pt x="251" y="96" on="0"/>
        <pt x="286" y="60" on="0"/>
        <pt x="309" y="50" on="1"/>
        <pt x="363" y="28" on="0"/>
        <pt x="432" y="28" on="1"/>
        <pt x="540" y="28" on="0"/>
        <pt x="582" y="52" on="1"/>
        <pt x="600" y="62" on="0"/>
        <pt x="647" y="105" on="0"/>
        <pt x="660" y="136" on="1"/>
        <pt x="691" y="210" on="0"/>
        <pt x="691" y="324" on="1"/>
        <pt x="690" y="536" on="1"/>
        <pt x="690" y="571" on="0"/>
        <pt x="687" y="611" on="0"/>
        <pt x="670" y="659" on="0"/>
        <pt x="644" y="677" on="0"/>
        <pt x="612" y="682" on="0"/>
        <pt x="592" y="685" on="0"/>
        <pt x="592" y="692" on="1"/>
        <pt x="592" y="708" on="0"/>
        <pt x="612" y="708" on="1"/>
        <pt x="689" y="706" on="1"/>
        <pt x="774" y="709" on="1"/>
        <pt x="795" y="709" on="0"/>
        <pt x="795" y="696" on="1"/>
        <pt x="795" y="688" on="0"/>
        <pt x="752" y="663" on="0"/>
        <pt x="747" y="653" on="1"/>
        <pt x="736" y="632" on="0"/>
        <pt x="736" y="587" on="1"/>
        <pt x="737" y="520" on="1"/>
        <pt x="737" y="328" on="0"/>
        <pt x="705" y="124" on="0"/>
        <pt x="672" y="78" on="1"/>
        <pt x="605" y="-19" on="0"/>
        <pt x="265" y="-19" on="0"/>
        <pt x="195" y="45" on="1"/>
        <pt x="140" y="96" on="0"/>
        <pt x="114" y="239" on="0"/>
        <pt x="114" y="414" on="1"/>
      </contour>
    </TTGlyph>
    <TTGlyph name="Uacute" xMin="20" yMin="-19" xMax="795" yMax="926">
      <component glyphName="acutecomb" x="656" y="264" flags="0x1004"/>
      <component glyphName="U" x="0" y="0" flags="0x1004"/>
    </TTGlyph>
    <TTGlyph name="Ubreve" xMin="20" yMin="-19" xMax="795" yMax="894">
      <component glyphName="uni0306" x="656" y="264" flags="0x1004"/>
      <component glyphName="U" x="0" y="0" flags="0x1004"/>
    </TTGlyph>
    <TTGlyph name="Ucircumflex" xMin="20" yMin="-19" xMax="795" yMax="912">
      <component glyphName="uni0302" x="656" y="264" flags="0x1004"/>
      <component glyphName="U" x="0" y="0" flags="0x1004"/>
    </TTGlyph>
    <TTGlyph name="Udieresis" xMin="20" yMin="-19" xMax="795" yMax="906">
      <component glyphName="uni0308" x="656" y="264" flags="0x1004"/>
      <component glyphName="U" x="0" y="0" flags="0x1004"/>
    </TTGlyph>
    <TTGlyph name="Ugrave" xMin="20" yMin="-19" xMax="795" yMax="926">
      <component glyphName="gravecomb" x="656" y="264" flags="0x1004"/>
      <component glyphName="U" x="0" y="0" flags="0x1004"/>
    </TTGlyph>
    <TTGlyph name="Uhungarumlaut" xMin="20" yMin="-19" xMax="795" yMax="926">
      <component glyphName="uni030B" x="656" y="264" flags="0x1004"/>
      <component glyphName="U" x="0" y="0" flags="0x1004"/>
    </TTGlyph>
    <TTGlyph name="Umacron" xMin="20" yMin="-19" xMax="795" yMax="872">
      <component glyphName="uni0304" x="656" y="264" flags="0x1004"/>
      <component glyphName="U" x="0" y="0" flags="0x1004"/>
    </TTGlyph>
    <TTGlyph name="Uogonek" xMin="20" yMin="-204" xMax="795" yMax="710">
      <contour>
        <pt x="114" y="431" on="1"/>
        <pt x="116" y="575" on="1"/>
        <pt x="116" y="630" on="0"/>
        <pt x="90" y="671" on="0"/>
        <pt x="42" y="678" on="1"/>
        <pt x="20" y="681" on="0"/>
        <pt x="20" y="697" on="1"/>
        <pt x="20" y="705" on="0"/>
        <pt x="32" y="710" on="0"/>
        <pt x="43" y="710" on="1"/>
        <pt x="156" y="706" on="1"/>
        <pt x="250" y="708" on="1"/>
        <pt x="271" y="708" on="0"/>
        <pt x="271" y="694" on="1"/>
        <pt x="271" y="685" on="0"/>
        <pt x="257" y="681" on="0"/>
        <pt x="236" y="679" on="0"/>
        <pt x="226" y="673" on="1"/>
        <pt x="201" y="659" on="0"/>
        <pt x="201" y="580" on="1"/>
        <pt x="201" y="552" on="1"/>
        <pt x="200" y="336" on="1"/>
        <pt x="200" y="237" on="0"/>
        <pt x="212" y="177" on="0"/>
        <pt x="228" y="126" on="0"/>
        <pt x="251" y="96" on="0"/>
        <pt x="286" y="60" on="0"/>
        <pt x="309" y="50" on="1"/>
        <pt x="363" y="28" on="0"/>
        <pt x="432" y="28" on="1"/>
        <pt x="540" y="28" on="0"/>
        <pt x="582" y="52" on="1"/>
        <pt x="600" y="62" on="0"/>
        <pt x="647" y="105" on="0"/>
        <pt x="660" y="136" on="1"/>
        <pt x="691" y="210" on="0"/>
        <pt x="691" y="324" on="1"/>
        <pt x="690" y="536" on="1"/>
        <pt x="690" y="571" on="0"/>
        <pt x="687" y="611" on="0"/>
        <pt x="670" y="659" on="0"/>
        <pt x="644" y="677" on="0"/>
        <pt x="612" y="682" on="0"/>
        <pt x="592" y="685" on="0"/>
        <pt x="592" y="692" on="1"/>
        <pt x="592" y="708" on="0"/>
        <pt x="612" y="708" on="1"/>
        <pt x="689" y="706" on="1"/>
        <pt x="774" y="709" on="1"/>
        <pt x="795" y="709" on="0"/>
        <pt x="795" y="696" on="1"/>
        <pt x="795" y="688" on="0"/>
        <pt x="752" y="663" on="0"/>
        <pt x="747" y="653" on="1"/>
        <pt x="736" y="632" on="0"/>
        <pt x="736" y="587" on="1"/>
        <pt x="737" y="520" on="1"/>
        <pt x="737" y="328" on="0"/>
        <pt x="705" y="124" on="0"/>
        <pt x="640" y="31" on="0"/>
        <pt x="575" y="3" on="1"/>
        <pt x="558" y="-4" on="0"/>
        <pt x="517" y="-11" on="0"/>
        <pt x="495" y="-15" on="0"/>
        <pt x="484" y="-22" on="1"/>
        <pt x="464" y="-35" on="0"/>
        <pt x="464" y="-94" on="1"/>
        <pt x="464" y="-122" on="0"/>
        <pt x="494" y="-166" on="0"/>
        <pt x="529" y="-166" on="0"/>
        <pt x="552" y="-155" on="0"/>
        <pt x="554" y="-155" on="1"/>
        <pt x="561" y="-155" on="0"/>
        <pt x="561" y="-174" on="0"/>
        <pt x="514" y="-204" on="0"/>
        <pt x="445" y="-204" on="0"/>
        <pt x="399" y="-150" on="0"/>
        <pt x="399" y="-119" on="1"/>
        <pt x="399" y="-66" on="0"/>
        <pt x="427" y="-32" on="1"/>
        <pt x="436" y="-21" on="1"/>
        <pt x="436" y="-19" on="0"/>
        <pt x="404" y="-19" on="0"/>
        <pt x="349" y="-16" on="0"/>
        <pt x="318" y="-12" on="1"/>
        <pt x="245" y="-1" on="0"/>
        <pt x="140" y="96" on="0"/>
        <pt x="114" y="239" on="0"/>
        <pt x="114" y="414" on="1"/>
      </contour>
    </TTGlyph>
    <TTGlyph name="Uring" xMin="20" yMin="-19" xMax="795" yMax="932">
      <component glyphName="uni030A" x="656" y="264" flags="0x1004"/>
      <component glyphName="U" x="0" y="0" flags="0x1004"/>
    </TTGlyph>
    <TTGlyph name="Utilde" xMin="20" yMin="-19" xMax="795" yMax="908">
      <component glyphName="tildecomb" x="656" y="264" flags="0x1004"/>
      <component glyphName="U" x="0" y="0" flags="0x1004"/>
    </TTGlyph>
    <TTGlyph name="V" xMin="20" yMin="-30" xMax="787" yMax="711">
      <contour>
        <pt x="679" y="709" on="1"/>
        <pt x="768" y="711" on="1"/>
        <pt x="787" y="711" on="0"/>
        <pt x="787" y="697" on="1"/>
        <pt x="787" y="686" on="0"/>
        <pt x="765" y="676" on="1"/>
        <pt x="756" y="672" on="0"/>
        <pt x="732" y="646" on="0"/>
        <pt x="723" y="625" on="1"/>
        <pt x="500" y="117" on="1"/>
        <pt x="476" y="63" on="0"/>
        <pt x="442" y="-20" on="0"/>
        <pt x="436" y="-30" on="0"/>
        <pt x="431" y="-30" on="1"/>
        <pt x="413" y="-30" on="0"/>
        <pt x="360" y="104" on="0"/>
        <pt x="245" y="354" on="0"/>
        <pt x="183" y="494" on="0"/>
        <pt x="156" y="560" on="0"/>
        <pt x="144" y="586" on="1"/>
        <pt x="126" y="629" on="0"/>
        <pt x="96" y="662" on="0"/>
        <pt x="59" y="678" on="0"/>
        <pt x="48" y="678" on="1"/>
        <pt x="20" y="676" on="0"/>
        <pt x="20" y="696" on="1"/>
        <pt x="20" y="710" on="0"/>
        <pt x="48" y="710" on="1"/>
        <pt x="158" y="706" on="1"/>
        <pt x="223" y="708" on="1"/>
        <pt x="246" y="708" on="0"/>
        <pt x="256" y="704" on="0"/>
        <pt x="256" y="691" on="0"/>
        <pt x="246" y="686" on="1"/>
        <pt x="215" y="670" on="0"/>
        <pt x="215" y="637" on="0"/>
        <pt x="222" y="610" on="0"/>
        <pt x="246" y="554" on="0"/>
        <pt x="271" y="498" on="0"/>
        <pt x="328" y="373" on="0"/>
        <pt x="355" y="312" on="1"/>
        <pt x="439" y="119" on="0"/>
        <pt x="455" y="119" on="1"/>
        <pt x="460" y="119" on="0"/>
        <pt x="565" y="361" on="0"/>
        <pt x="667" y="625" on="0"/>
        <pt x="667" y="665" on="0"/>
        <pt x="644" y="682" on="0"/>
        <pt x="631" y="684" on="1"/>
        <pt x="595" y="688" on="0"/>
        <pt x="595" y="700" on="1"/>
        <pt x="595" y="707" on="0"/>
        <pt x="602" y="710" on="0"/>
        <pt x="616" y="710" on="1"/>
      </contour>
    </TTGlyph>
    <TTGlyph name="W" xMin="20" yMin="-30" xMax="1091" yMax="712">
      <contour>
        <pt x="982" y="709" on="1"/>
        <pt x="1071" y="711" on="1"/>
        <pt x="1091" y="711" on="0"/>
        <pt x="1091" y="697" on="1"/>
        <pt x="1091" y="690" on="0"/>
        <pt x="1080" y="682" on="0"/>
        <pt x="1058" y="670" on="0"/>
        <pt x="1045" y="657" on="0"/>
        <pt x="1038" y="647" on="0"/>
        <pt x="1030" y="632" on="0"/>
        <pt x="1028" y="627" on="1"/>
        <pt x="1021" y="614" on="0"/>
        <pt x="763" y="31" on="0"/>
        <pt x="735" y="-27" on="0"/>
        <pt x="727" y="-27" on="1"/>
        <pt x="717" y="-27" on="0"/>
        <pt x="681" y="62" on="1"/>
        <pt x="671" y="84" on="0"/>
        <pt x="638" y="162" on="0"/>
        <pt x="615" y="216" on="0"/>
        <pt x="603" y="244" on="1"/>
        <pt x="579" y="301" on="0"/>
        <pt x="572" y="301" on="1"/>
        <pt x="562" y="301" on="0"/>
        <pt x="447" y="25" on="0"/>
        <pt x="442" y="5" on="0"/>
        <pt x="439" y="-3" on="0"/>
        <pt x="437" y="-9" on="0"/>
        <pt x="435" y="-15" on="0"/>
        <pt x="433" y="-19" on="0"/>
        <pt x="432" y="-23" on="0"/>
        <pt x="430" y="-26" on="0"/>
        <pt x="428" y="-28" on="0"/>
        <pt x="427" y="-28" on="1"/>
        <pt x="424" y="-30" on="0"/>
        <pt x="422" y="-30" on="1"/>
        <pt x="413" y="-30" on="0"/>
        <pt x="387" y="27" on="0"/>
        <pt x="319" y="194" on="0"/>
        <pt x="226" y="398" on="0"/>
        <pt x="161" y="558" on="1"/>
        <pt x="142" y="606" on="0"/>
        <pt x="98" y="661" on="0"/>
        <pt x="64" y="675" on="0"/>
        <pt x="36" y="677" on="0"/>
        <pt x="20" y="683" on="0"/>
        <pt x="20" y="709" on="0"/>
        <pt x="47" y="709" on="1"/>
        <pt x="157" y="706" on="1"/>
        <pt x="243" y="709" on="1"/>
        <pt x="252" y="709" on="0"/>
        <pt x="257" y="704" on="0"/>
        <pt x="257" y="691" on="0"/>
        <pt x="214" y="669" on="0"/>
        <pt x="214" y="650" on="1"/>
        <pt x="214" y="630" on="0"/>
        <pt x="244" y="565" on="1"/>
        <pt x="344" y="341" on="0"/>
        <pt x="407" y="193" on="0"/>
        <pt x="417" y="170" on="1"/>
        <pt x="437" y="126" on="0"/>
        <pt x="443" y="126" on="1"/>
        <pt x="447" y="126" on="0"/>
        <pt x="503" y="250" on="0"/>
        <pt x="529" y="314" on="0"/>
        <pt x="534" y="325" on="1"/>
        <pt x="545" y="346" on="0"/>
        <pt x="545" y="371" on="0"/>
        <pt x="485" y="506" on="1"/>
        <pt x="419" y="652" on="0"/>
        <pt x="400" y="667" on="1"/>
        <pt x="384" y="679" on="0"/>
        <pt x="374" y="679" on="1"/>
        <pt x="363" y="680" on="1"/>
        <pt x="335" y="683" on="0"/>
        <pt x="323" y="688" on="0"/>
        <pt x="323" y="696" on="1"/>
        <pt x="323" y="710" on="0"/>
        <pt x="352" y="710" on="1"/>
        <pt x="462" y="706" on="1"/>
        <pt x="528" y="710" on="1"/>
        <pt x="558" y="710" on="0"/>
        <pt x="558" y="696" on="0"/>
        <pt x="547" y="690" on="1"/>
        <pt x="515" y="673" on="0"/>
        <pt x="515" y="632" on="0"/>
        <pt x="546" y="562" on="1"/>
        <pt x="548" y="558" on="0"/>
        <pt x="560" y="529" on="1"/>
        <pt x="586" y="461" on="0"/>
        <pt x="601" y="461" on="0"/>
        <pt x="665" y="636" on="0"/>
        <pt x="665" y="670" on="0"/>
        <pt x="635" y="685" on="0"/>
        <pt x="605" y="692" on="0"/>
        <pt x="605" y="700" on="1"/>
        <pt x="605" y="711" on="0"/>
        <pt x="627" y="711" on="1"/>
        <pt x="691" y="709" on="1"/>
        <pt x="708" y="709" on="1"/>
        <pt x="722" y="709" on="0"/>
        <pt x="761" y="712" on="1"/>
        <pt x="770" y="712" on="1"/>
        <pt x="783" y="712" on="0"/>
        <pt x="783" y="692" on="0"/>
        <pt x="745" y="680" on="0"/>
        <pt x="722" y="657" on="0"/>
        <pt x="689" y="576" on="0"/>
        <pt x="630" y="438" on="0"/>
        <pt x="620" y="410" on="0"/>
        <pt x="620" y="391" on="0"/>
        <pt x="742" y="119" on="0"/>
        <pt x="765" y="119" on="0"/>
        <pt x="974" y="624" on="0"/>
        <pt x="974" y="665" on="0"/>
        <pt x="951" y="682" on="0"/>
        <pt x="937" y="684" on="1"/>
        <pt x="900" y="687" on="0"/>
        <pt x="900" y="700" on="1"/>
        <pt x="900" y="707" on="0"/>
        <pt x="906" y="710" on="0"/>
        <pt x="919" y="710" on="1"/>
      </contour>
    </TTGlyph>
    <TTGlyph name="Wcircumflex" xMin="20" yMin="-30" xMax="1091" yMax="912">
      <component glyphName="uni0302" x="797" y="264" flags="0x1004"/>
      <component glyphName="W" x="0" y="0" flags="0x1004"/>
    </TTGlyph>
    <TTGlyph name="X" xMin="20" yMin="-1" xMax="731" yMax="714">
      <contour>
        <pt x="134" y="3" on="1"/>
        <pt x="54" y="-1" on="1"/>
        <pt x="35" y="-1" on="0"/>
        <pt x="25" y="9" on="0"/>
        <pt x="25" y="25" on="0"/>
        <pt x="37" y="30" on="0"/>
        <pt x="46" y="30" on="1"/>
        <pt x="71" y="32" on="0"/>
        <pt x="106" y="59" on="0"/>
        <pt x="129" y="81" on="0"/>
        <pt x="154" y="112" on="0"/>
        <pt x="174" y="136" on="0"/>
        <pt x="204" y="177" on="0"/>
        <pt x="219" y="198" on="0"/>
        <pt x="252" y="245" on="0"/>
        <pt x="273" y="274" on="0"/>
        <pt x="315" y="329" on="0"/>
        <pt x="332" y="353" on="0"/>
        <pt x="332" y="359" on="0"/>
        <pt x="324" y="372" on="0"/>
        <pt x="302" y="403" on="0"/>
        <pt x="288" y="422" on="1"/>
        <pt x="233" y="498" on="0"/>
        <pt x="196" y="551" on="1"/>
        <pt x="116" y="669" on="0"/>
        <pt x="60" y="681" on="1"/>
        <pt x="38" y="681" on="0"/>
        <pt x="20" y="695" on="0"/>
        <pt x="20" y="709" on="0"/>
        <pt x="34" y="714" on="0"/>
        <pt x="62" y="714" on="1"/>
        <pt x="151" y="710" on="1"/>
        <pt x="256" y="712" on="1"/>
        <pt x="278" y="712" on="0"/>
        <pt x="278" y="694" on="0"/>
        <pt x="264" y="686" on="0"/>
        <pt x="256" y="686" on="1"/>
        <pt x="233" y="684" on="0"/>
        <pt x="233" y="645" on="0"/>
        <pt x="287" y="567" on="1"/>
        <pt x="368" y="444" on="0"/>
        <pt x="384" y="428" on="0"/>
        <pt x="387" y="428" on="1"/>
        <pt x="395" y="428" on="0"/>
        <pt x="419" y="463" on="0"/>
        <pt x="459" y="520" on="0"/>
        <pt x="490" y="565" on="0"/>
        <pt x="506" y="590" on="1"/>
        <pt x="542" y="642" on="0"/>
        <pt x="542" y="671" on="0"/>
        <pt x="525" y="686" on="0"/>
        <pt x="516" y="687" on="1"/>
        <pt x="489" y="690" on="0"/>
        <pt x="489" y="704" on="1"/>
        <pt x="489" y="714" on="0"/>
        <pt x="504" y="714" on="1"/>
        <pt x="585" y="710" on="1"/>
        <pt x="641" y="710" on="0"/>
        <pt x="676" y="714" on="0"/>
        <pt x="679" y="714" on="1"/>
        <pt x="695" y="714" on="0"/>
        <pt x="695" y="694" on="0"/>
        <pt x="677" y="687" on="0"/>
        <pt x="637" y="673" on="0"/>
        <pt x="601" y="648" on="0"/>
        <pt x="567" y="602" on="1"/>
        <pt x="412" y="394" on="0"/>
        <pt x="412" y="392" on="1"/>
        <pt x="412" y="385" on="0"/>
        <pt x="495" y="267" on="0"/>
        <pt x="538" y="205" on="1"/>
        <pt x="630" y="71" on="0"/>
        <pt x="668" y="40" on="1"/>
        <pt x="671" y="37" on="0"/>
        <pt x="688" y="34" on="1"/>
        <pt x="731" y="26" on="0"/>
        <pt x="731" y="13" on="1"/>
        <pt x="731" y="8" on="0"/>
        <pt x="730" y="6" on="1"/>
        <pt x="726" y="-1" on="0"/>
        <pt x="699" y="-1" on="1"/>
        <pt x="592" y="6" on="1"/>
        <pt x="542" y="6" on="0"/>
        <pt x="494" y="0" on="0"/>
        <pt x="490" y="0" on="1"/>
        <pt x="477" y="0" on="0"/>
        <pt x="477" y="25" on="0"/>
        <pt x="528" y="37" on="0"/>
        <pt x="528" y="56" on="1"/>
        <pt x="528" y="75" on="0"/>
        <pt x="470" y="160" on="1"/>
        <pt x="400" y="260" on="0"/>
        <pt x="362" y="320" on="0"/>
        <pt x="355" y="320" on="1"/>
        <pt x="353" y="320" on="0"/>
        <pt x="312" y="254" on="0"/>
        <pt x="229" y="143" on="0"/>
        <pt x="187" y="75" on="0"/>
        <pt x="187" y="55" on="1"/>
        <pt x="187" y="28" on="0"/>
        <pt x="241" y="28" on="1"/>
        <pt x="253" y="28" on="0"/>
        <pt x="253" y="11" on="1"/>
        <pt x="253" y="0" on="0"/>
        <pt x="222" y="0" on="1"/>
      </contour>
    </TTGlyph>
    <TTGlyph name="Y" xMin="20" yMin="-3" xMax="692" yMax="705">
      <contour>
        <pt x="326" y="89" on="1"/>
        <pt x="328" y="292" on="1"/>
        <pt x="328" y="334" on="0"/>
        <pt x="302" y="374" on="1"/>
        <pt x="278" y="412" on="0"/>
        <pt x="200" y="526" on="0"/>
        <pt x="140" y="617" on="0"/>
        <pt x="90" y="666" on="0"/>
        <pt x="63" y="675" on="0"/>
        <pt x="20" y="675" on="0"/>
        <pt x="20" y="699" on="0"/>
        <pt x="43" y="705" on="0"/>
        <pt x="82" y="705" on="1"/>
        <pt x="140" y="703" on="1"/>
        <pt x="225" y="704" on="1"/>
        <pt x="275" y="704" on="0"/>
        <pt x="275" y="681" on="0"/>
        <pt x="233" y="666" on="0"/>
        <pt x="233" y="647" on="0"/>
        <pt x="246" y="615" on="0"/>
        <pt x="259" y="595" on="0"/>
        <pt x="285" y="557" on="0"/>
        <pt x="321" y="499" on="0"/>
        <pt x="394" y="401" on="0"/>
        <pt x="405" y="401" on="0"/>
        <pt x="423" y="424" on="0"/>
        <pt x="455" y="478" on="0"/>
        <pt x="469" y="499" on="0"/>
        <pt x="492" y="533" on="0"/>
        <pt x="501" y="547" on="0"/>
        <pt x="519" y="576" on="0"/>
        <pt x="527" y="591" on="0"/>
        <pt x="532" y="602" on="1"/>
        <pt x="542" y="620" on="0"/>
        <pt x="542" y="632" on="1"/>
        <pt x="542" y="668" on="0"/>
        <pt x="496" y="674" on="1"/>
        <pt x="474" y="677" on="0"/>
        <pt x="468" y="688" on="0"/>
        <pt x="468" y="693" on="1"/>
        <pt x="468" y="705" on="0"/>
        <pt x="496" y="705" on="1"/>
        <pt x="537" y="704" on="1"/>
        <pt x="643" y="703" on="1"/>
        <pt x="692" y="703" on="0"/>
        <pt x="692" y="688" on="1"/>
        <pt x="692" y="684" on="0"/>
        <pt x="680" y="678" on="0"/>
        <pt x="658" y="668" on="0"/>
        <pt x="649" y="661" on="1"/>
        <pt x="608" y="629" on="0"/>
        <pt x="449" y="389" on="0"/>
        <pt x="422" y="355" on="0"/>
        <pt x="414" y="307" on="0"/>
        <pt x="414" y="249" on="1"/>
        <pt x="415" y="133" on="1"/>
        <pt x="415" y="109" on="1"/>
        <pt x="415" y="76" on="0"/>
        <pt x="438" y="38" on="0"/>
        <pt x="458" y="31" on="0"/>
        <pt x="468" y="31" on="1"/>
        <pt x="488" y="30" on="1"/>
        <pt x="495" y="30" on="0"/>
        <pt x="503" y="21" on="0"/>
        <pt x="503" y="6" on="0"/>
        <pt x="493" y="0" on="0"/>
        <pt x="479" y="0" on="1"/>
        <pt x="379" y="1" on="1"/>
        <pt x="269" y="-3" on="1"/>
        <pt x="241" y="-3" on="0"/>
        <pt x="241" y="17" on="0"/>
        <pt x="252" y="24" on="0"/>
        <pt x="278" y="26" on="0"/>
        <pt x="284" y="28" on="1"/>
        <pt x="326" y="41" on="0"/>
      </contour>
    </TTGlyph>
    <TTGlyph name="Yacute" xMin="20" yMin="-3" xMax="692" yMax="926">
      <component glyphName="acutecomb" x="594" y="264" flags="0x1004"/>
      <component glyphName="Y" x="0" y="0" flags="0x1004"/>
    </TTGlyph>
    <TTGlyph name="Ycircumflex" xMin="20" yMin="-3" xMax="692" yMax="912">
      <component glyphName="uni0302" x="594" y="264" flags="0x1004"/>
      <component glyphName="Y" x="0" y="0" flags="0x1004"/>
    </TTGlyph>
    <TTGlyph name="Ydieresis" xMin="20" yMin="-3" xMax="692" yMax="906">
      <component glyphName="uni0308" x="594" y="264" flags="0x1004"/>
      <component glyphName="Y" x="0" y="0" flags="0x1004"/>
    </TTGlyph>
    <TTGlyph name="Z" xMin="20" yMin="-2" xMax="543" yMax="708">
      <contour>
        <pt x="287" y="-1" on="1"/>
        <pt x="40" y="-2" on="1"/>
        <pt x="20" y="-2" on="0"/>
        <pt x="20" y="14" on="1"/>
        <pt x="20" y="20" on="0"/>
        <pt x="77" y="105" on="0"/>
        <pt x="124" y="189" on="0"/>
        <pt x="281" y="446" on="0"/>
        <pt x="393" y="635" on="0"/>
        <pt x="393" y="657" on="0"/>
        <pt x="315" y="657" on="0"/>
        <pt x="167" y="653" on="1"/>
        <pt x="135" y="652" on="0"/>
        <pt x="88" y="622" on="0"/>
        <pt x="69" y="587" on="0"/>
        <pt x="53" y="558" on="0"/>
        <pt x="48" y="558" on="1"/>
        <pt x="35" y="558" on="0"/>
        <pt x="35" y="594" on="0"/>
        <pt x="43" y="634" on="0"/>
        <pt x="43" y="645" on="0"/>
        <pt x="49" y="700" on="0"/>
        <pt x="61" y="708" on="0"/>
        <pt x="82" y="708" on="0"/>
        <pt x="110" y="707" on="1"/>
        <pt x="165" y="705" on="0"/>
        <pt x="292" y="705" on="1"/>
        <pt x="472" y="706" on="1"/>
        <pt x="515" y="706" on="0"/>
        <pt x="515" y="678" on="0"/>
        <pt x="148" y="74" on="0"/>
        <pt x="148" y="57" on="0"/>
        <pt x="164" y="48" on="0"/>
        <pt x="184" y="46" on="1"/>
        <pt x="216" y="44" on="0"/>
        <pt x="365" y="44" on="0"/>
        <pt x="455" y="55" on="0"/>
        <pt x="503" y="82" on="0"/>
        <pt x="520" y="100" on="0"/>
        <pt x="530" y="110" on="0"/>
        <pt x="535" y="110" on="1"/>
        <pt x="543" y="110" on="0"/>
        <pt x="543" y="81" on="0"/>
        <pt x="512" y="31" on="1"/>
        <pt x="510" y="28" on="0"/>
        <pt x="504" y="17" on="0"/>
        <pt x="502" y="15" on="1"/>
        <pt x="495" y="5" on="0"/>
        <pt x="492" y="4" on="1"/>
        <pt x="483" y="0" on="0"/>
        <pt x="470" y="0" on="1"/>
      </contour>
    </TTGlyph>
    <TTGlyph name="Zacute" xMin="20" yMin="-2" xMax="543" yMax="926">
      <component glyphName="acutecomb" x="494" y="264" flags="0x1004"/>
      <component glyphName="Z" x="0" y="0" flags="0x1004"/>
    </TTGlyph>
    <TTGlyph name="Zcaron" xMin="20" yMin="-2" xMax="543" yMax="912">
      <component glyphName="uni030C" x="494" y="264" flags="0x1004"/>
      <component glyphName="Z" x="0" y="0" flags="0x1004"/>
    </TTGlyph>
    <TTGlyph name="Zdotaccent" xMin="20" yMin="-2" xMax="543" yMax="909">
      <component glyphName="uni0307" x="494" y="264" flags="0x1004"/>
      <component glyphName="Z" x="0" y="0" flags="0x1004"/>
    </TTGlyph>
    <TTGlyph name="a" xMin="48" yMin="-15" xMax="441" yMax="434">
      <contour>
        <pt x="166" y="-15" on="1"/>
        <pt x="48" y="-15" on="0"/>
        <pt x="48" y="85" on="1"/>
        <pt x="48" y="157" on="0"/>
        <pt x="108" y="184" on="1"/>
        <pt x="158" y="205" on="0"/>
        <pt x="261" y="222" on="1"/>
        <pt x="264" y="223" on="0"/>
        <pt x="274" y="224" on="0"/>
        <pt x="285" y="226" on="0"/>
        <pt x="288" y="227" on="1"/>
        <pt x="295" y="230" on="0"/>
        <pt x="295" y="241" on="1"/>
        <pt x="297" y="293" on="1"/>
        <pt x="297" y="350" on="0"/>
        <pt x="231" y="401" on="0"/>
        <pt x="200" y="401" on="1"/>
        <pt x="128" y="401" on="0"/>
        <pt x="128" y="341" on="1"/>
        <pt x="132" y="305" on="1"/>
        <pt x="132" y="285" on="0"/>
        <pt x="114" y="285" on="1"/>
        <pt x="100" y="285" on="0"/>
        <pt x="83" y="290" on="1"/>
        <pt x="52" y="300" on="0"/>
        <pt x="52" y="324" on="1"/>
        <pt x="52" y="363" on="0"/>
        <pt x="157" y="434" on="0"/>
        <pt x="263" y="434" on="0"/>
        <pt x="323" y="414" on="0"/>
        <pt x="352" y="389" on="0"/>
        <pt x="360" y="368" on="1"/>
        <pt x="370" y="343" on="0"/>
        <pt x="370" y="236" on="0"/>
        <pt x="365" y="153" on="0"/>
        <pt x="365" y="85" on="0"/>
        <pt x="381" y="42" on="0"/>
        <pt x="403" y="30" on="0"/>
        <pt x="414" y="29" on="1"/>
        <pt x="441" y="27" on="0"/>
        <pt x="441" y="13" on="1"/>
        <pt x="441" y="-8" on="0"/>
        <pt x="378" y="-8" on="1"/>
        <pt x="352" y="-8" on="0"/>
        <pt x="315" y="20" on="0"/>
        <pt x="299" y="47" on="0"/>
        <pt x="297" y="47" on="0"/>
        <pt x="283" y="34" on="0"/>
        <pt x="258" y="16" on="0"/>
        <pt x="242" y="7" on="1"/>
        <pt x="205" y="-15" on="0"/>
      </contour>
      <contour>
        <pt x="288" y="208" on="1"/>
        <pt x="278" y="206" on="1"/>
        <pt x="255" y="202" on="0"/>
        <pt x="243" y="200" on="0"/>
        <pt x="199" y="190" on="0"/>
        <pt x="182" y="182" on="0"/>
        <pt x="151" y="165" on="0"/>
        <pt x="144" y="156" on="1"/>
        <pt x="126" y="128" on="0"/>
        <pt x="126" y="66" on="0"/>
        <pt x="166" y="25" on="0"/>
        <pt x="229" y="25" on="0"/>
        <pt x="266" y="41" on="0"/>
        <pt x="284" y="61" on="0"/>
        <pt x="289" y="78" on="1"/>
        <pt x="295" y="97" on="0"/>
        <pt x="295" y="127" on="1"/>
        <pt x="295" y="199" on="1"/>
        <pt x="295" y="208" on="0"/>
      </contour>
    </TTGlyph>
    <TTGlyph name="a.sc" xMin="20" yMin="-1" xMax="560" yMax="479">
      <contour>
        <pt x="114" y="3" on="1"/>
        <pt x="33" y="-1" on="1"/>
        <pt x="20" y="-1" on="0"/>
        <pt x="20" y="12" on="1"/>
        <pt x="20" y="20" on="0"/>
        <pt x="30" y="24" on="1"/>
        <pt x="66" y="38" on="0"/>
        <pt x="94" y="85" on="0"/>
        <pt x="111" y="124" on="0"/>
        <pt x="130" y="172" on="0"/>
        <pt x="235" y="404" on="0"/>
        <pt x="245" y="429" on="1"/>
        <pt x="264" y="479" on="0"/>
        <pt x="284" y="479" on="1"/>
        <pt x="297" y="479" on="0"/>
        <pt x="308" y="456" on="1"/>
        <pt x="310" y="451" on="0"/>
        <pt x="320" y="427" on="0"/>
        <pt x="336" y="393" on="0"/>
        <pt x="379" y="294" on="1"/>
        <pt x="472" y="81" on="0"/>
        <pt x="500" y="45" on="1"/>
        <pt x="504" y="40" on="0"/>
        <pt x="560" y="29" on="0"/>
        <pt x="560" y="16" on="1"/>
        <pt x="560" y="0" on="0"/>
        <pt x="538" y="0" on="1"/>
        <pt x="448" y="4" on="1"/>
        <pt x="365" y="0" on="1"/>
        <pt x="350" y="0" on="0"/>
        <pt x="350" y="12" on="1"/>
        <pt x="350" y="26" on="0"/>
        <pt x="376" y="26" on="1"/>
        <pt x="382" y="26" on="0"/>
        <pt x="393" y="42" on="0"/>
        <pt x="393" y="70" on="0"/>
        <pt x="356" y="159" on="0"/>
        <pt x="346" y="167" on="0"/>
        <pt x="339" y="167" on="1"/>
        <pt x="258" y="167" on="1"/>
        <pt x="204" y="166" on="1"/>
        <pt x="195" y="166" on="1"/>
        <pt x="180" y="166" on="0"/>
        <pt x="171" y="159" on="0"/>
        <pt x="138" y="90" on="0"/>
        <pt x="138" y="45" on="0"/>
        <pt x="177" y="26" on="0"/>
        <pt x="216" y="22" on="0"/>
        <pt x="216" y="12" on="1"/>
        <pt x="216" y="0" on="0"/>
        <pt x="188" y="0" on="1"/>
      </contour>
      <contour>
        <pt x="220" y="205" on="1"/>
        <pt x="326" y="207" on="1"/>
        <pt x="333" y="207" on="0"/>
        <pt x="333" y="225" on="0"/>
        <pt x="316" y="261" on="1"/>
        <pt x="300" y="295" on="1"/>
        <pt x="265" y="365" on="0"/>
        <pt x="258" y="365" on="1"/>
        <pt x="253" y="365" on="0"/>
        <pt x="191" y="224" on="0"/>
        <pt x="191" y="217" on="1"/>
        <pt x="191" y="205" on="0"/>
      </contour>
    </TTGlyph>
    <TTGlyph name="aacute" xMin="48" yMin="-15" xMax="441" yMax="662">
      <component glyphName="acutecomb" x="442" y="0" flags="0x1004"/>
      <component glyphName="a" x="0" y="0" flags="0x1004"/>
    </TTGlyph>
    <TTGlyph name="aacute.sc" xMin="20" yMin="-1" xMax="560" yMax="703">
      <component glyphName="acutecomb" x="500" y="41" flags="0x1004"/>
      <component glyphName="a.sc" x="0" y="0" flags="0x1004"/>
    </TTGlyph>
    <TTGlyph name="abreve" xMin="48" yMin="-15" xMax="441" yMax="630">
      <component glyphName="uni0306" x="442" y="0" flags="0x1004"/>
      <component glyphName="a" x="0" y="0" flags="0x1004"/>
    </TTGlyph>
    <TTGlyph name="abreve.sc" xMin="20" yMin="-1" xMax="560" yMax="671">
      <component glyphName="uni0306" x="500" y="41" flags="0x1004"/>
      <component glyphName="a.sc" x="0" y="0" flags="0x1004"/>
    </TTGlyph>
    <TTGlyph name="acircumflex" xMin="48" yMin="-15" xMax="441" yMax="648">
      <component glyphName="uni0302" x="442" y="0" flags="0x1004"/>
      <component glyphName="a" x="0" y="0" flags="0x1004"/>
    </TTGlyph>
    <TTGlyph name="acircumflex.sc" xMin="20" yMin="-1" xMax="560" yMax="689">
      <component glyphName="uni0302" x="500" y="41" flags="0x1004"/>
      <component glyphName="a.sc" x="0" y="0" flags="0x1004"/>
    </TTGlyph>
    <TTGlyph name="acute" xMin="181" yMin="480" xMax="329" yMax="662">
      <component glyphName="acutecomb" x="439" y="0" flags="0x1004"/>
    </TTGlyph>
    <TTGlyph name="acutecomb" xMin="-258" yMin="480" xMax="-110" yMax="662">
      <contour>
        <pt x="-258" y="491" on="1"/>
        <pt x="-258" y="496" on="0"/>
        <pt x="-251" y="506" on="1"/>
        <pt x="-219" y="554" on="0"/>
        <pt x="-183" y="643" on="1"/>
        <pt x="-175" y="662" on="0"/>
        <pt x="-151" y="662" on="0"/>
        <pt x="-110" y="649" on="0"/>
        <pt x="-110" y="636" on="1"/>
        <pt x="-110" y="613" on="0"/>
        <pt x="-207" y="511" on="1"/>
        <pt x="-236" y="480" on="0"/>
        <pt x="-258" y="480" on="0"/>
      </contour>
    </TTGlyph>
    <TTGlyph name="adieresis" xMin="48" yMin="-15" xMax="441" yMax="642">
      <component glyphName="uni0308" x="442" y="0" flags="0x1004"/>
      <component glyphName="a" x="0" y="0" flags="0x1004"/>
    </TTGlyph>
    <TTGlyph name="adieresis.sc" xMin="20" yMin="-1" xMax="560" yMax="683">
      <component glyphName="uni0308" x="500" y="41" flags="0x1004"/>
      <component glyphName="a.sc" x="0" y="0" flags="0x1004"/>
    </TTGlyph>
    <TTGlyph name="ae" xMin="48" yMin="-19" xMax="684" yMax="434">
      <contour>
        <pt x="166" y="-15" on="1"/>
        <pt x="48" y="-15" on="0"/>
        <pt x="48" y="85" on="1"/>
        <pt x="48" y="156" on="0"/>
        <pt x="108" y="184" on="1"/>
        <pt x="154" y="204" on="0"/>
        <pt x="271" y="224" on="0"/>
        <pt x="292" y="228" on="0"/>
        <pt x="297" y="245" on="0"/>
        <pt x="297" y="332" on="0"/>
        <pt x="278" y="358" on="1"/>
        <pt x="248" y="401" on="0"/>
        <pt x="200" y="401" on="1"/>
        <pt x="128" y="401" on="0"/>
        <pt x="128" y="341" on="1"/>
        <pt x="132" y="305" on="1"/>
        <pt x="132" y="285" on="0"/>
        <pt x="114" y="285" on="1"/>
        <pt x="100" y="285" on="0"/>
        <pt x="83" y="290" on="1"/>
        <pt x="52" y="300" on="0"/>
        <pt x="52" y="324" on="1"/>
        <pt x="52" y="363" on="0"/>
        <pt x="157" y="434" on="0"/>
        <pt x="220" y="434" on="1"/>
        <pt x="308" y="434" on="0"/>
        <pt x="342" y="396" on="1"/>
        <pt x="350" y="387" on="0"/>
        <pt x="358" y="375" on="0"/>
        <pt x="361" y="375" on="0"/>
        <pt x="374" y="387" on="0"/>
        <pt x="397" y="404" on="0"/>
        <pt x="412" y="412" on="1"/>
        <pt x="451" y="432" on="0"/>
        <pt x="541" y="432" on="0"/>
        <pt x="610" y="402" on="0"/>
        <pt x="648" y="359" on="0"/>
        <pt x="661" y="335" on="1"/>
        <pt x="683" y="294" on="0"/>
        <pt x="683" y="273" on="1"/>
        <pt x="683" y="255" on="0"/>
        <pt x="642" y="255" on="1"/>
        <pt x="385" y="255" on="1"/>
        <pt x="377" y="255" on="0"/>
        <pt x="374" y="252" on="0"/>
        <pt x="374" y="244" on="1"/>
        <pt x="374" y="150" on="0"/>
        <pt x="475" y="42" on="0"/>
        <pt x="542" y="42" on="1"/>
        <pt x="584" y="42" on="0"/>
        <pt x="672" y="87" on="0"/>
        <pt x="674" y="87" on="1"/>
        <pt x="684" y="87" on="0"/>
        <pt x="684" y="78" on="1"/>
        <pt x="684" y="66" on="0"/>
        <pt x="640" y="25" on="0"/>
        <pt x="620" y="12" on="1"/>
        <pt x="572" y="-19" on="0"/>
        <pt x="507" y="-19" on="1"/>
        <pt x="433" y="-19" on="0"/>
        <pt x="388" y="12" on="1"/>
        <pt x="355" y="35" on="0"/>
        <pt x="328" y="69" on="0"/>
        <pt x="326" y="69" on="0"/>
        <pt x="313" y="52" on="0"/>
        <pt x="289" y="27" on="0"/>
        <pt x="272" y="14" on="1"/>
        <pt x="232" y="-15" on="0"/>
      </contour>
      <contour>
        <pt x="126" y="100" on="1"/>
        <pt x="126" y="66" on="0"/>
        <pt x="166" y="25" on="0"/>
        <pt x="229" y="25" on="0"/>
        <pt x="266" y="41" on="0"/>
        <pt x="284" y="61" on="0"/>
        <pt x="289" y="78" on="1"/>
        <pt x="295" y="97" on="0"/>
        <pt x="295" y="127" on="1"/>
        <pt x="295" y="199" on="1"/>
        <pt x="295" y="208" on="0"/>
        <pt x="291" y="208" on="1"/>
        <pt x="227" y="200" on="0"/>
        <pt x="190" y="185" on="1"/>
        <pt x="126" y="158" on="0"/>
      </contour>
      <contour>
        <pt x="393" y="279" on="1"/>
        <pt x="569" y="285" on="1"/>
        <pt x="583" y="285" on="0"/>
        <pt x="590" y="290" on="0"/>
        <pt x="590" y="297" on="1"/>
        <pt x="590" y="327" on="0"/>
        <pt x="534" y="407" on="0"/>
        <pt x="434" y="407" on="0"/>
        <pt x="380" y="328" on="0"/>
        <pt x="380" y="293" on="1"/>
        <pt x="380" y="279" on="0"/>
      </contour>
    </TTGlyph>
    <TTGlyph name="ae.sc" xMin="20" yMin="-9" xMax="705" yMax="463">
      <contour>
        <pt x="113" y="3" on="1"/>
        <pt x="31" y="-1" on="1"/>
        <pt x="20" y="-1" on="0"/>
        <pt x="20" y="7" on="1"/>
        <pt x="20" y="18" on="0"/>
        <pt x="39" y="27" on="0"/>
        <pt x="76" y="46" on="0"/>
        <pt x="107" y="86" on="0"/>
        <pt x="118" y="104" on="1"/>
        <pt x="133" y="126" on="0"/>
        <pt x="170" y="189" on="1"/>
        <pt x="294" y="392" on="1"/>
        <pt x="301" y="404" on="0"/>
        <pt x="301" y="412" on="1"/>
        <pt x="301" y="428" on="0"/>
        <pt x="244" y="436" on="0"/>
        <pt x="244" y="449" on="1"/>
        <pt x="244" y="460" on="0"/>
        <pt x="264" y="460" on="1"/>
        <pt x="333" y="461" on="1"/>
        <pt x="333" y="461" on="0"/>
        <pt x="516" y="459" on="1"/>
        <pt x="640" y="463" on="1"/>
        <pt x="666" y="463" on="0"/>
        <pt x="666" y="447" on="1"/>
        <pt x="666" y="421" on="1"/>
        <pt x="667" y="363" on="1"/>
        <pt x="667" y="349" on="0"/>
        <pt x="652" y="349" on="1"/>
        <pt x="639" y="349" on="0"/>
        <pt x="637" y="381" on="0"/>
        <pt x="634" y="387" on="1"/>
        <pt x="618" y="418" on="0"/>
        <pt x="511" y="418" on="1"/>
        <pt x="464" y="418" on="0"/>
        <pt x="448" y="404" on="0"/>
        <pt x="448" y="376" on="1"/>
        <pt x="448" y="317" on="1"/>
        <pt x="447" y="300" on="1"/>
        <pt x="447" y="298" on="1"/>
        <pt x="447" y="274" on="0"/>
        <pt x="461" y="263" on="0"/>
        <pt x="542" y="263" on="0"/>
        <pt x="580" y="279" on="0"/>
        <pt x="594" y="308" on="1"/>
        <pt x="594" y="314" on="0"/>
        <pt x="604" y="325" on="0"/>
        <pt x="610" y="325" on="1"/>
        <pt x="620" y="325" on="0"/>
        <pt x="620" y="313" on="1"/>
        <pt x="618" y="241" on="1"/>
        <pt x="622" y="176" on="1"/>
        <pt x="622" y="158" on="0"/>
        <pt x="610" y="158" on="1"/>
        <pt x="603" y="158" on="0"/>
        <pt x="583" y="209" on="0"/>
        <pt x="552" y="227" on="0"/>
        <pt x="516" y="227" on="1"/>
        <pt x="486" y="227" on="1"/>
        <pt x="451" y="227" on="0"/>
        <pt x="451" y="209" on="1"/>
        <pt x="450" y="100" on="1"/>
        <pt x="450" y="80" on="0"/>
        <pt x="455" y="57" on="0"/>
        <pt x="481" y="38" on="0"/>
        <pt x="559" y="38" on="0"/>
        <pt x="639" y="57" on="0"/>
        <pt x="670" y="80" on="0"/>
        <pt x="692" y="99" on="0"/>
        <pt x="696" y="99" on="1"/>
        <pt x="705" y="99" on="0"/>
        <pt x="705" y="91" on="1"/>
        <pt x="705" y="63" on="0"/>
        <pt x="649" y="-9" on="0"/>
        <pt x="611" y="-9" on="1"/>
        <pt x="594" y="-9" on="0"/>
        <pt x="484" y="3" on="0"/>
        <pt x="434" y="3" on="1"/>
        <pt x="336" y="-1" on="1"/>
        <pt x="330" y="-1" on="0"/>
        <pt x="318" y="7" on="0"/>
        <pt x="318" y="25" on="0"/>
        <pt x="336" y="32" on="0"/>
        <pt x="357" y="35" on="0"/>
        <pt x="375" y="60" on="0"/>
        <pt x="375" y="84" on="1"/>
        <pt x="375" y="151" on="1"/>
        <pt x="375" y="164" on="0"/>
        <pt x="374" y="167" on="0"/>
        <pt x="348" y="167" on="1"/>
        <pt x="292" y="167" on="1"/>
        <pt x="234" y="166" on="1"/>
        <pt x="223" y="166" on="1"/>
        <pt x="208" y="166" on="0"/>
        <pt x="197" y="159" on="0"/>
        <pt x="171" y="120" on="0"/>
        <pt x="166" y="112" on="1"/>
        <pt x="150" y="84" on="0"/>
        <pt x="150" y="45" on="0"/>
        <pt x="168" y="28" on="0"/>
        <pt x="180" y="27" on="1"/>
        <pt x="209" y="24" on="0"/>
        <pt x="209" y="14" on="1"/>
        <pt x="209" y="0" on="0"/>
        <pt x="186" y="0" on="1"/>
      </contour>
      <contour>
        <pt x="376" y="223" on="1"/>
        <pt x="379" y="399" on="1"/>
        <pt x="379" y="413" on="0"/>
        <pt x="373" y="423" on="0"/>
        <pt x="355" y="423" on="0"/>
        <pt x="343" y="406" on="1"/>
        <pt x="231" y="231" on="0"/>
        <pt x="231" y="218" on="1"/>
        <pt x="231" y="208" on="0"/>
        <pt x="255" y="208" on="1"/>
        <pt x="361" y="209" on="1"/>
        <pt x="371" y="209" on="0"/>
        <pt x="376" y="213" on="0"/>
      </contour>
    </TTGlyph>
    <TTGlyph name="afii00208" xMin="0" yMin="185" xMax="1000" yMax="238">
      <component glyphName="emdash" x="0" y="0" flags="0x1004"/>
    </TTGlyph>
    <TTGlyph name="afii00208.uppercase" xMin="0" yMin="307" xMax="1000" yMax="360">
      <component glyphName="emdash" x="0" y="122" flags="0x1004"/>
    </TTGlyph>
    <TTGlyph name="afii57929" xMin="170" yMin="586" xMax="272" yMax="743">
      <component glyphName="uni0315" x="439" y="0" flags="0x1004"/>
    </TTGlyph>
    <TTGlyph name="agrave" xMin="48" yMin="-15" xMax="441" yMax="662">
      <component glyphName="gravecomb" x="442" y="0" flags="0x1004"/>
      <component glyphName="a" x="0" y="0" flags="0x1004"/>
    </TTGlyph>
    <TTGlyph name="agrave.sc" xMin="20" yMin="-1" xMax="560" yMax="703">
      <component glyphName="gravecomb" x="500" y="41" flags="0x1004"/>
      <component glyphName="a.sc" x="0" y="0" flags="0x1004"/>
    </TTGlyph>
    <TTGlyph name="amacron" xMin="48" yMin="-15" xMax="441" yMax="608">
      <component glyphName="uni0304" x="442" y="0" flags="0x1004"/>
      <component glyphName="a" x="0" y="0" flags="0x1004"/>
    </TTGlyph>
    <TTGlyph name="amacron.sc" xMin="20" yMin="-1" xMax="560" yMax="649">
      <component glyphName="uni0304" x="500" y="41" flags="0x1004"/>
      <component glyphName="a.sc" x="0" y="0" flags="0x1004"/>
    </TTGlyph>
    <TTGlyph name="ampersand" xMin="59" yMin="-22" xMax="942" yMax="704">
      <contour>
        <pt x="893" y="25" on="1"/>
        <pt x="929" y="28" on="1"/>
        <pt x="942" y="28" on="0"/>
        <pt x="942" y="19" on="1"/>
        <pt x="942" y="3" on="0"/>
        <pt x="885" y="-19" on="0"/>
        <pt x="806" y="-19" on="0"/>
        <pt x="734" y="2" on="0"/>
        <pt x="684" y="31" on="0"/>
        <pt x="646" y="61" on="0"/>
        <pt x="623" y="82" on="0"/>
        <pt x="617" y="82" on="0"/>
        <pt x="594" y="61" on="0"/>
        <pt x="556" y="30" on="0"/>
        <pt x="529" y="14" on="1"/>
        <pt x="465" y="-22" on="0"/>
        <pt x="358" y="-22" on="1"/>
        <pt x="287" y="-22" on="0"/>
        <pt x="173" y="19" on="0"/>
        <pt x="106" y="73" on="0"/>
        <pt x="59" y="175" on="0"/>
        <pt x="59" y="242" on="1"/>
        <pt x="59" y="276" on="0"/>
        <pt x="82" y="349" on="0"/>
        <pt x="123" y="400" on="0"/>
        <pt x="184" y="432" on="0"/>
        <pt x="221" y="440" on="0"/>
        <pt x="221" y="445" on="0"/>
        <pt x="197" y="474" on="0"/>
        <pt x="173" y="533" on="0"/>
        <pt x="173" y="571" on="1"/>
        <pt x="173" y="637" on="0"/>
        <pt x="289" y="704" on="0"/>
        <pt x="361" y="704" on="1"/>
        <pt x="396" y="704" on="0"/>
        <pt x="458" y="681" on="0"/>
        <pt x="462" y="681" on="1"/>
        <pt x="484" y="684" on="1"/>
        <pt x="500" y="684" on="0"/>
        <pt x="500" y="661" on="1"/>
        <pt x="504" y="593" on="1"/>
        <pt x="504" y="564" on="0"/>
        <pt x="501" y="552" on="0"/>
        <pt x="487" y="552" on="0"/>
        <pt x="457" y="588" on="0"/>
        <pt x="423" y="631" on="0"/>
        <pt x="366" y="667" on="0"/>
        <pt x="289" y="667" on="0"/>
        <pt x="243" y="618" on="0"/>
        <pt x="243" y="565" on="0"/>
        <pt x="298" y="486" on="0"/>
        <pt x="355" y="426" on="0"/>
        <pt x="482" y="299" on="0"/>
        <pt x="622" y="179" on="0"/>
        <pt x="637" y="179" on="0"/>
        <pt x="643" y="188" on="1"/>
        <pt x="657" y="207" on="0"/>
        <pt x="657" y="300" on="0"/>
        <pt x="636" y="345" on="0"/>
        <pt x="620" y="356" on="0"/>
        <pt x="593" y="369" on="0"/>
        <pt x="572" y="371" on="0"/>
        <pt x="562" y="376" on="0"/>
        <pt x="562" y="391" on="0"/>
        <pt x="571" y="395" on="0"/>
        <pt x="587" y="395" on="1"/>
        <pt x="736" y="393" on="1"/>
        <pt x="755" y="393" on="0"/>
        <pt x="755" y="380" on="1"/>
        <pt x="755" y="369" on="0"/>
        <pt x="736" y="364" on="1"/>
        <pt x="729" y="362" on="0"/>
        <pt x="716" y="342" on="0"/>
        <pt x="714" y="312" on="0"/>
        <pt x="712" y="297" on="1"/>
        <pt x="706" y="234" on="0"/>
        <pt x="685" y="182" on="0"/>
        <pt x="670" y="152" on="0"/>
        <pt x="670" y="149" on="1"/>
        <pt x="670" y="140" on="0"/>
        <pt x="789" y="65" on="0"/>
        <pt x="850" y="35" on="1"/>
        <pt x="870" y="25" on="0"/>
      </contour>
      <contour>
        <pt x="192" y="128" on="1"/>
        <pt x="224" y="92" on="0"/>
        <pt x="340" y="45" on="0"/>
        <pt x="455" y="45" on="0"/>
        <pt x="538" y="74" on="0"/>
        <pt x="580" y="103" on="0"/>
        <pt x="580" y="109" on="1"/>
        <pt x="580" y="113" on="0"/>
        <pt x="528" y="152" on="0"/>
        <pt x="408" y="254" on="0"/>
        <pt x="370" y="292" on="1"/>
        <pt x="318" y="344" on="0"/>
        <pt x="260" y="402" on="0"/>
        <pt x="251" y="412" on="0"/>
        <pt x="245" y="416" on="0"/>
        <pt x="242" y="418" on="1"/>
        <pt x="239" y="421" on="0"/>
        <pt x="234" y="421" on="1"/>
        <pt x="201" y="421" on="0"/>
        <pt x="125" y="337" on="0"/>
        <pt x="125" y="203" on="0"/>
      </contour>
    </TTGlyph>
    <TTGlyph name="ampersand.sc" xMin="20" yMin="-24" xMax="638" yMax="453">
      <contour>
        <pt x="597" y="35" on="1"/>
        <pt x="631" y="39" on="1"/>
        <pt x="638" y="39" on="0"/>
        <pt x="638" y="34" on="1"/>
        <pt x="638" y="18" on="0"/>
        <pt x="574" y="-14" on="0"/>
        <pt x="500" y="-14" on="0"/>
        <pt x="439" y="3" on="0"/>
        <pt x="409" y="21" on="0"/>
        <pt x="405" y="21" on="0"/>
        <pt x="371" y="-1" on="0"/>
        <pt x="300" y="-24" on="0"/>
        <pt x="233" y="-24" on="0"/>
        <pt x="188" y="-19" on="0"/>
        <pt x="116" y="2" on="0"/>
        <pt x="61" y="38" on="0"/>
        <pt x="20" y="109" on="0"/>
        <pt x="20" y="186" on="0"/>
        <pt x="40" y="234" on="0"/>
        <pt x="54" y="248" on="1"/>
        <pt x="84" y="275" on="0"/>
        <pt x="108" y="282" on="1"/>
        <pt x="118" y="285" on="1"/>
        <pt x="118" y="286" on="0"/>
        <pt x="104" y="327" on="0"/>
        <pt x="104" y="404" on="0"/>
        <pt x="175" y="453" on="0"/>
        <pt x="223" y="453" on="1"/>
        <pt x="245" y="453" on="0"/>
        <pt x="323" y="433" on="0"/>
        <pt x="326" y="433" on="1"/>
        <pt x="346" y="439" on="1"/>
        <pt x="359" y="439" on="0"/>
        <pt x="359" y="406" on="1"/>
        <pt x="359" y="390" on="0"/>
        <pt x="362" y="342" on="1"/>
        <pt x="362" y="323" on="0"/>
        <pt x="346" y="323" on="0"/>
        <pt x="337" y="339" on="0"/>
        <pt x="323" y="369" on="0"/>
        <pt x="312" y="379" on="1"/>
        <pt x="273" y="418" on="0"/>
        <pt x="221" y="418" on="1"/>
        <pt x="187" y="418" on="0"/>
        <pt x="167" y="394" on="0"/>
        <pt x="167" y="374" on="1"/>
        <pt x="167" y="335" on="0"/>
        <pt x="290" y="196" on="0"/>
        <pt x="417" y="94" on="0"/>
        <pt x="430" y="94" on="1"/>
        <pt x="453" y="94" on="0"/>
        <pt x="453" y="156" on="1"/>
        <pt x="453" y="172" on="0"/>
        <pt x="446" y="184" on="1"/>
        <pt x="435" y="202" on="0"/>
        <pt x="425" y="205" on="1"/>
        <pt x="417" y="208" on="0"/>
        <pt x="388" y="210" on="0"/>
        <pt x="373" y="215" on="0"/>
        <pt x="373" y="230" on="0"/>
        <pt x="381" y="233" on="0"/>
        <pt x="395" y="233" on="1"/>
        <pt x="455" y="233" on="1"/>
        <pt x="517" y="235" on="1"/>
        <pt x="531" y="235" on="0"/>
        <pt x="531" y="224" on="1"/>
        <pt x="531" y="218" on="0"/>
        <pt x="511" y="207" on="1"/>
        <pt x="504" y="204" on="0"/>
        <pt x="498" y="148" on="0"/>
        <pt x="480" y="108" on="0"/>
        <pt x="464" y="82" on="0"/>
        <pt x="464" y="81" on="1"/>
        <pt x="464" y="67" on="0"/>
        <pt x="556" y="35" on="0"/>
      </contour>
      <contour>
        <pt x="78" y="193" on="1"/>
        <pt x="78" y="134" on="0"/>
        <pt x="214" y="21" on="0"/>
        <pt x="302" y="21" on="1"/>
        <pt x="332" y="21" on="0"/>
        <pt x="374" y="38" on="0"/>
        <pt x="374" y="45" on="0"/>
        <pt x="351" y="61" on="1"/>
        <pt x="261" y="123" on="0"/>
        <pt x="191" y="197" on="1"/>
        <pt x="163" y="226" on="0"/>
        <pt x="131" y="269" on="0"/>
        <pt x="128" y="269" on="1"/>
        <pt x="115" y="269" on="0"/>
        <pt x="78" y="226" on="0"/>
      </contour>
    </TTGlyph>
    <TTGlyph name="aogonek" xMin="48" yMin="-204" xMax="441" yMax="434">
      <contour>
        <pt x="166" y="-15" on="1"/>
        <pt x="48" y="-15" on="0"/>
        <pt x="48" y="85" on="1"/>
        <pt x="48" y="157" on="0"/>
        <pt x="108" y="184" on="1"/>
        <pt x="158" y="205" on="0"/>
        <pt x="261" y="222" on="1"/>
        <pt x="264" y="223" on="0"/>
        <pt x="274" y="224" on="0"/>
        <pt x="285" y="226" on="0"/>
        <pt x="288" y="227" on="1"/>
        <pt x="295" y="230" on="0"/>
        <pt x="295" y="241" on="1"/>
        <pt x="297" y="293" on="1"/>
        <pt x="297" y="350" on="0"/>
        <pt x="231" y="401" on="0"/>
        <pt x="200" y="401" on="1"/>
        <pt x="128" y="401" on="0"/>
        <pt x="128" y="341" on="1"/>
        <pt x="132" y="305" on="1"/>
        <pt x="132" y="285" on="0"/>
        <pt x="114" y="285" on="1"/>
        <pt x="100" y="285" on="0"/>
        <pt x="83" y="290" on="1"/>
        <pt x="52" y="300" on="0"/>
        <pt x="52" y="324" on="1"/>
        <pt x="52" y="363" on="0"/>
        <pt x="157" y="434" on="0"/>
        <pt x="263" y="434" on="0"/>
        <pt x="323" y="414" on="0"/>
        <pt x="352" y="389" on="0"/>
        <pt x="360" y="368" on="1"/>
        <pt x="370" y="343" on="0"/>
        <pt x="370" y="236" on="0"/>
        <pt x="365" y="153" on="0"/>
        <pt x="365" y="85" on="0"/>
        <pt x="381" y="42" on="0"/>
        <pt x="403" y="30" on="0"/>
        <pt x="425" y="28" on="0"/>
        <pt x="441" y="22" on="0"/>
        <pt x="441" y="4" on="0"/>
        <pt x="426" y="-4" on="0"/>
        <pt x="388" y="-13" on="0"/>
        <pt x="377" y="-17" on="1"/>
        <pt x="300" y="-47" on="0"/>
        <pt x="300" y="-102" on="1"/>
        <pt x="300" y="-130" on="0"/>
        <pt x="330" y="-166" on="0"/>
        <pt x="365" y="-166" on="0"/>
        <pt x="397" y="-140" on="0"/>
        <pt x="405" y="-140" on="0"/>
        <pt x="405" y="-160" on="0"/>
        <pt x="348" y="-204" on="0"/>
        <pt x="280" y="-204" on="0"/>
        <pt x="240" y="-154" on="0"/>
        <pt x="240" y="-83" on="0"/>
        <pt x="298" y="-31" on="0"/>
        <pt x="328" y="-19" on="1"/>
        <pt x="357" y="-7" on="1"/>
        <pt x="357" y="-5" on="0"/>
        <pt x="334" y="4" on="0"/>
        <pt x="310" y="29" on="0"/>
        <pt x="299" y="47" on="0"/>
        <pt x="297" y="47" on="0"/>
        <pt x="283" y="34" on="0"/>
        <pt x="258" y="16" on="0"/>
        <pt x="242" y="7" on="1"/>
        <pt x="205" y="-15" on="0"/>
      </contour>
      <contour>
        <pt x="288" y="208" on="1"/>
        <pt x="278" y="206" on="1"/>
        <pt x="255" y="202" on="0"/>
        <pt x="243" y="200" on="0"/>
        <pt x="199" y="190" on="0"/>
        <pt x="182" y="182" on="0"/>
        <pt x="151" y="165" on="0"/>
        <pt x="144" y="156" on="1"/>
        <pt x="126" y="128" on="0"/>
        <pt x="126" y="66" on="0"/>
        <pt x="166" y="25" on="0"/>
        <pt x="229" y="25" on="0"/>
        <pt x="266" y="41" on="0"/>
        <pt x="284" y="61" on="0"/>
        <pt x="289" y="78" on="1"/>
        <pt x="295" y="97" on="0"/>
        <pt x="295" y="127" on="1"/>
        <pt x="295" y="199" on="1"/>
        <pt x="295" y="208" on="0"/>
      </contour>
    </TTGlyph>
    <TTGlyph name="aogonek.sc" xMin="20" yMin="-204" xMax="560" yMax="479">
      <contour>
        <pt x="114" y="3" on="1"/>
        <pt x="33" y="-1" on="1"/>
        <pt x="20" y="-1" on="0"/>
        <pt x="20" y="12" on="1"/>
        <pt x="20" y="19" on="0"/>
        <pt x="30" y="24" on="0"/>
        <pt x="34" y="26" on="1"/>
        <pt x="68" y="41" on="0"/>
        <pt x="94" y="85" on="0"/>
        <pt x="111" y="124" on="0"/>
        <pt x="130" y="172" on="0"/>
        <pt x="235" y="404" on="0"/>
        <pt x="245" y="429" on="1"/>
        <pt x="264" y="479" on="0"/>
        <pt x="284" y="479" on="1"/>
        <pt x="297" y="479" on="0"/>
        <pt x="308" y="456" on="1"/>
        <pt x="310" y="451" on="0"/>
        <pt x="320" y="427" on="0"/>
        <pt x="339" y="387" on="0"/>
        <pt x="380" y="293" on="1"/>
        <pt x="469" y="85" on="0"/>
        <pt x="500" y="45" on="1"/>
        <pt x="504" y="40" on="0"/>
        <pt x="560" y="29" on="0"/>
        <pt x="560" y="16" on="1"/>
        <pt x="560" y="0" on="0"/>
        <pt x="538" y="0" on="1"/>
        <pt x="468" y="3" on="1"/>
        <pt x="403" y="3" on="0"/>
        <pt x="349" y="-58" on="0"/>
        <pt x="349" y="-104" on="1"/>
        <pt x="349" y="-121" on="0"/>
        <pt x="379" y="-164" on="0"/>
        <pt x="421" y="-164" on="0"/>
        <pt x="452" y="-139" on="0"/>
        <pt x="456" y="-139" on="1"/>
        <pt x="463" y="-139" on="0"/>
        <pt x="463" y="-160" on="0"/>
        <pt x="404" y="-204" on="0"/>
        <pt x="328" y="-204" on="0"/>
        <pt x="286" y="-145" on="0"/>
        <pt x="286" y="-94" on="0"/>
        <pt x="308" y="-48" on="0"/>
        <pt x="340" y="-17" on="0"/>
        <pt x="356" y="-4" on="1"/>
        <pt x="393" y="27" on="0"/>
        <pt x="393" y="54" on="1"/>
        <pt x="393" y="70" on="0"/>
        <pt x="356" y="159" on="0"/>
        <pt x="346" y="167" on="0"/>
        <pt x="339" y="167" on="1"/>
        <pt x="258" y="167" on="1"/>
        <pt x="204" y="166" on="1"/>
        <pt x="195" y="166" on="1"/>
        <pt x="180" y="166" on="0"/>
        <pt x="171" y="159" on="0"/>
        <pt x="138" y="90" on="0"/>
        <pt x="138" y="74" on="1"/>
        <pt x="138" y="34" on="0"/>
        <pt x="182" y="28" on="1"/>
        <pt x="188" y="28" on="0"/>
        <pt x="194" y="26" on="0"/>
        <pt x="200" y="25" on="0"/>
        <pt x="203" y="24" on="0"/>
        <pt x="208" y="23" on="0"/>
        <pt x="211" y="21" on="0"/>
        <pt x="213" y="19" on="0"/>
        <pt x="214" y="18" on="1"/>
        <pt x="216" y="16" on="0"/>
        <pt x="216" y="12" on="1"/>
        <pt x="216" y="0" on="0"/>
        <pt x="188" y="0" on="1"/>
      </contour>
      <contour>
        <pt x="220" y="205" on="1"/>
        <pt x="326" y="207" on="1"/>
        <pt x="333" y="207" on="0"/>
        <pt x="333" y="225" on="0"/>
        <pt x="316" y="261" on="1"/>
        <pt x="300" y="295" on="1"/>
        <pt x="265" y="365" on="0"/>
        <pt x="258" y="365" on="1"/>
        <pt x="253" y="365" on="0"/>
        <pt x="191" y="224" on="0"/>
        <pt x="191" y="217" on="1"/>
        <pt x="191" y="205" on="0"/>
      </contour>
    </TTGlyph>
    <TTGlyph name="aring" xMin="48" yMin="-15" xMax="441" yMax="668">
      <component glyphName="uni030A" x="442" y="0" flags="0x1004"/>
      <component glyphName="a" x="0" y="0" flags="0x1004"/>
    </TTGlyph>
    <TTGlyph name="aring.sc" xMin="20" yMin="-1" xMax="560" yMax="709">
      <component glyphName="uni030A" x="500" y="41" flags="0x1004"/>
      <component glyphName="a.sc" x="0" y="0" flags="0x1004"/>
    </TTGlyph>
    <TTGlyph name="asciicircum" xMin="29" yMin="321" xMax="293" yMax="521">
      <contour>
        <pt x="29" y="331" on="1"/>
        <pt x="29" y="336" on="0"/>
        <pt x="56" y="380" on="0"/>
        <pt x="120" y="488" on="0"/>
        <pt x="146" y="521" on="0"/>
        <pt x="179" y="521" on="0"/>
        <pt x="204" y="488" on="0"/>
        <pt x="267" y="381" on="0"/>
        <pt x="293" y="339" on="0"/>
        <pt x="293" y="329" on="1"/>
        <pt x="293" y="321" on="0"/>
        <pt x="275" y="321" on="1"/>
        <pt x="260" y="321" on="1"/>
        <pt x="249" y="321" on="0"/>
        <pt x="245" y="327" on="1"/>
        <pt x="239" y="336" on="1"/>
        <pt x="233" y="345" on="0"/>
        <pt x="230" y="354" on="1"/>
        <pt x="219" y="372" on="0"/>
        <pt x="200" y="411" on="0"/>
        <pt x="189" y="430" on="0"/>
        <pt x="183" y="442" on="0"/>
        <pt x="176" y="454" on="0"/>
        <pt x="171" y="460" on="0"/>
        <pt x="167" y="466" on="0"/>
        <pt x="164" y="468" on="0"/>
        <pt x="160" y="468" on="0"/>
        <pt x="155" y="464" on="0"/>
        <pt x="149" y="455" on="0"/>
        <pt x="142" y="444" on="0"/>
        <pt x="131" y="423" on="0"/>
        <pt x="120" y="403" on="0"/>
        <pt x="102" y="369" on="0"/>
        <pt x="93" y="352" on="0"/>
        <pt x="87" y="341" on="0"/>
        <pt x="85" y="337" on="0"/>
        <pt x="79" y="328" on="0"/>
        <pt x="76" y="326" on="1"/>
        <pt x="69" y="322" on="0"/>
        <pt x="63" y="322" on="1"/>
        <pt x="49" y="322" on="1"/>
        <pt x="29" y="322" on="0"/>
      </contour>
    </TTGlyph>
    <TTGlyph name="asciitilde" xMin="29" yMin="156" xMax="351" yMax="269">
      <contour>
        <pt x="29" y="172" on="1"/>
        <pt x="29" y="176" on="0"/>
        <pt x="57" y="219" on="0"/>
        <pt x="109" y="265" on="0"/>
        <pt x="157" y="265" on="0"/>
        <pt x="228" y="220" on="0"/>
        <pt x="272" y="220" on="0"/>
        <pt x="307" y="244" on="0"/>
        <pt x="327" y="269" on="0"/>
        <pt x="331" y="269" on="1"/>
        <pt x="351" y="269" on="0"/>
        <pt x="351" y="254" on="1"/>
        <pt x="351" y="249" on="0"/>
        <pt x="321" y="208" on="0"/>
        <pt x="263" y="164" on="0"/>
        <pt x="206" y="164" on="0"/>
        <pt x="141" y="210" on="0"/>
        <pt x="101" y="210" on="0"/>
        <pt x="69" y="183" on="0"/>
        <pt x="52" y="156" on="0"/>
        <pt x="49" y="156" on="1"/>
        <pt x="29" y="156" on="0"/>
      </contour>
    </TTGlyph>
    <TTGlyph name="asterisk" xMin="59" yMin="282" xMax="373" yMax="614">
      <contour>
        <pt x="184" y="306" on="1"/>
        <pt x="187" y="378" on="1"/>
        <pt x="187" y="401" on="0"/>
        <pt x="178" y="401" on="0"/>
        <pt x="97" y="348" on="0"/>
        <pt x="78" y="348" on="0"/>
        <pt x="59" y="374" on="0"/>
        <pt x="59" y="383" on="1"/>
        <pt x="59" y="396" on="0"/>
        <pt x="167" y="444" on="0"/>
        <pt x="167" y="451" on="0"/>
        <pt x="59" y="501" on="0"/>
        <pt x="59" y="513" on="1"/>
        <pt x="59" y="522" on="0"/>
        <pt x="78" y="548" on="0"/>
        <pt x="100" y="548" on="0"/>
        <pt x="178" y="495" on="0"/>
        <pt x="187" y="495" on="0"/>
        <pt x="187" y="514" on="1"/>
        <pt x="184" y="593" on="1"/>
        <pt x="184" y="606" on="0"/>
        <pt x="194" y="614" on="0"/>
        <pt x="234" y="614" on="0"/>
        <pt x="247" y="602" on="0"/>
        <pt x="247" y="578" on="1"/>
        <pt x="243" y="513" on="1"/>
        <pt x="243" y="495" on="0"/>
        <pt x="253" y="495" on="0"/>
        <pt x="334" y="549" on="0"/>
        <pt x="352" y="549" on="0"/>
        <pt x="373" y="524" on="0"/>
        <pt x="373" y="502" on="0"/>
        <pt x="264" y="452" on="0"/>
        <pt x="264" y="443" on="0"/>
        <pt x="373" y="395" on="0"/>
        <pt x="373" y="373" on="0"/>
        <pt x="353" y="348" on="0"/>
        <pt x="330" y="348" on="0"/>
        <pt x="252" y="401" on="0"/>
        <pt x="244" y="401" on="0"/>
        <pt x="244" y="382" on="1"/>
        <pt x="247" y="324" on="1"/>
        <pt x="247" y="295" on="0"/>
        <pt x="236" y="282" on="0"/>
        <pt x="184" y="282" on="0"/>
      </contour>
    </TTGlyph>
    <TTGlyph name="at" xMin="44" yMin="-64" xMax="777" yMax="697">
      <contour>
        <pt x="44" y="286" on="1"/>
        <pt x="44" y="382" on="0"/>
        <pt x="109" y="534" on="0"/>
        <pt x="204" y="621" on="0"/>
        <pt x="264" y="650" on="1"/>
        <pt x="364" y="697" on="0"/>
        <pt x="463" y="697" on="1"/>
        <pt x="602" y="697" on="0"/>
        <pt x="777" y="520" on="0"/>
        <pt x="777" y="392" on="1"/>
        <pt x="777" y="283" on="0"/>
        <pt x="640" y="129" on="0"/>
        <pt x="549" y="129" on="1"/>
        <pt x="517" y="129" on="0"/>
        <pt x="479" y="154" on="0"/>
        <pt x="471" y="184" on="0"/>
        <pt x="467" y="209" on="0"/>
        <pt x="463" y="209" on="0"/>
        <pt x="436" y="178" on="0"/>
        <pt x="400" y="142" on="0"/>
        <pt x="341" y="111" on="0"/>
        <pt x="263" y="111" on="0"/>
        <pt x="217" y="164" on="0"/>
        <pt x="217" y="265" on="0"/>
        <pt x="280" y="395" on="0"/>
        <pt x="390" y="488" on="0"/>
        <pt x="448" y="488" on="1"/>
        <pt x="467" y="488" on="0"/>
        <pt x="518" y="479" on="0"/>
        <pt x="520" y="479" on="1"/>
        <pt x="527" y="479" on="0"/>
        <pt x="551" y="519" on="0"/>
        <pt x="562" y="519" on="1"/>
        <pt x="570" y="519" on="0"/>
        <pt x="570" y="496" on="0"/>
        <pt x="558" y="448" on="1"/>
        <pt x="521" y="298" on="0"/>
        <pt x="521" y="246" on="1"/>
        <pt x="521" y="233" on="1"/>
        <pt x="521" y="174" on="0"/>
        <pt x="562" y="174" on="1"/>
        <pt x="638" y="174" on="0"/>
        <pt x="736" y="289" on="0"/>
        <pt x="736" y="520" on="0"/>
        <pt x="580" y="659" on="0"/>
        <pt x="464" y="659" on="1"/>
        <pt x="313" y="659" on="0"/>
        <pt x="104" y="458" on="0"/>
        <pt x="104" y="297" on="1"/>
        <pt x="104" y="155" on="0"/>
        <pt x="281" y="-27" on="0"/>
        <pt x="423" y="-27" on="1"/>
        <pt x="486" y="-27" on="0"/>
        <pt x="588" y="6" on="0"/>
        <pt x="640" y="38" on="0"/>
        <pt x="641" y="38" on="1"/>
        <pt x="652" y="38" on="0"/>
        <pt x="652" y="26" on="1"/>
        <pt x="652" y="12" on="0"/>
        <pt x="608" y="-14" on="1"/>
        <pt x="519" y="-64" on="0"/>
        <pt x="405" y="-64" on="1"/>
        <pt x="245" y="-64" on="0"/>
        <pt x="44" y="122" on="0"/>
      </contour>
      <contour>
        <pt x="284" y="227" on="1"/>
        <pt x="284" y="197" on="0"/>
        <pt x="319" y="167" on="0"/>
        <pt x="374" y="167" on="0"/>
        <pt x="428" y="201" on="0"/>
        <pt x="450" y="234" on="0"/>
        <pt x="502" y="432" on="0"/>
        <pt x="502" y="442" on="0"/>
        <pt x="458" y="456" on="0"/>
        <pt x="440" y="456" on="1"/>
        <pt x="391" y="456" on="0"/>
        <pt x="284" y="327" on="0"/>
      </contour>
    </TTGlyph>
    <TTGlyph name="atilde" xMin="48" yMin="-15" xMax="441" yMax="644">
      <component glyphName="tildecomb" x="442" y="0" flags="0x1004"/>
      <component glyphName="a" x="0" y="0" flags="0x1004"/>
    </TTGlyph>
    <TTGlyph name="atilde.sc" xMin="20" yMin="-1" xMax="560" yMax="685">
      <component glyphName="tildecomb" x="500" y="41" flags="0x1004"/>
      <component glyphName="a.sc" x="0" y="0" flags="0x1004"/>
    </TTGlyph>
    <TTGlyph name="b" xMin="12" yMin="-17" xMax="508" yMax="756">
      <contour>
        <pt x="70" y="-4" on="1"/>
        <pt x="74" y="78" on="1"/>
        <pt x="74" y="111" on="0"/>
        <pt x="83" y="281" on="0"/>
        <pt x="83" y="342" on="1"/>
        <pt x="83" y="589" on="1"/>
        <pt x="83" y="680" on="0"/>
        <pt x="38" y="680" on="1"/>
        <pt x="28" y="680" on="1"/>
        <pt x="12" y="680" on="0"/>
        <pt x="12" y="700" on="0"/>
        <pt x="32" y="714" on="0"/>
        <pt x="76" y="729" on="0"/>
        <pt x="84" y="732" on="0"/>
        <pt x="100" y="740" on="1"/>
        <pt x="134" y="756" on="0"/>
        <pt x="146" y="756" on="0"/>
        <pt x="156" y="746" on="0"/>
        <pt x="156" y="738" on="1"/>
        <pt x="156" y="718" on="1"/>
        <pt x="155" y="596" on="1"/>
        <pt x="155" y="411" on="1"/>
        <pt x="155" y="375" on="0"/>
        <pt x="162" y="375" on="1"/>
        <pt x="166" y="375" on="0"/>
        <pt x="182" y="396" on="0"/>
        <pt x="205" y="421" on="0"/>
        <pt x="271" y="442" on="0"/>
        <pt x="320" y="442" on="1"/>
        <pt x="409" y="442" on="0"/>
        <pt x="508" y="318" on="0"/>
        <pt x="508" y="235" on="1"/>
        <pt x="508" y="188" on="0"/>
        <pt x="459" y="65" on="0"/>
        <pt x="417" y="33" on="1"/>
        <pt x="359" y="-11" on="0"/>
        <pt x="278" y="-11" on="1"/>
        <pt x="237" y="-11" on="0"/>
        <pt x="167" y="18" on="0"/>
        <pt x="132" y="47" on="0"/>
        <pt x="131" y="47" on="1"/>
        <pt x="127" y="47" on="0"/>
        <pt x="96" y="-17" on="0"/>
        <pt x="82" y="-17" on="1"/>
        <pt x="70" y="-17" on="0"/>
      </contour>
      <contour>
        <pt x="155" y="132" on="1"/>
        <pt x="155" y="105" on="0"/>
        <pt x="234" y="25" on="0"/>
        <pt x="370" y="25" on="0"/>
        <pt x="443" y="118" on="0"/>
        <pt x="443" y="264" on="0"/>
        <pt x="348" y="388" on="0"/>
        <pt x="267" y="388" on="1"/>
        <pt x="220" y="388" on="0"/>
        <pt x="155" y="334" on="0"/>
        <pt x="155" y="313" on="1"/>
      </contour>
    </TTGlyph>
    <TTGlyph name="b.sc" xMin="20" yMin="-8" xMax="459" yMax="459">
      <contour>
        <pt x="101" y="153" on="1"/>
        <pt x="102" y="267" on="1"/>
        <pt x="102" y="379" on="1"/>
        <pt x="102" y="399" on="0"/>
        <pt x="68" y="426" on="0"/>
        <pt x="53" y="426" on="1"/>
        <pt x="20" y="426" on="0"/>
        <pt x="20" y="457" on="0"/>
        <pt x="45" y="457" on="1"/>
        <pt x="125" y="453" on="0"/>
        <pt x="136" y="453" on="1"/>
        <pt x="248" y="459" on="1"/>
        <pt x="312" y="459" on="0"/>
        <pt x="361" y="437" on="1"/>
        <pt x="388" y="425" on="0"/>
        <pt x="420" y="378" on="0"/>
        <pt x="420" y="322" on="0"/>
        <pt x="406" y="284" on="0"/>
        <pt x="387" y="264" on="0"/>
        <pt x="367" y="252" on="0"/>
        <pt x="353" y="247" on="0"/>
        <pt x="353" y="244" on="0"/>
        <pt x="375" y="238" on="0"/>
        <pt x="406" y="225" on="0"/>
        <pt x="437" y="202" on="0"/>
        <pt x="459" y="155" on="0"/>
        <pt x="459" y="112" on="0"/>
        <pt x="452" y="84" on="0"/>
        <pt x="428" y="45" on="0"/>
        <pt x="388" y="14" on="0"/>
        <pt x="312" y="-8" on="0"/>
        <pt x="232" y="-8" on="0"/>
        <pt x="142" y="0" on="0"/>
        <pt x="136" y="0" on="1"/>
        <pt x="136" y="0" on="0"/>
        <pt x="65" y="-3" on="1"/>
        <pt x="41" y="-3" on="0"/>
        <pt x="41" y="10" on="1"/>
        <pt x="41" y="21" on="0"/>
        <pt x="62" y="27" on="1"/>
        <pt x="73" y="31" on="0"/>
        <pt x="90" y="40" on="1"/>
        <pt x="92" y="42" on="0"/>
        <pt x="101" y="68" on="0"/>
        <pt x="101" y="88" on="1"/>
      </contour>
      <contour>
        <pt x="172" y="75" on="1"/>
        <pt x="172" y="55" on="0"/>
        <pt x="190" y="42" on="1"/>
        <pt x="221" y="22" on="0"/>
        <pt x="318" y="22" on="0"/>
        <pt x="379" y="83" on="0"/>
        <pt x="379" y="120" on="1"/>
        <pt x="379" y="229" on="0"/>
        <pt x="195" y="229" on="1"/>
        <pt x="179" y="229" on="0"/>
        <pt x="172" y="208" on="0"/>
        <pt x="172" y="162" on="1"/>
      </contour>
      <contour>
        <pt x="174" y="276" on="1"/>
        <pt x="174" y="259" on="0"/>
        <pt x="191" y="250" on="0"/>
        <pt x="214" y="250" on="1"/>
        <pt x="252" y="250" on="1"/>
        <pt x="312" y="250" on="0"/>
        <pt x="349" y="286" on="0"/>
        <pt x="349" y="327" on="1"/>
        <pt x="349" y="350" on="0"/>
        <pt x="328" y="382" on="1"/>
        <pt x="316" y="400" on="0"/>
        <pt x="264" y="423" on="0"/>
        <pt x="193" y="423" on="0"/>
        <pt x="174" y="405" on="0"/>
        <pt x="174" y="371" on="1"/>
      </contour>
    </TTGlyph>
    <TTGlyph name="backslash" xMin="20" yMin="-183" xMax="396" yMax="735">
      <contour>
        <pt x="20" y="723" on="1"/>
        <pt x="20" y="735" on="0"/>
        <pt x="55" y="735" on="0"/>
        <pt x="66" y="728" on="0"/>
        <pt x="70" y="717" on="1"/>
        <pt x="377" y="-113" on="1"/>
        <pt x="380" y="-121" on="0"/>
        <pt x="385" y="-134" on="1"/>
        <pt x="396" y="-163" on="0"/>
        <pt x="396" y="-167" on="1"/>
        <pt x="396" y="-183" on="0"/>
        <pt x="363" y="-183" on="1"/>
        <pt x="355" y="-183" on="0"/>
        <pt x="346" y="-172" on="0"/>
        <pt x="338" y="-152" on="1"/>
        <pt x="34" y="679" on="1"/>
        <pt x="20" y="715" on="0"/>
      </contour>
    </TTGlyph>
    <TTGlyph name="bar" xMin="78" yMin="-209" xMax="131" yMax="762">
      <contour>
        <pt x="127" y="-137" on="1"/>
        <pt x="128" y="-163" on="1"/>
        <pt x="128" y="-171" on="1"/>
        <pt x="128" y="-209" on="0"/>
        <pt x="111" y="-209" on="1"/>
        <pt x="89" y="-209" on="0"/>
        <pt x="78" y="-189" on="0"/>
        <pt x="78" y="-148" on="1"/>
        <pt x="78" y="-87" on="1"/>
        <pt x="84" y="570" on="1"/>
        <pt x="84" y="652" on="1"/>
        <pt x="83" y="738" on="1"/>
        <pt x="83" y="751" on="0"/>
        <pt x="94" y="762" on="0"/>
        <pt x="121" y="762" on="0"/>
        <pt x="130" y="751" on="0"/>
        <pt x="130" y="737" on="1"/>
        <pt x="129" y="714" on="1"/>
        <pt x="131" y="559" on="1"/>
        <pt x="126" y="10" on="1"/>
        <pt x="126" y="-87" on="0"/>
      </contour>
    </TTGlyph>
    <TTGlyph name="braceleft" xMin="42" yMin="-186" xMax="241" yMax="752">
      <contour>
        <pt x="74" y="-174" on="1"/>
        <pt x="77" y="202" on="1"/>
        <pt x="77" y="224" on="0"/>
        <pt x="42" y="253" on="0"/>
        <pt x="42" y="283" on="0"/>
        <pt x="79" y="304" on="0"/>
        <pt x="79" y="321" on="1"/>
        <pt x="75" y="734" on="1"/>
        <pt x="75" y="752" on="0"/>
        <pt x="93" y="752" on="1"/>
        <pt x="155" y="744" on="1"/>
        <pt x="175" y="744" on="0"/>
        <pt x="215" y="750" on="0"/>
        <pt x="240" y="750" on="0"/>
        <pt x="240" y="740" on="1"/>
        <pt x="240" y="716" on="0"/>
        <pt x="167" y="685" on="0"/>
        <pt x="140" y="685" on="1"/>
        <pt x="133" y="685" on="0"/>
        <pt x="133" y="676" on="1"/>
        <pt x="130" y="255" on="1"/>
        <pt x="133" y="-105" on="1"/>
        <pt x="133" y="-110" on="0"/>
        <pt x="194" y="-124" on="0"/>
        <pt x="207" y="-131" on="1"/>
        <pt x="241" y="-150" on="0"/>
        <pt x="241" y="-172" on="1"/>
        <pt x="241" y="-181" on="0"/>
        <pt x="233" y="-181" on="1"/>
        <pt x="232" y="-181" on="0"/>
        <pt x="222" y="-178" on="1"/>
        <pt x="196" y="-172" on="0"/>
        <pt x="130" y="-172" on="0"/>
        <pt x="92" y="-186" on="0"/>
        <pt x="86" y="-186" on="1"/>
        <pt x="74" y="-186" on="0"/>
      </contour>
    </TTGlyph>
    <TTGlyph name="braceleft.uppercase" xMin="42" yMin="-127" xMax="241" yMax="811">
      <contour>
        <pt x="74" y="-116" on="1"/>
        <pt x="77" y="260" on="1"/>
        <pt x="77" y="282" on="0"/>
        <pt x="42" y="312" on="0"/>
        <pt x="42" y="342" on="0"/>
        <pt x="79" y="363" on="0"/>
        <pt x="79" y="380" on="1"/>
        <pt x="75" y="792" on="1"/>
        <pt x="75" y="811" on="0"/>
        <pt x="93" y="811" on="1"/>
        <pt x="155" y="803" on="1"/>
        <pt x="222" y="808" on="1"/>
        <pt x="240" y="808" on="0"/>
        <pt x="240" y="798" on="1"/>
        <pt x="240" y="774" on="0"/>
        <pt x="167" y="743" on="0"/>
        <pt x="140" y="743" on="1"/>
        <pt x="133" y="743" on="0"/>
        <pt x="133" y="734" on="1"/>
        <pt x="130" y="314" on="1"/>
        <pt x="133" y="-47" on="1"/>
        <pt x="133" y="-51" on="0"/>
        <pt x="144" y="-54" on="1"/>
        <pt x="194" y="-65" on="0"/>
        <pt x="207" y="-72" on="1"/>
        <pt x="241" y="-91" on="0"/>
        <pt x="241" y="-113" on="1"/>
        <pt x="241" y="-123" on="0"/>
        <pt x="233" y="-123" on="1"/>
        <pt x="232" y="-123" on="0"/>
        <pt x="222" y="-120" on="1"/>
        <pt x="192" y="-113" on="0"/>
        <pt x="130" y="-113" on="0"/>
        <pt x="92" y="-127" on="0"/>
        <pt x="86" y="-127" on="1"/>
        <pt x="74" y="-127" on="0"/>
      </contour>
    </TTGlyph>
    <TTGlyph name="braceright" xMin="32" yMin="-186" xMax="231" yMax="752">
      <contour>
        <pt x="196" y="202" on="1"/>
        <pt x="199" y="-174" on="1"/>
        <pt x="199" y="-186" on="0"/>
        <pt x="187" y="-186" on="1"/>
        <pt x="180" y="-186" on="0"/>
        <pt x="142" y="-172" on="0"/>
        <pt x="94" y="-172" on="0"/>
        <pt x="61" y="-176" on="0"/>
        <pt x="41" y="-181" on="0"/>
        <pt x="40" y="-181" on="1"/>
        <pt x="32" y="-181" on="0"/>
        <pt x="32" y="-172" on="1"/>
        <pt x="32" y="-150" on="0"/>
        <pt x="66" y="-131" on="1"/>
        <pt x="79" y="-124" on="0"/>
        <pt x="98" y="-120" on="1"/>
        <pt x="140" y="-110" on="0"/>
        <pt x="140" y="-105" on="1"/>
        <pt x="143" y="255" on="1"/>
        <pt x="140" y="676" on="1"/>
        <pt x="140" y="685" on="0"/>
        <pt x="133" y="685" on="1"/>
        <pt x="106" y="685" on="0"/>
        <pt x="33" y="716" on="0"/>
        <pt x="33" y="740" on="1"/>
        <pt x="33" y="750" on="0"/>
        <pt x="58" y="750" on="0"/>
        <pt x="98" y="744" on="0"/>
        <pt x="118" y="744" on="1"/>
        <pt x="180" y="752" on="1"/>
        <pt x="198" y="752" on="0"/>
        <pt x="198" y="734" on="1"/>
        <pt x="194" y="321" on="1"/>
        <pt x="194" y="304" on="0"/>
        <pt x="231" y="283" on="0"/>
        <pt x="231" y="253" on="0"/>
        <pt x="196" y="224" on="0"/>
      </contour>
    </TTGlyph>
    <TTGlyph name="braceright.uppercase" xMin="32" yMin="-127" xMax="231" yMax="811">
      <contour>
        <pt x="196" y="260" on="1"/>
        <pt x="199" y="-116" on="1"/>
        <pt x="199" y="-127" on="0"/>
        <pt x="187" y="-127" on="1"/>
        <pt x="180" y="-127" on="0"/>
        <pt x="142" y="-113" on="0"/>
        <pt x="94" y="-113" on="0"/>
        <pt x="61" y="-118" on="0"/>
        <pt x="41" y="-123" on="0"/>
        <pt x="40" y="-123" on="1"/>
        <pt x="32" y="-123" on="0"/>
        <pt x="32" y="-113" on="1"/>
        <pt x="32" y="-91" on="0"/>
        <pt x="66" y="-72" on="1"/>
        <pt x="79" y="-65" on="0"/>
        <pt x="140" y="-51" on="0"/>
        <pt x="140" y="-47" on="1"/>
        <pt x="143" y="314" on="1"/>
        <pt x="140" y="734" on="1"/>
        <pt x="140" y="743" on="0"/>
        <pt x="133" y="743" on="1"/>
        <pt x="106" y="743" on="0"/>
        <pt x="33" y="774" on="0"/>
        <pt x="33" y="798" on="1"/>
        <pt x="33" y="808" on="0"/>
        <pt x="51" y="808" on="1"/>
        <pt x="118" y="803" on="1"/>
        <pt x="180" y="811" on="1"/>
        <pt x="198" y="811" on="0"/>
        <pt x="198" y="792" on="1"/>
        <pt x="194" y="380" on="1"/>
        <pt x="194" y="363" on="0"/>
        <pt x="231" y="342" on="0"/>
        <pt x="231" y="312" on="0"/>
        <pt x="196" y="282" on="0"/>
      </contour>
    </TTGlyph>
    <TTGlyph name="bracketleft" xMin="78" yMin="-204" xMax="257" yMax="764">
      <contour>
        <pt x="139" y="-159" on="1"/>
        <pt x="229" y="-158" on="1"/>
        <pt x="243" y="-158" on="0"/>
        <pt x="253" y="-167" on="0"/>
        <pt x="253" y="-196" on="0"/>
        <pt x="232" y="-204" on="0"/>
        <pt x="201" y="-204" on="1"/>
        <pt x="111" y="-204" on="1"/>
        <pt x="89" y="-204" on="0"/>
        <pt x="78" y="-184" on="0"/>
        <pt x="78" y="-143" on="1"/>
        <pt x="78" y="-82" on="1"/>
        <pt x="84" y="570" on="1"/>
        <pt x="84" y="652" on="1"/>
        <pt x="83" y="738" on="1"/>
        <pt x="83" y="754" on="0"/>
        <pt x="103" y="763" on="0"/>
        <pt x="132" y="763" on="1"/>
        <pt x="175" y="763" on="1"/>
        <pt x="234" y="764" on="1"/>
        <pt x="241" y="764" on="1"/>
        <pt x="248" y="764" on="0"/>
        <pt x="257" y="751" on="0"/>
        <pt x="257" y="743" on="1"/>
        <pt x="257" y="723" on="0"/>
        <pt x="245" y="723" on="1"/>
        <pt x="153" y="722" on="1"/>
        <pt x="137" y="722" on="1"/>
        <pt x="129" y="722" on="0"/>
        <pt x="129" y="714" on="1"/>
        <pt x="131" y="559" on="1"/>
        <pt x="131" y="559" on="0"/>
        <pt x="126" y="15" on="1"/>
        <pt x="126" y="-82" on="0"/>
        <pt x="127" y="-159" on="0"/>
      </contour>
    </TTGlyph>
    <TTGlyph name="bracketleft.sub" xMin="39" yMin="-432" xMax="154" yMax="149">
      <component glyphName="bracketleft.sup" x="0" y="-707" flags="0x1004"/>
    </TTGlyph>
    <TTGlyph name="bracketleft.sup" xMin="39" yMin="275" xMax="154" yMax="856">
      <contour>
        <pt x="83" y="309" on="1"/>
        <pt x="137" y="310" on="1"/>
        <pt x="152" y="310" on="0"/>
        <pt x="152" y="293" on="1"/>
        <pt x="152" y="281" on="0"/>
        <pt x="139" y="275" on="0"/>
        <pt x="120" y="275" on="1"/>
        <pt x="60" y="275" on="1"/>
        <pt x="45" y="275" on="0"/>
        <pt x="39" y="286" on="0"/>
        <pt x="39" y="312" on="1"/>
        <pt x="39" y="840" on="1"/>
        <pt x="39" y="850" on="0"/>
        <pt x="54" y="855" on="0"/>
        <pt x="74" y="855" on="1"/>
        <pt x="101" y="855" on="1"/>
        <pt x="140" y="856" on="1"/>
        <pt x="145" y="856" on="1"/>
        <pt x="154" y="856" on="0"/>
        <pt x="154" y="825" on="0"/>
        <pt x="146" y="825" on="1"/>
        <pt x="82" y="825" on="1"/>
        <pt x="75" y="825" on="0"/>
        <pt x="75" y="820" on="1"/>
        <pt x="75" y="325" on="1"/>
        <pt x="75" y="309" on="0"/>
      </contour>
    </TTGlyph>
    <TTGlyph name="bracketleft.uppercase" xMin="78" yMin="-146" xMax="257" yMax="822">
      <contour>
        <pt x="131" y="617" on="1"/>
        <pt x="126" y="73" on="1"/>
        <pt x="126" y="-23" on="0"/>
        <pt x="127" y="-100" on="0"/>
        <pt x="139" y="-100" on="1"/>
        <pt x="229" y="-100" on="1"/>
        <pt x="243" y="-100" on="0"/>
        <pt x="253" y="-108" on="0"/>
        <pt x="253" y="-137" on="0"/>
        <pt x="231" y="-146" on="0"/>
        <pt x="201" y="-146" on="1"/>
        <pt x="111" y="-146" on="1"/>
        <pt x="89" y="-146" on="0"/>
        <pt x="78" y="-126" on="0"/>
        <pt x="78" y="-84" on="1"/>
        <pt x="78" y="-23" on="1"/>
        <pt x="84" y="628" on="1"/>
        <pt x="84" y="710" on="1"/>
        <pt x="83" y="796" on="1"/>
        <pt x="83" y="812" on="0"/>
        <pt x="103" y="822" on="0"/>
        <pt x="132" y="822" on="1"/>
        <pt x="241" y="822" on="1"/>
        <pt x="248" y="822" on="0"/>
        <pt x="257" y="810" on="0"/>
        <pt x="257" y="802" on="1"/>
        <pt x="257" y="781" on="0"/>
        <pt x="245" y="781" on="1"/>
        <pt x="137" y="781" on="1"/>
        <pt x="129" y="781" on="0"/>
        <pt x="129" y="772" on="1"/>
      </contour>
    </TTGlyph>
    <TTGlyph name="bracketright" xMin="29" yMin="-204" xMax="208" yMax="764">
      <contour>
        <pt x="203" y="-10" on="1"/>
        <pt x="204" y="-152" on="1"/>
        <pt x="204" y="-178" on="1"/>
        <pt x="204" y="-194" on="0"/>
        <pt x="184" y="-204" on="0"/>
        <pt x="155" y="-204" on="1"/>
        <pt x="46" y="-204" on="1"/>
        <pt x="39" y="-204" on="0"/>
        <pt x="29" y="-192" on="0"/>
        <pt x="29" y="-184" on="1"/>
        <pt x="29" y="-163" on="0"/>
        <pt x="42" y="-163" on="1"/>
        <pt x="150" y="-163" on="1"/>
        <pt x="157" y="-163" on="0"/>
        <pt x="157" y="-154" on="1"/>
        <pt x="156" y="-75" on="1"/>
        <pt x="156" y="1" on="1"/>
        <pt x="160" y="545" on="1"/>
        <pt x="160" y="641" on="0"/>
        <pt x="159" y="718" on="0"/>
        <pt x="147" y="718" on="1"/>
        <pt x="57" y="718" on="1"/>
        <pt x="43" y="718" on="0"/>
        <pt x="33" y="726" on="0"/>
        <pt x="33" y="739" on="1"/>
        <pt x="33" y="762" on="0"/>
        <pt x="50" y="762" on="1"/>
        <pt x="150" y="764" on="0"/>
        <pt x="197" y="764" on="0"/>
        <pt x="208" y="744" on="0"/>
        <pt x="208" y="703" on="1"/>
        <pt x="208" y="642" on="1"/>
      </contour>
    </TTGlyph>
    <TTGlyph name="bracketright.sub" xMin="-29" yMin="-432" xMax="85" yMax="149">
      <component glyphName="bracketright.sup" x="0" y="-707" flags="0x1004"/>
    </TTGlyph>
    <TTGlyph name="bracketright.sup" xMin="-29" yMin="275" xMax="85" yMax="856">
      <contour>
        <pt x="42" y="822" on="1"/>
        <pt x="-13" y="821" on="1"/>
        <pt x="-21" y="821" on="0"/>
        <pt x="-27" y="827" on="0"/>
        <pt x="-27" y="849" on="0"/>
        <pt x="-15" y="856" on="0"/>
        <pt x="4" y="856" on="1"/>
        <pt x="64" y="856" on="1"/>
        <pt x="79" y="856" on="0"/>
        <pt x="85" y="845" on="0"/>
        <pt x="85" y="819" on="1"/>
        <pt x="85" y="291" on="1"/>
        <pt x="85" y="281" on="0"/>
        <pt x="70" y="275" on="0"/>
        <pt x="51" y="275" on="1"/>
        <pt x="-21" y="275" on="1"/>
        <pt x="-29" y="275" on="0"/>
        <pt x="-29" y="306" on="0"/>
        <pt x="-22" y="306" on="1"/>
        <pt x="43" y="306" on="1"/>
        <pt x="49" y="306" on="0"/>
        <pt x="49" y="311" on="1"/>
        <pt x="49" y="806" on="1"/>
        <pt x="49" y="822" on="0"/>
      </contour>
    </TTGlyph>
    <TTGlyph name="bracketright.uppercase" xMin="29" yMin="-146" xMax="208" yMax="822">
      <contour>
        <pt x="112" y="-145" on="1"/>
        <pt x="54" y="-146" on="1"/>
        <pt x="46" y="-146" on="1"/>
        <pt x="39" y="-146" on="0"/>
        <pt x="29" y="-133" on="0"/>
        <pt x="29" y="-125" on="1"/>
        <pt x="29" y="-104" on="0"/>
        <pt x="42" y="-104" on="1"/>
        <pt x="150" y="-104" on="1"/>
        <pt x="154" y="-104" on="0"/>
        <pt x="157" y="-102" on="0"/>
        <pt x="157" y="-96" on="1"/>
        <pt x="156" y="-16" on="1"/>
        <pt x="156" y="60" on="1"/>
        <pt x="160" y="604" on="1"/>
        <pt x="160" y="700" on="0"/>
        <pt x="159" y="777" on="0"/>
        <pt x="147" y="777" on="1"/>
        <pt x="57" y="776" on="1"/>
        <pt x="43" y="776" on="0"/>
        <pt x="33" y="785" on="0"/>
        <pt x="33" y="820" on="0"/>
        <pt x="50" y="820" on="1"/>
        <pt x="150" y="822" on="0"/>
        <pt x="197" y="822" on="0"/>
        <pt x="208" y="802" on="0"/>
        <pt x="208" y="761" on="1"/>
        <pt x="208" y="700" on="1"/>
        <pt x="203" y="48" on="1"/>
        <pt x="204" y="-94" on="1"/>
        <pt x="204" y="-120" on="1"/>
        <pt x="204" y="-136" on="0"/>
        <pt x="184" y="-145" on="0"/>
        <pt x="155" y="-145" on="1"/>
      </contour>
    </TTGlyph>
    <TTGlyph name="breve" xMin="106" yMin="501" xMax="343" yMax="630">
      <component glyphName="uni0306" x="439" y="0" flags="0x1004"/>
    </TTGlyph>
    <TTGlyph name="brokenbar" xMin="78" yMin="-209" xMax="130" yMax="762">
      <contour>
        <pt x="127" y="-8" on="1"/>
        <pt x="128" y="-140" on="1"/>
        <pt x="128" y="-171" on="1"/>
        <pt x="128" y="-209" on="0"/>
        <pt x="111" y="-209" on="1"/>
        <pt x="89" y="-209" on="0"/>
        <pt x="78" y="-189" on="0"/>
        <pt x="78" y="-148" on="1"/>
        <pt x="79" y="-82" on="1"/>
        <pt x="80" y="176" on="1"/>
        <pt x="80" y="201" on="0"/>
        <pt x="106" y="201" on="1"/>
        <pt x="119" y="201" on="0"/>
        <pt x="127" y="190" on="0"/>
        <pt x="127" y="176" on="1"/>
      </contour>
      <contour>
        <pt x="83" y="414" on="1"/>
        <pt x="83" y="738" on="1"/>
        <pt x="83" y="751" on="0"/>
        <pt x="94" y="762" on="0"/>
        <pt x="121" y="762" on="0"/>
        <pt x="130" y="751" on="0"/>
        <pt x="130" y="737" on="1"/>
        <pt x="130" y="391" on="1"/>
        <pt x="130" y="353" on="0"/>
        <pt x="114" y="353" on="1"/>
        <pt x="92" y="353" on="0"/>
        <pt x="83" y="372" on="0"/>
      </contour>
    </TTGlyph>
    <TTGlyph name="bullet" xMin="59" yMin="180" xMax="360" yMax="481">
      <contour>
        <pt x="59" y="269" on="0"/>
        <pt x="59" y="393" on="0"/>
        <pt x="147" y="481" on="0"/>
        <pt x="271" y="481" on="0"/>
        <pt x="360" y="393" on="0"/>
        <pt x="360" y="269" on="0"/>
        <pt x="272" y="180" on="0"/>
        <pt x="148" y="180" on="0"/>
      </contour>
    </TTGlyph>
</ttFont>
